<?xml version="1.0" encoding="utf-8"?>
<!-- Generator: Adobe Illustrator 15.0.0, SVG Export Plug-In . SVG Version: 6.00 Build 0)  -->
<!DOCTYPE svg PUBLIC "-//W3C//DTD SVG 1.1//EN" "http://www.w3.org/Graphics/SVG/1.1/DTD/svg11.dtd">
<svg version="1.1" xmlns="http://www.w3.org/2000/svg" xmlns:xlink="http://www.w3.org/1999/xlink" x="0px" y="0px"
	 width="1295.934px" height="738px" viewBox="0 0 1295.934 738" enable-background="new 0 0 1295.934 738" xml:space="preserve">
<g id="Layer_3_1_">
	<g id="Layer_5" enable-background="new    ">
		<rect x="-3.082" y="-8.5" fill="#4AD6C1" width="1306.483" height="754"/>
		<path fill="#4AD6C1" d="M1123.321,686.821c0,0,11.881,5.936,16.451-7.976c4.57-13.91,49.902-167.289,49.902-167.289
			s3.292-10.572-8.773-14.466c-12.062-3.896-109.125-33.569-109.125-33.569l-57.762,189.917L1123.321,686.821z"/>
	</g>
</g>
<g id="Layer_2_1_">
	<path fill="#58595B" enable-background="new    " d="M1122.028,682.566c0,0,11.8,5.81,16.338-7.807
		c4.539-13.614,49.559-163.739,49.559-163.739s3.27-10.348-8.713-14.159c-11.979-3.812-108.373-32.856-108.373-32.856
		l-57.364,185.888L1122.028,682.566z"/>
</g>
<g id="Layer_1">
	<g id="Layer_6">
		<polygon fill="#3BBDB0" points="282.84,543.125 297.74,531.075 296.548,528.89 278.327,535.26 275.094,537.451 278.584,544.967 		
			"/>
		
			<ellipse transform="matrix(-0.8779 0.4788 -0.4788 -0.8779 577.9359 1072.786)" fill="#3BBDB0" cx="152.2" cy="610.073" rx="3.708" ry="4.266"/>
		
			<rect x="149.293" y="607.951" transform="matrix(0.479 0.8778 -0.8778 0.479 614.836 182.6322)" fill="#3BBDB0" width="8.533" height="2.668"/>
		
			<rect x="156.963" y="596.825" transform="matrix(0.479 0.8778 -0.8778 0.479 615.2084 173.1209)" fill="#3BBDB0" width="9.6" height="16.002"/>
		<polygon fill="#3BBDB0" points="282.84,543.125 297.74,531.075 296.548,528.89 278.327,535.26 275.094,537.451 278.584,544.967 		
			"/>
		<path fill="#3BBDB0" d="M279.83,536.945c0,0-1.25,3.111,1.854,3.316c3.104,0.204-111.988,62.372-111.988,62.372l-1.917-3.51
			l59.208-34.307L279.83,536.945z"/>
		<path fill="#3BBDB0" d="M279.83,536.945c0,0-2,0.004-1.035-1.941c0.965-1.943-112.122,62.091-112.122,62.091l1.106,2.03
			L279.83,536.945z"/>
		<path fill="#3BBDB0" d="M281.407,539.755c0,0-0.501,2.808,1.673,3.068c2.174,0.263-112.114,62.146-112.114,62.146l-1.369-2.509
			L281.407,539.755z"/>
		<polygon fill="#3BBDB0" points="297.74,531.075 303.307,526.798 296.548,528.89 		"/>
		
			<rect x="156.978" y="596.803" transform="matrix(0.4789 0.8779 -0.8779 0.4789 615.2397 173.1402)" fill="#3BBDB0" width="9.601" height="16.002"/>
		<polygon fill="#3BBDB0" points="306.245,593.148 323.746,585.346 323.158,582.927 303.91,584.386 300.222,585.671 
			301.658,593.831 		"/>
		
			<ellipse transform="matrix(-0.9717 0.2364 -0.2364 -0.9717 445.1956 1200.8357)" fill="#3BBDB0" cx="150.619" cy="627.103" rx="3.708" ry="4.267"/>
		
			<rect x="147.848" y="625.397" transform="matrix(0.2366 0.9716 -0.9716 0.2366 725.0663 330.6635)" fill="#3BBDB0" width="8.532" height="2.667"/>
		
			<rect x="156.381" y="616.518" transform="matrix(0.2366 0.9716 -0.9716 0.2366 729.8415 320.1697)" fill="#3BBDB0" width="9.6" height="16.001"/>
		<polygon fill="#3BBDB0" points="306.245,593.148 323.746,585.346 323.158,582.927 303.91,584.386 300.222,585.671 
			301.658,593.831 		"/>
		<path fill="#3BBDB0" d="M305.366,586.295c0,0-2.265,2.748,0.941,3.683c3.205,0.936-136.896,34.479-136.896,34.479l-0.948-3.886
			l72.782-19.529L305.366,586.295z"/>
		<path fill="#3BBDB0" d="M305.366,586.295c0,0-2.106-0.47-0.498-2.143c1.609-1.672-136.95,34.172-136.95,34.172l0.545,2.246
			L305.366,586.295z"/>
		<path fill="#3BBDB0" d="M306.17,589.415c0,0-1.383,2.626,0.826,3.396c2.208,0.772-136.958,34.228-136.958,34.228l-0.677-2.776
			L306.17,589.415z"/>
		<polygon fill="#3BBDB0" points="323.746,585.346 330.227,582.646 323.158,582.927 		"/>
		
			<rect x="156.367" y="616.525" transform="matrix(0.2365 0.9716 -0.9716 0.2365 729.8597 320.2294)" fill="#3BBDB0" width="9.6" height="16"/>
		<path fill="#3BBDB0" d="M103.104,522.514c0,0-75.945-47.776-85.613-54.334c-9.667-6.558-3.846-14.937-3.846-14.937l6.822-10.739
			l71.668-112.077l6.897-10.69c0,0,5.172-8.794,15.174-2.759c10.001,6.034,85.183,55.006,85.183,55.006"/>
		<path fill="#3BBDB0" d="M105.598,524.146c0,0-75.836-47.95-85.488-54.53c-9.652-6.577-3.812-14.942-3.812-14.942l6.847-10.725
			l71.924-112.001l6.922-10.675c0,0,5.191-8.782,15.18-2.725c9.989,6.059,85.057,55.201,85.057,55.201L105.598,524.146z"/>
		<path fill="#3BBDB0" d="M109.327,527.146c0,0,75.339,48.728,85.361,54.729c10.021,6.003,15.165-2.809,15.165-2.809l6.863-10.714
			l71.421-112.233l6.788-10.762c0,0,5.794-8.397-3.896-14.924c-9.688-6.523-85.787-54.056-85.787-54.056"/>
		<path fill="#3BBDB0" d="M106.642,525.306c0,0,75.34,48.729,85.361,54.729c10.021,6.003,15.165-2.809,15.165-2.809l6.863-10.714
			l71.5-112.271l6.788-10.762c0,0,5.794-8.396-3.896-14.923c-9.688-6.525-85.788-54.058-85.788-54.058L106.642,525.306z"/>
		
			<rect x="1036.663" y="552.02" transform="matrix(-0.9557 -0.2943 0.2943 -0.9557 1981.4811 1449.7559)" fill="#F9CF0C" width="126.321" height="47.534"/>
		
			<rect x="1139.337" y="488.952" transform="matrix(-0.9567 -0.2911 0.2911 -0.9567 2067.0308 1480.1101)" fill="#454649" width="8.564" height="194.678"/>
	</g>
	<g id="Layer_3">
		
			<rect x="344.2" y="598.018" transform="matrix(-0.745 0.667 -0.667 -0.745 1048.2683 875.7133)" fill="#3BBDB0" width="25.126" height="80.38"/>
		<path d="M109.571,519.997c0,0-73.405-46.18-82.75-52.519c-9.344-6.338-3.717-14.437-3.717-14.437l6.594-10.38l69.271-108.33
			L105.635,324c0,0,5-8.5,14.667-2.666c9.667,5.833,82.333,53.167,82.333,53.167"/>
	</g>
	<g id="Layer_2">
		<polygon fill="#FFFFFF" points="285.84,536.125 300.74,524.075 299.548,521.89 281.327,528.26 278.094,530.451 281.584,537.967 		
			"/>
		<path fill="#F4E9CF" d="M111.982,521.576c0,0-73.3-46.349-82.628-52.708c-9.33-6.357-3.685-14.442-3.685-14.442l6.618-10.366
			l69.518-108.255l6.691-10.317c0,0,5.018-8.488,14.672-2.632c9.654,5.854,82.212,53.354,82.212,53.354L111.982,521.576z"/>
		
			<ellipse transform="matrix(-0.8779 0.4788 -0.4788 -0.8779 580.2178 1058.2041)" fill="#C671AE" cx="155.2" cy="603.073" rx="3.708" ry="4.267"/>
		
			<rect x="152.293" y="600.951" transform="matrix(0.479 0.8778 -0.8778 0.479 610.2548 176.352)" fill="#C671AE" width="8.533" height="2.668"/>
		
			<rect x="159.964" y="589.825" transform="matrix(0.479 0.8778 -0.8778 0.479 610.6078 166.82)" fill="#FFFFFF" width="9.6" height="16.002"/>
		
			<linearGradient id="SVGID_1_" gradientUnits="userSpaceOnUse" x1="1909.2822" y1="1102.9102" x2="1918.3477" y2="1102.9102" gradientTransform="matrix(-0.4788 -0.878 -0.878 0.4788 2174.5852 1680.9543)">
			<stop  offset="0" style="stop-color:#FBB03C"/>
			<stop  offset="0.1849" style="stop-color:#E0A657;stop-opacity:0.693"/>
			<stop  offset="0.3784" style="stop-color:#CD9E68;stop-opacity:0.3718"/>
			<stop  offset="0.5" style="stop-color:#C59C6D;stop-opacity:0.17"/>
			<stop  offset="0.6312" style="stop-color:#CE9F66;stop-opacity:0.3879"/>
			<stop  offset="0.8583" style="stop-color:#E7A851;stop-opacity:0.7647"/>
			<stop  offset="1" style="stop-color:#FBB03C"/>
		</linearGradient>
		<polygon fill="url(#SVGID_1_)" points="285.84,536.125 300.74,524.075 299.548,521.89 281.327,528.26 278.094,530.451 
			281.584,537.967 		"/>
		<path fill="none" stroke="#000000" stroke-width="3" stroke-miterlimit="10" d="M186.35,561.375"/>
		<path fill="#F4DA46" d="M282.83,529.945c0,0-1.25,3.111,1.854,3.316c3.104,0.204-111.988,62.372-111.988,62.372l-1.917-3.51
			l59.208-34.307L282.83,529.945z"/>
		<path fill="#C97B29" d="M282.83,529.945c0,0-2,0.004-1.035-1.941c0.965-1.943-112.122,62.091-112.122,62.091l1.106,2.03
			L282.83,529.945z"/>
		<path fill="#E4AC38" d="M284.407,532.755c0,0-0.501,2.808,1.673,3.068c2.174,0.263-112.114,62.146-112.114,62.146l-1.369-2.509
			L284.407,532.755z"/>
		
			<linearGradient id="SVGID_2_" gradientUnits="userSpaceOnUse" x1="1912.7285" y1="1087.709" x2="1915.2178" y2="1087.709" gradientTransform="matrix(-0.4788 -0.878 -0.878 0.4788 2174.5852 1680.9543)">
			<stop  offset="0.092" style="stop-color:#010101"/>
			<stop  offset="0.1226" style="stop-color:#050505;stop-opacity:0.8085"/>
			<stop  offset="0.1446" style="stop-color:#101010;stop-opacity:0.6701"/>
			<stop  offset="0.1641" style="stop-color:#1F1F1E;stop-opacity:0.5484"/>
			<stop  offset="0.1819" style="stop-color:#323030;stop-opacity:0.4364"/>
			<stop  offset="0.1987" style="stop-color:#494646;stop-opacity:0.3309"/>
			<stop  offset="0.2148" style="stop-color:#686565;stop-opacity:0.2303"/>
			<stop  offset="0.2302" style="stop-color:#959292;stop-opacity:0.1336"/>
			<stop  offset="0.2448" style="stop-color:#D2D0D0;stop-opacity:0.0423"/>
			<stop  offset="0.2515" style="stop-color:#FFFFFF;stop-opacity:0"/>
			<stop  offset="0.281" style="stop-color:#C0BEBE;stop-opacity:0.1045"/>
			<stop  offset="0.3311" style="stop-color:#7C7878;stop-opacity:0.2818"/>
			<stop  offset="0.3795" style="stop-color:#4E4C4B;stop-opacity:0.4535"/>
			<stop  offset="0.4252" style="stop-color:#302F2E;stop-opacity:0.6153"/>
			<stop  offset="0.4674" style="stop-color:#1A1A19;stop-opacity:0.7649"/>
			<stop  offset="0.5049" style="stop-color:#080808;stop-opacity:0.8976"/>
			<stop  offset="0.5337" style="stop-color:#010101"/>
		</linearGradient>
		<polygon fill="url(#SVGID_2_)" points="300.74,524.075 306.307,519.798 299.548,521.89 		"/>
		
			<linearGradient id="SVGID_3_" gradientUnits="userSpaceOnUse" x1="1944.0723" y1="1009.3145" x2="1944.0723" y2="1009.3145" gradientTransform="matrix(-0.7029 -0.7113 -0.7113 0.7029 2392.7812 1188.1533)">
			<stop  offset="0" style="stop-color:#010101"/>
			<stop  offset="0.065" style="stop-color:#292828;stop-opacity:0.8921"/>
			<stop  offset="0.1824" style="stop-color:#605D5D;stop-opacity:0.6973"/>
			<stop  offset="0.2888" style="stop-color:#989595;stop-opacity:0.5205"/>
			<stop  offset="0.3806" style="stop-color:#C8C6C6;stop-opacity:0.3682"/>
			<stop  offset="0.454" style="stop-color:#EBEAEA;stop-opacity:0.2463"/>
			<stop  offset="0.5" style="stop-color:#FFFFFF;stop-opacity:0.17"/>
			<stop  offset="0.5466" style="stop-color:#E8E6E6;stop-opacity:0.2473"/>
			<stop  offset="0.6275" style="stop-color:#BEBCBC;stop-opacity:0.3817"/>
			<stop  offset="0.7331" style="stop-color:#868383;stop-opacity:0.557"/>
			<stop  offset="0.8594" style="stop-color:#494746;stop-opacity:0.7666"/>
			<stop  offset="1" style="stop-color:#010101"/>
		</linearGradient>
		<path fill="url(#SVGID_3_)" d="M308.368,514.782"/>
		
			<linearGradient id="SVGID_4_" gradientUnits="userSpaceOnUse" x1="1908.2803" y1="1245.8438" x2="1917.8818" y2="1245.8438" gradientTransform="matrix(-0.4788 -0.878 -0.878 0.4788 2174.5852 1680.9543)">
			<stop  offset="0" style="stop-color:#B8A131"/>
			<stop  offset="0.6074" style="stop-color:#B8A131;stop-opacity:0.13"/>
			<stop  offset="1" style="stop-color:#B8A131"/>
		</linearGradient>
		<polygon fill="url(#SVGID_4_)" points="155.455,597.444 160.052,605.873 174.1,598.21 169.501,589.783 		"/>
		
			<linearGradient id="SVGID_5_" gradientUnits="userSpaceOnUse" x1="1908.2812" y1="1251.1777" x2="1917.8809" y2="1251.1777" gradientTransform="matrix(-0.4788 -0.878 -0.878 0.4788 2174.5852 1680.9543)">
			<stop  offset="0" style="stop-color:#736458"/>
			<stop  offset="0.9325" style="stop-color:#B8A131;stop-opacity:0.13"/>
			<stop  offset="1" style="stop-color:#B8A131"/>
		</linearGradient>
		<polygon fill="url(#SVGID_5_)" points="158.264,595.912 162.861,604.341 161.924,604.852 157.327,596.424 		"/>
		
			<linearGradient id="SVGID_6_" gradientUnits="userSpaceOnUse" x1="1908.2783" y1="1249.5781" x2="1917.8799" y2="1249.5781" gradientTransform="matrix(-0.4788 -0.878 -0.878 0.4788 2174.5852 1680.9543)">
			<stop  offset="0" style="stop-color:#736458"/>
			<stop  offset="0.9325" style="stop-color:#B8A131;stop-opacity:0.13"/>
			<stop  offset="1" style="stop-color:#B8A131"/>
		</linearGradient>
		<polygon fill="url(#SVGID_6_)" points="159.669,595.146 164.266,603.576 163.33,604.086 158.731,595.657 		"/>
		
			<linearGradient id="SVGID_7_" gradientUnits="userSpaceOnUse" x1="1908.2783" y1="1247.4453" x2="1917.8799" y2="1247.4453" gradientTransform="matrix(-0.4788 -0.878 -0.878 0.4788 2174.5852 1680.9543)">
			<stop  offset="0" style="stop-color:#736458"/>
			<stop  offset="0.9325" style="stop-color:#B8A131;stop-opacity:0.13"/>
			<stop  offset="1" style="stop-color:#B8A131"/>
		</linearGradient>
		<polygon fill="url(#SVGID_7_)" points="161.542,594.126 166.138,602.555 165.202,603.064 160.604,594.636 		"/>
		
			<linearGradient id="SVGID_8_" gradientUnits="userSpaceOnUse" x1="1908.2812" y1="1245.8438" x2="1917.8818" y2="1245.8438" gradientTransform="matrix(-0.4788 -0.878 -0.878 0.4788 2174.5852 1680.9543)">
			<stop  offset="0" style="stop-color:#736458"/>
			<stop  offset="0.9325" style="stop-color:#B8A131;stop-opacity:0.13"/>
			<stop  offset="1" style="stop-color:#B8A131"/>
		</linearGradient>
		<polygon fill="url(#SVGID_8_)" points="162.946,593.358 167.544,601.787 166.607,602.298 162.01,593.869 		"/>
		<path fill="#010101" d="M994.005,546.435l-0.173,0.938l-0.014,2.568c0,0,0.252,0.719,0.778,0.229l1.118-2.077l0.411-1.183
			C996.127,546.911,995.3,545.425,994.005,546.435z"/>
		<polygon fill="#6B6C6C" points="993.593,546.441 993.484,547.001 996.262,547.682 996.444,547.079 		"/>
		<g>
			<g>
				<path fill="#010101" d="M993.86,549.797c0.034,0.235,0.105,0.371,0.323,0.472c0.176,0.079,0.328-0.179,0.152-0.26
					c-0.133-0.061-0.195-0.158-0.188-0.292C994.121,549.526,993.832,549.607,993.86,549.797L993.86,549.797z"/>
			</g>
		</g>
		<polygon fill="#FFFFFF" points="994.495,534.154 993.396,546.488 996.558,547.224 1002.286,535.854 		"/>
		
			<linearGradient id="SVGID_9_" gradientUnits="userSpaceOnUse" x1="-349.5288" y1="-1192.4243" x2="-343.5756" y2="-1183.5707" gradientTransform="matrix(0.3724 0.9281 0.9281 -0.3724 2227.7397 420.0368)">
			<stop  offset="0" style="stop-color:#E4AC38"/>
			<stop  offset="0.5" style="stop-color:#E4AC38;stop-opacity:0.27"/>
			<stop  offset="1" style="stop-color:#E4AC38"/>
		</linearGradient>
		<polygon fill="url(#SVGID_9_)" points="994.495,534.154 993.396,546.488 996.558,547.224 1002.286,535.854 		"/>
		
			<rect x="993.87" y="534.263" transform="matrix(-0.9693 -0.246 0.246 -0.9693 1834.7262 1298.9554)" fill="#F0D69E" width="9.257" height="1.227"/>
		
			<linearGradient id="SVGID_10_" gradientUnits="userSpaceOnUse" x1="-357.8057" y1="-1189.3887" x2="-350.1354" y2="-1178.7419" gradientTransform="matrix(0.3724 0.9281 0.9281 -0.3724 2227.7397 420.0368)">
			<stop  offset="0" style="stop-color:#E4AC38"/>
			<stop  offset="0.5" style="stop-color:#E4AC38;stop-opacity:0.27"/>
			<stop  offset="1" style="stop-color:#E4AC38"/>
		</linearGradient>
		<polygon fill="url(#SVGID_10_)" points="994.581,530.193 993.678,533.502 1003.223,535.835 1004.268,532.405 		"/>
		<path fill="#C7852A" d="M1010.956,452.214c0,0,3.345-1.381,1.071-3.046"/>
		<path fill="#010101" d="M996.878,518.189l-1.555,9.19c0,0-0.539,1.961-1.091,2.349c-0.553,0.387,0.1,1.154,0.1,1.154l9.628,2.529
			l0.451-0.606c0,0,0.323-0.433,0.016-0.905c-0.307-0.474,2.815-10.925,2.815-10.925l-2.635-3.556l-4.53-0.755L996.878,518.189z"/>
		<path fill="#FFFFFF" d="M998.544,509.449l-1.797,9.099c0,0,8.647,0.235,10.401,2.232l2.931-9.382l-3.031-3.081l-7.146-0.273
			L998.544,509.449z"/>
		
			<linearGradient id="SVGID_11_" gradientUnits="userSpaceOnUse" x1="-483.6343" y1="-1124.5562" x2="-473.5974" y2="-1133.0668" gradientTransform="matrix(0.4297 0.9029 0.9029 -0.4297 2228.5342 459.9409)">
			<stop  offset="0" style="stop-color:#010101"/>
			<stop  offset="1" style="stop-color:#231F20;stop-opacity:0.77"/>
			<stop  offset="1" style="stop-color:#676767;stop-opacity:0"/>
		</linearGradient>
		<path fill="url(#SVGID_11_)" d="M998.544,509.449l-1.797,9.099c0,0,8.647,0.235,10.401,2.232l2.931-9.382l-3.031-3.081
			l-7.146-0.273L998.544,509.449z"/>
		<path d="M1009.084,469.623l-10.54,39.826c0,0,4.313-1.503,11.214,1.806l0.321,0.145l9.681-37.396l-0.232-0.913l-4.549-3.161
			L1009.084,469.623z"/>
		<path fill="#5B5B5B" d="M1008.18,469.7c0,0-0.367,0.955,0.325,1.115c0.69,0.162,5.808-1.343,11.05,3.409
			c0,0,0.569,0.23,0.424-0.724c-0.146-0.953-2.823-3.221-2.823-3.221l-6.572-1.725L1008.18,469.7z"/>
		<path d="M1023.308,420.659c0,0,7.621-12.756,8.573,1.498c0,0-6.35,37.087-11.891,51.727c0,0-5.906-5.304-11.952-3.439
			c0,0,2.142-11.841,4.887-19.567C1015.668,443.145,1023.308,420.659,1023.308,420.659z"/>
		<path fill="#F2CB75" d="M1009.341,463.231l-0.396,2.724c0,0,6.47-2.741,12.566,3.314l0.944-2.984
			C1022.458,466.285,1017.982,461.147,1009.341,463.231z"/>
		<path fill="#F2CB75" d="M1021.334,469.953c0,0-5.92-5.606-12.556-3.269l-0.177,0.853c0,0,7.679-1.855,12.446,3.31
			L1021.334,469.953z"/>
		<path fill="#F2CB75" d="M1031.756,422.873l-0.187,1.061c0,0-4.316-2.686-9.098-0.819l-1.131-0.188c0,0-0.873,2.422-0.977,3.402
			c-0.104,0.979-0.933,6.635-9.41,25.885l-0.599-0.159l3.662-11.885c0,0,4.511-13.434,5.004-15.188
			c0.496-1.758,1.511-3.889,1.511-3.889s0.657,0.448,1.12,0.354C1022.117,421.354,1029.716,420.758,1031.756,422.873z"/>
		<path fill="#C8C7C7" d="M1012.868,461.09c0,0,10.723-37.353,11.342-37.647c0.62-0.294,1.986-0.269,1.986-0.269l-10.132,38.065
			L1012.868,461.09z"/>
		
			<ellipse transform="matrix(-0.6946 -0.7194 0.7194 -0.6946 1109.0259 1759.8718)" fill="#C8C7C7" cx="928.06" cy="644.536" rx="0.65" ry="1.335"/>
		<path fill="#F2CB75" d="M1009.901,461.606c0,0,7.234-2.463,12.978,3.055l-0.193,0.713c0,0-5.97-4.932-12.938-3.106
			L1009.901,461.606z"/>
		<path fill="#C4C7C8" d="M1010.629,471.705l-9.062,36.856c0,0,2.094-0.312,2.541-0.026c0.446,0.286,9.124-36.327,9.124-36.327
			S1011.672,471.395,1010.629,471.705z"/>
		<path fill="#C8C7C7" d="M999.643,519.833l1.694,0.546c0,0-3.036,9.688-2.548,10.895c0.488,1.202-2.124-0.556-2.124-0.556
			L999.643,519.833z"/>
		<path fill="#5B5B5B" d="M998.544,509.449c0,0,6.955-1.398,11.479,2.128l-0.131,0.416c0,0-6.188-3.597-11.443-2.071
			L998.544,509.449z"/>
		<path fill="#5B5B5B" d="M996.747,518.289c0,0,6.358-1.061,10.409,2.343l-0.126,0.379c0,0-5.563-3.521-10.379-2.289
			L996.747,518.289z"/>
		
			<ellipse transform="matrix(-0.9694 0.2457 -0.2457 -0.9694 459.5858 1185.774)" cx="155.834" cy="621.552" rx="3.707" ry="4.267"/>
		
			<rect x="153.147" y="619.832" transform="matrix(0.2456 0.9694 -0.9694 0.2456 720.8916 316.0121)" width="8.535" height="2.667"/>
		
			<rect x="161.612" y="610.876" transform="matrix(0.2457 0.9693 -0.9693 0.2457 725.4244 305.4971)" fill="#FFFFFF" width="9.6" height="16.001"/>
		
			<linearGradient id="SVGID_12_" gradientUnits="userSpaceOnUse" x1="108.5244" y1="619.4004" x2="115.1677" y2="611.7677" gradientTransform="matrix(0.8538 0.5207 0.5207 -0.8538 -96.2959 1046.8032)">
			<stop  offset="0" style="stop-color:#000000"/>
			<stop  offset="0.1013" style="stop-color:#0E0E0E;stop-opacity:0.9264"/>
			<stop  offset="0.3626" style="stop-color:#2C2C2C;stop-opacity:0.7365"/>
			<stop  offset="0.5092" style="stop-color:#383838;stop-opacity:0.63"/>
			<stop  offset="0.6974" style="stop-color:#262626;stop-opacity:0.7718"/>
			<stop  offset="1" style="stop-color:#000000"/>
		</linearGradient>
		<polygon fill="url(#SVGID_12_)" points="313.8,585.607 331.228,577.639 330.617,575.229 311.383,576.866 307.708,578.188 
			309.221,586.333 		"/>
		<path fill="none" stroke="#000000" stroke-width="3" stroke-miterlimit="10" d="M196.392,588.913"/>
		<path fill="#FAAA5B" d="M312.19,578.77c0,0-2.279,2.778,0.975,3.674c3.254,0.895-138.515,36.261-138.515,36.261l-0.983-3.876
			l73.635-20.479L312.19,578.77z"/>
		<path fill="#F07A22" d="M312.19,578.77c0,0-2.138-0.441-0.518-2.138c1.62-1.693-138.573,35.954-138.573,35.954l0.567,2.241
			L312.19,578.77z"/>
		<path fill="#F7921E" d="M313.023,581.883c0,0-1.385,2.646,0.859,3.389c2.241,0.742-138.581,36.01-138.581,36.01l-0.703-2.771
			L313.023,581.883z"/>
		
			<linearGradient id="SVGID_13_" gradientUnits="userSpaceOnUse" x1="2088.8691" y1="766.5039" x2="2091.3545" y2="766.5039" gradientTransform="matrix(-0.2456 -0.9694 -0.9694 0.2456 1590.6688 2413.5054)">
			<stop  offset="0.092" style="stop-color:#010101"/>
			<stop  offset="0.1226" style="stop-color:#050505;stop-opacity:0.8085"/>
			<stop  offset="0.1446" style="stop-color:#101010;stop-opacity:0.6701"/>
			<stop  offset="0.1641" style="stop-color:#1F1F1E;stop-opacity:0.5484"/>
			<stop  offset="0.1819" style="stop-color:#323030;stop-opacity:0.4364"/>
			<stop  offset="0.1987" style="stop-color:#494646;stop-opacity:0.3309"/>
			<stop  offset="0.2148" style="stop-color:#686565;stop-opacity:0.2303"/>
			<stop  offset="0.2302" style="stop-color:#959292;stop-opacity:0.1336"/>
			<stop  offset="0.2448" style="stop-color:#D2D0D0;stop-opacity:0.0423"/>
			<stop  offset="0.2515" style="stop-color:#FFFFFF;stop-opacity:0"/>
			<stop  offset="0.281" style="stop-color:#C0BEBE;stop-opacity:0.1045"/>
			<stop  offset="0.3311" style="stop-color:#7C7878;stop-opacity:0.2818"/>
			<stop  offset="0.3795" style="stop-color:#4E4C4B;stop-opacity:0.4535"/>
			<stop  offset="0.4252" style="stop-color:#302F2E;stop-opacity:0.6153"/>
			<stop  offset="0.4674" style="stop-color:#1A1A19;stop-opacity:0.7649"/>
			<stop  offset="0.5049" style="stop-color:#080808;stop-opacity:0.8976"/>
			<stop  offset="0.5337" style="stop-color:#010101"/>
		</linearGradient>
		<polygon fill="url(#SVGID_13_)" points="331.228,577.639 337.683,574.881 330.617,575.229 		"/>
		
			<linearGradient id="SVGID_14_" gradientUnits="userSpaceOnUse" x1="2028.9307" y1="666.6885" x2="2028.9307" y2="666.6885" gradientTransform="matrix(-0.504 -0.8637 -0.8637 0.504 1924.563 1990.4897)">
			<stop  offset="0" style="stop-color:#010101"/>
			<stop  offset="0.065" style="stop-color:#292828;stop-opacity:0.8921"/>
			<stop  offset="0.1824" style="stop-color:#605D5D;stop-opacity:0.6973"/>
			<stop  offset="0.2888" style="stop-color:#989595;stop-opacity:0.5205"/>
			<stop  offset="0.3806" style="stop-color:#C8C6C6;stop-opacity:0.3682"/>
			<stop  offset="0.454" style="stop-color:#EBEAEA;stop-opacity:0.2463"/>
			<stop  offset="0.5" style="stop-color:#FFFFFF;stop-opacity:0.17"/>
			<stop  offset="0.5466" style="stop-color:#E8E6E6;stop-opacity:0.2473"/>
			<stop  offset="0.6275" style="stop-color:#BEBCBC;stop-opacity:0.3817"/>
			<stop  offset="0.7331" style="stop-color:#868383;stop-opacity:0.557"/>
			<stop  offset="0.8594" style="stop-color:#494746;stop-opacity:0.7666"/>
			<stop  offset="1" style="stop-color:#010101"/>
		</linearGradient>
		<path fill="url(#SVGID_14_)" d="M326.162,574.113"/>
		
			<linearGradient id="SVGID_15_" gradientUnits="userSpaceOnUse" x1="2084.5762" y1="939.8359" x2="2094.1787" y2="939.8359" gradientTransform="matrix(-0.2456 -0.9694 -0.9694 0.2456 1590.6688 2413.5054)">
			<stop  offset="0" style="stop-color:#000000"/>
			<stop  offset="0.023" style="stop-color:#0F0F0F"/>
			<stop  offset="0.0877" style="stop-color:#343434"/>
			<stop  offset="0.1555" style="stop-color:#535353"/>
			<stop  offset="0.2262" style="stop-color:#6B6B6B"/>
			<stop  offset="0.3011" style="stop-color:#7C7C7C"/>
			<stop  offset="0.3828" style="stop-color:#868686"/>
			<stop  offset="0.4847" style="stop-color:#898989"/>
			<stop  offset="1" style="stop-color:#000000"/>
		</linearGradient>
		<polygon fill="url(#SVGID_15_)" points="157.5,616.17 159.858,625.479 175.37,621.547 173.011,612.241 		"/>
		<rect x="156.475" y="619.615" transform="matrix(0.2456 0.9694 -0.9694 0.2456 722.8124 311.4924)" width="9.6" height="1.067"/>
		<rect x="158.038" y="619.25" transform="matrix(0.2456 0.9694 -0.9694 0.2456 723.6471 309.714)" width="9.603" height="1.067"/>
		
			<rect x="160.078" y="618.706" transform="matrix(0.2455 0.9694 -0.9694 0.2455 724.6959 307.3955)" width="9.601" height="1.066"/>
		<rect x="161.658" y="618.299" transform="matrix(0.2457 0.9693 -0.9693 0.2457 725.4166 305.4203)" width="9.6" height="1.067"/>
		
			<rect x="348.855" y="593.318" transform="matrix(-0.745 0.667 -0.667 -0.745 1051.2819 859.28)" fill="#F27071" width="25.125" height="74.48"/>
		
			<rect x="328.189" y="601.42" transform="matrix(-0.745 0.667 -0.667 -0.745 999.3696 833.1043)" fill="#E56267" width="24.54" height="12.269"/>
		<path fill="#F4E9CF" d="M112.654,522.247c0,0-73.405-46.18-82.75-52.519c-9.344-6.338-3.717-14.437-3.717-14.437l6.594-10.38
			L102.052,336.5l6.667-10.333c0,0,5-8.5,14.667-2.667c9.667,5.833,82.333,53.167,82.333,53.167"/>
		<path d="M115.586,524.474c0,0,72.82,47.099,82.506,52.899c9.686,5.802,14.658-2.715,14.658-2.715l6.633-10.354l69.033-108.48
			l6.561-10.401c0,0,5.6-8.116-3.766-14.424c-9.364-6.307-82.918-52.248-82.918-52.248"/>
		<path fill="#F4E9CF" d="M112.991,522.695c0,0,72.82,47.098,82.506,52.897c9.686,5.802,14.658-2.714,14.658-2.714l6.633-10.354
			l69.109-108.518l6.561-10.401c0,0,5.6-8.115-3.765-14.424c-9.364-6.308-82.919-52.249-82.919-52.249L112.991,522.695z"/>
		<line fill="none" stroke="#E5CDB4" stroke-miterlimit="10" x1="101.268" y1="337.733" x2="285.171" y2="455.599"/>
		<line fill="none" stroke="#E5CDB4" stroke-miterlimit="10" x1="101.601" y1="337.9" x2="284.697" y2="455.312"/>
		<line fill="none" stroke="#E5CDB4" stroke-miterlimit="10" x1="96.937" y1="344.9" x2="280.388" y2="462.562"/>
		<line fill="none" stroke="#E5CDB4" stroke-miterlimit="10" x1="92.268" y1="351.732" x2="276.171" y2="469.598"/>
		<line fill="none" stroke="#E5CDB4" stroke-miterlimit="10" x1="87.769" y1="358.733" x2="271.386" y2="476.438"/>
		<line fill="none" stroke="#E5CDB4" stroke-miterlimit="10" x1="83.602" y1="365.899" x2="267.012" y2="483.501"/>
		<line fill="none" stroke="#E5CDB4" stroke-miterlimit="10" x1="79.268" y1="372.734" x2="262.76" y2="490.312"/>
		<line fill="none" stroke="#E5CDB4" stroke-miterlimit="10" x1="74.602" y1="379.9" x2="258.198" y2="497.562"/>
		<line fill="none" stroke="#E5CDB4" stroke-miterlimit="10" x1="69.935" y1="386.732" x2="253.837" y2="504.599"/>
		<line fill="none" stroke="#E5CDB4" stroke-miterlimit="10" x1="65.435" y1="393.733" x2="249.338" y2="511.599"/>
		<line fill="none" stroke="#E5CDB4" stroke-miterlimit="10" x1="61.102" y1="400.734" x2="245.004" y2="518.6"/>
		<line fill="none" stroke="#E5CDB4" stroke-miterlimit="10" x1="56.602" y1="407.732" x2="240.504" y2="525.599"/>
		<line fill="none" stroke="#E5CDB4" stroke-miterlimit="10" x1="52.101" y1="414.732" x2="236.004" y2="532.599"/>
		<line fill="none" stroke="#E5CDB4" stroke-miterlimit="10" x1="33.601" y1="442.564" x2="217.504" y2="560.431"/>
		<line fill="none" stroke="#E5CDB4" stroke-miterlimit="10" x1="28.935" y1="449.564" x2="212.837" y2="567.431"/>
		<line fill="none" stroke="#E5CDB4" stroke-miterlimit="10" x1="47.102" y1="421.399" x2="231.004" y2="539.266"/>
		<line fill="none" stroke="#E5CDB4" stroke-miterlimit="10" x1="42.768" y1="428.564" x2="226.671" y2="546.431"/>
		<line fill="none" stroke="#E5CDB4" stroke-miterlimit="10" x1="38.102" y1="435.731" x2="222.004" y2="553.598"/>
		<line fill="none" stroke="#000000" stroke-miterlimit="10" x1="205.719" y1="376.666" x2="112.654" y2="522.247"/>
		<path fill="#FFFFFF" d="M1297.387,331.667l-123.335,59.666c0,0,0,0-13.334,6s-17.333-4-17.333-4l-7.333-16l-94.957-196.134
			l-7.438-15.951c0,0-5.027-9.524,8.181-15.796s13.208-6.272,13.208-6.272l124.148-60.039c0,0,0,0,13.302-6.072
			c13.301-6.072,17.354,3.905,17.354,3.905l7.421,15.96L1294.72,256"/>
		
			<rect x="1090.963" y="122.761" transform="matrix(-0.9019 0.432 -0.432 -0.9019 2340.21 -57.6466)" fill="#47484B" width="171.378" height="228.379"/>
		<circle fill="#FFFFFF" stroke="#A5A4A4" stroke-width="0.75" stroke-miterlimit="10" cx="1231.26" cy="351" r="6.875"/>
		<circle cx="1122.303" cy="124.25" r="1.75"/>
		<path fill="#FFFFFF" d="M930.999,94.63c-6.178-3.812-11.634-6.997-13.971-8.34c-7.139-4.105-11.724,2.882-11.724,2.882
			s-16.182,26.208-32.799,53.228c-16.616,27.02,50.8,67.536,67.028,40.368c16.228-27.168,31.942-53.573,31.942-53.573
			s3.504-7.979-3.467-12.365c-4.222-2.658-19.1-11.607-30.255-18.096"/>
		<path fill="#FFFFFF" d="M881.504,229.769c6.178,3.812,11.634,6.997,13.971,8.34c7.139,4.104,11.724-2.882,11.724-2.882
			s16.182-26.208,32.798-53.228c16.617-27.021-50.8-67.536-67.027-40.368c-16.229,27.168-31.941,53.573-31.941,53.573
			s-3.504,7.979,3.465,12.365c4.223,2.658,19.1,11.607,30.256,18.096"/>
	</g>
	<g id="Layer_4">
		
			<rect x="223.905" y="407.291" transform="matrix(-0.8459 -0.5334 0.5334 -0.8459 159.1661 1034.25)" fill="#514F4F" width="10.216" height="173.675"/>
		
			<rect x="865.789" y="71.756" transform="matrix(-0.8568 -0.5156 0.5156 -0.8568 1544.7975 705.0068)" fill="#61C5B8" width="9.001" height="132.504"/>
		
			<rect x="939.797" y="115.971" transform="matrix(-0.8568 -0.5156 0.5156 -0.8568 1659.4557 825.22)" fill="#61C5B8" width="9.002" height="132.497"/>
		
			<rect x="871.123" y="107.011" transform="matrix(-0.8568 -0.5157 0.5157 -0.8568 1598.929 768.0916)" fill="#47484B" width="70.002" height="110.004"/>
		<circle fill="#FFFFFF" stroke="#A5A4A4" stroke-width="0.75" stroke-miterlimit="10" cx="874.265" cy="216.116" r="5.542"/>
		<path fill="#47484B" d="M943.773,112.104c-0.188,0.315-0.627,0.4-0.976,0.19l-8.053-4.847c-0.349-0.21-0.479-0.637-0.289-0.952
			l0,0c0.19-0.315,0.628-0.4,0.977-0.19l8.055,4.847C943.834,111.362,943.964,111.788,943.773,112.104L943.773,112.104z"/>
		<circle fill="#47484B" cx="931.453" cy="104.821" r="0.906"/>
		<circle fill="#47484B" cx="941.061" cy="106.008" r="0.594"/>
	</g>
	<path fill="#4E4E50" stroke="#DCDEDF" stroke-width="2.5" stroke-miterlimit="10" d="M226.333-173.801
		c0,0-265.755,261.358-276.112,271.544s0.902,15.004,0.902,15.004s91.503,39.18,102.963,44.617
		c11.458,5.437,14.379,0.121,14.379,0.121l5.8-5.705l17.883-17.586l216.18-212.604"/>
	<polyline fill="#C5C7C8" points="260.875,-45.869 68.929,142.901 -30.1,94.688 194.711,-126.403 	"/>
	<path fill="#DCDEDF" d="M329.962-97.875c9.462-9.305,18.141,1.99,18.141,1.99L515.569,74.398c0,0,11.147,8.865,1.686,18.171
		L260.611,344.971c-9.461,9.305-18.141-1.988-18.141-1.988L75.004,172.699c0,0-11.147-8.868-1.686-18.172"/>
	<path fill="#809199" d="M412.953,197.85c2.194,2.23,2.25,5.733,0.126,7.822l-37.877,37.25c-2.125,2.089-5.625,1.974-7.819-0.256
		l0,0c-2.193-2.231-2.25-5.732-0.125-7.823l37.876-37.25C407.258,195.504,410.759,195.619,412.953,197.85L412.953,197.85z"/>
	
		<rect x="52.576" y="25.421" transform="matrix(0.713 -0.7012 0.7012 0.713 37.1753 151.3445)" fill="#4E4E50" width="301.755" height="9.684"/>
	<line fill="none" stroke="#000000" stroke-miterlimit="10" x1="92.486" y1="132.604" x2="307.354" y2="-78.71"/>
	<path fill="#C3C4C6" d="M337.066-77.79c0,0-3.293-4.284-6.883-0.754L92.839,154.838c-3.589,3.53,0.64,6.893,0.64,6.893
		l92.731,94.291c0,0,3.292,4.285,6.881,0.755L430.297,23.358c3.589-3.53-0.639-6.894-0.639-6.894"/>
	<path d="M118.544,145.79c0,0-1.457-1.896-3.045-0.334l-11.296,11.076c-1.588,1.562,0.283,3.049,0.283,3.049l4.863,4.911
		c0,0,1.457,1.895,3.045,0.333l11.264-11.11c1.587-1.562-0.283-3.05-0.283-3.05"/>
	<path d="M134.908,129.697c0,0-1.457-1.896-3.045-0.333l-11.297,11.076c-1.588,1.562,0.282,3.05,0.282,3.05l4.864,4.91
		c0,0,1.457,1.896,3.044,0.334l11.264-11.111c1.588-1.562-0.283-3.05-0.283-3.05"/>
	<path d="M151.686,113.197c0,0-1.457-1.896-3.044-0.334l-11.297,11.076c-1.588,1.562,0.283,3.05,0.283,3.05l4.864,4.91
		c0,0,1.457,1.896,3.044,0.334l11.264-11.111c1.588-1.562-0.283-3.05-0.283-3.05"/>
	<path d="M168.567,96.594c0,0-1.457-1.896-3.045-0.334l-11.297,11.077c-1.588,1.562,0.283,3.05,0.283,3.05l4.864,4.91
		c0,0,1.456,1.896,3.044,0.334l11.264-11.111c1.588-1.562-0.284-3.05-0.284-3.05"/>
	<path d="M185.189,80.35c0,0-1.457-1.896-3.045-0.334l-11.297,11.076c-1.588,1.562,0.283,3.05,0.283,3.05l4.864,4.91
		c0,0,1.457,1.896,3.045,0.335l11.263-11.112c1.588-1.562-0.283-3.05-0.283-3.05"/>
	<path d="M201.916,63.9c0,0-1.457-1.896-3.044-0.334l-11.298,11.077c-1.588,1.562,0.283,3.049,0.283,3.049l4.863,4.911
		c0,0,1.458,1.896,3.045,0.334l11.263-11.112c1.587-1.561-0.283-3.05-0.283-3.05"/>
	<path d="M218.485,47.706c0,0-1.457-1.896-3.044-0.334l-11.298,11.076c-1.588,1.562,0.284,3.05,0.284,3.05l4.863,4.91
		c0,0,1.457,1.896,3.045,0.333l11.263-11.111c1.587-1.562-0.283-3.05-0.283-3.05"/>
	<path d="M234.849,31.613c0,0-1.457-1.895-3.044-0.334l-11.298,11.077c-1.587,1.561,0.284,3.049,0.284,3.049l4.863,4.911
		c0,0,1.457,1.896,3.045,0.333l11.263-11.111c1.588-1.562-0.283-3.05-0.283-3.05"/>
	<path d="M251.576,15.061c0,0-1.457-1.896-3.044-0.334l-11.298,11.077c-1.587,1.562,0.283,3.05,0.283,3.05l4.863,4.91
		c0,0,1.458,1.896,3.046,0.334l11.262-11.111c1.588-1.562-0.283-3.05-0.283-3.05"/>
	<path d="M268.303-1.491c0,0-1.457-1.896-3.044-0.334L253.961,9.251c-1.587,1.562,0.284,3.049,0.284,3.049l4.863,4.912
		c0,0,1.457,1.896,3.045,0.333l11.263-11.11c1.589-1.562-0.283-3.051-0.283-3.051"/>
	<path d="M284.821-17.532c0,0-1.457-1.896-3.044-0.334L270.479-6.789c-1.587,1.561,0.284,3.049,0.284,3.049l4.863,4.911
		c0,0,1.457,1.896,3.045,0.334l11.262-11.111c1.589-1.562-0.282-3.05-0.282-3.05"/>
	<path d="M301.34-33.847c0,0-1.456-1.895-3.044-0.334l-11.298,11.077c-1.588,1.561,0.284,3.049,0.284,3.049l4.862,4.911
		c0,0,1.457,1.896,3.045,0.333l11.262-11.111c1.589-1.562-0.282-3.05-0.282-3.05"/>
	<path d="M318.187-50.415c0,0-1.457-1.895-3.044-0.334l-11.297,11.077c-1.588,1.561,0.283,3.049,0.283,3.049l4.863,4.911
		c0,0,1.457,1.895,3.045,0.333l11.263-11.111c1.588-1.562-0.283-3.049-0.283-3.049"/>
	<path d="M334.861-66.745c0,0-1.457-1.896-3.043-0.334l-11.298,11.077c-1.587,1.561,0.284,3.05,0.284,3.05l4.863,4.911
		c0,0,1.457,1.896,3.045,0.333l11.263-11.111c1.588-1.562-0.282-3.05-0.282-3.05"/>
	<path d="M381.674,45.146c0,0-1.456-1.894-3.043-0.333l-11.298,11.076c-1.587,1.562,0.284,3.05,0.284,3.05l4.862,4.911
		c0,0,1.457,1.896,3.046,0.333l11.262-11.111c1.588-1.562-0.282-3.049-0.282-3.049"/>
	<path d="M414.144,13.112c0,0-1.456-1.895-3.043-0.333l-11.298,11.077c-1.587,1.561,0.284,3.049,0.284,3.049l4.863,4.911
		c0,0,1.457,1.896,3.045,0.333l11.262-11.111c1.588-1.562-0.282-3.05-0.282-3.05"/>
	<path d="M115.043,170.37c0,0-1.87-1.489-0.283-3.049l11.272-11.018c1.587-1.562,3.044,0.334,3.044,0.334l9.701,9.881
		c0,0,1.872,1.488,0.284,3.049l-11.204,11.086c-1.588,1.562-3.045-0.334-3.045-0.334"/>
	<path d="M130.733,154.939c0,0-1.87-1.488-0.282-3.05l11.271-11.017c1.588-1.562,3.044,0.334,3.044,0.334l9.701,9.882
		c0,0,1.872,1.488,0.284,3.049l-11.204,11.087c-1.588,1.561-3.045-0.334-3.045-0.334"/>
	<path d="M146.785,139.357c0,0-1.871-1.489-0.283-3.05l11.272-11.017c1.588-1.562,3.044,0.333,3.044,0.333l9.701,9.882
		c0,0,1.872,1.487,0.283,3.049l-11.203,11.086c-1.588,1.562-3.044-0.333-3.044-0.333"/>
	<path d="M163.149,123.264c0,0-1.871-1.488-0.284-3.05l11.272-11.017c1.587-1.562,3.045,0.333,3.045,0.333l9.701,9.881
		c0,0,1.871,1.488,0.283,3.05l-11.204,11.086c-1.587,1.562-3.044-0.333-3.044-0.333"/>
	<path d="M178.944,107.628c0,0-1.871-1.487-0.283-3.049l11.272-11.017c1.588-1.562,3.044,0.335,3.044,0.335l9.701,9.881
		c0,0,1.871,1.488,0.283,3.049l-11.203,11.086c-1.588,1.562-3.045-0.333-3.045-0.333"/>
	<path d="M194.634,92.197c0,0-1.871-1.488-0.283-3.049l11.272-11.017c1.588-1.562,3.044,0.334,3.044,0.334l9.701,9.881
		c0,0,1.871,1.488,0.284,3.049l-11.204,11.087c-1.588,1.562-3.044-0.334-3.044-0.334"/>
	<path d="M211.102,76.002c0,0-1.871-1.487-0.283-3.049l11.271-11.017c1.588-1.562,3.044,0.334,3.044,0.334l9.701,9.882
		c0,0,1.872,1.487,0.284,3.049l-11.204,11.086c-1.588,1.562-3.044-0.334-3.044-0.334"/>
	<path d="M226.947,60.418c0,0-1.871-1.488-0.283-3.05l11.271-11.016c1.588-1.562,3.045,0.333,3.045,0.333l9.701,9.881
		c0,0,1.871,1.488,0.283,3.05l-11.203,11.086c-1.588,1.561-3.045-0.334-3.045-0.334"/>
	<path d="M154.57,162.465c0,0-1.872-1.488-0.284-3.049l11.272-11.017c1.588-1.562,3.044,0.334,3.044,0.334l9.702,9.881
		c0,0,1.871,1.488,0.282,3.05l-11.203,11.086c-1.587,1.561-3.045-0.334-3.045-0.334"/>
	<path d="M171.346,146.239c0,0-1.871-1.488-0.283-3.049l11.271-11.017c1.587-1.562,3.044,0.333,3.044,0.333l9.702,9.881
		c0,0,1.871,1.489,0.283,3.05l-11.203,11.086c-1.588,1.562-3.045-0.333-3.045-0.333"/>
	<path d="M186.811,130.753c0,0-1.871-1.489-0.283-3.05l11.271-11.017c1.588-1.562,3.045,0.334,3.045,0.334l9.702,9.882
		c0,0,1.87,1.487,0.283,3.049l-11.203,11.087c-1.588,1.562-3.046-0.334-3.046-0.334"/>
	<path d="M202.695,115.137c0,0-1.872-1.489-0.284-3.05l11.271-11.017c1.588-1.562,3.045,0.333,3.045,0.333l9.702,9.881
		c0,0,1.871,1.49,0.283,3.051l-11.204,11.085c-1.588,1.562-3.044-0.333-3.044-0.333"/>
	<path d="M219.195,99.044c0,0-1.871-1.488-0.283-3.049l11.271-11.017c1.588-1.562,3.044,0.334,3.044,0.334l9.702,9.881
		c0,0,1.87,1.487,0.283,3.049l-11.203,11.087c-1.588,1.562-3.045-0.335-3.045-0.335"/>
	<path d="M235.008,83.358c0,0-1.871-1.489-0.283-3.05l11.271-11.016c1.588-1.562,3.045,0.333,3.045,0.333l9.701,9.882
		c0,0,1.871,1.487,0.284,3.049l-11.204,11.086c-1.588,1.562-3.045-0.334-3.045-0.334"/>
	<path d="M250.681,67.943c0,0-1.872-1.488-0.284-3.049l11.271-11.017c1.588-1.562,3.045,0.333,3.045,0.333l9.701,9.882
		c0,0,1.87,1.487,0.282,3.048l-11.202,11.087c-1.588,1.562-3.045-0.335-3.045-0.335"/>
	<path d="M266.424,52.325c0,0-1.871-1.489-0.283-3.05l11.271-11.016c1.588-1.562,3.044,0.334,3.044,0.334l9.701,9.881
		c0,0,1.872,1.488,0.284,3.049l-11.203,11.086c-1.588,1.562-3.045-0.333-3.045-0.333"/>
	<path d="M174.262,174.34c0,0-1.871-1.488-0.283-3.05l11.271-11.017c1.588-1.562,3.044,0.334,3.044,0.334l9.701,9.881
		c0,0,1.872,1.487,0.283,3.049l-11.204,11.086c-1.587,1.562-3.044-0.333-3.044-0.333"/>
	<path d="M190.074,158.653c0,0-1.871-1.489-0.283-3.05l11.271-11.016c1.588-1.562,3.045,0.333,3.045,0.333l9.701,9.882
		c0,0,1.871,1.488,0.283,3.049l-11.204,11.087c-1.587,1.562-3.044-0.334-3.044-0.334"/>
	<path d="M206.298,142.832c0,0-1.871-1.488-0.283-3.05l11.271-11.017c1.588-1.562,3.045,0.333,3.045,0.333l9.701,9.881
		c0,0,1.871,1.488,0.283,3.05l-11.204,11.086c-1.587,1.561-3.045-0.334-3.045-0.334"/>
	<path d="M222.25,126.873c0,0-1.872-1.488-0.284-3.05l11.272-11.017c1.588-1.562,3.045,0.334,3.045,0.334l9.701,9.881
		c0,0,1.871,1.488,0.283,3.05l-11.204,11.087c-1.587,1.561-3.044-0.335-3.044-0.335"/>
	<path d="M238.612,111.054c0,0-1.871-1.488-0.283-3.05L249.6,96.988c1.588-1.562,3.045,0.333,3.045,0.333l9.701,9.881
		c0,0,1.871,1.488,0.283,3.049l-11.203,11.086c-1.588,1.562-3.044-0.333-3.044-0.333"/>
	<path d="M254.837,95.233c0,0-1.871-1.488-0.283-3.05l11.271-11.017c1.588-1.562,3.044,0.333,3.044,0.333l9.701,9.882
		c0,0,1.872,1.488,0.283,3.049l-11.203,11.086c-1.588,1.562-3.045-0.334-3.045-0.334"/>
	<path d="M270.648,79.684c0,0-1.871-1.488-0.284-3.05l11.271-11.017c1.588-1.562,3.045,0.333,3.045,0.333l9.701,9.882
		c0,0,1.871,1.488,0.284,3.049l-11.203,11.086c-1.587,1.562-3.045-0.333-3.045-0.333"/>
	<path d="M286.599,63.726c0,0-1.871-1.489-0.283-3.05l11.271-11.016c1.588-1.562,3.045,0.333,3.045,0.333l9.701,9.882
		c0,0,1.871,1.488,0.284,3.049L299.414,74.01c-1.588,1.562-3.045-0.333-3.045-0.333"/>
	<path d="M302.342,48.243c0,0-1.872-1.489-0.284-3.049l11.271-11.017c1.589-1.562,3.045,0.334,3.045,0.334l9.701,9.882
		c0,0,1.871,1.488,0.283,3.049l-11.203,11.086c-1.588,1.562-3.045-0.334-3.045-0.334"/>
	<path d="M197.614,182.34c0,0-1.871-1.488-0.283-3.05l11.271-11.017c1.588-1.562,3.045,0.334,3.045,0.334l9.702,9.881
		c0,0,1.871,1.489,0.283,3.05l-11.204,11.086c-1.587,1.562-3.044-0.334-3.044-0.334"/>
	<path d="M213.771,166.451c0,0-1.871-1.488-0.283-3.049l11.272-11.017c1.587-1.562,3.044,0.333,3.044,0.333l9.702,9.881
		c0,0,1.871,1.488,0.282,3.05l-11.203,11.086c-1.588,1.562-3.045-0.334-3.045-0.334"/>
	<path d="M229.929,150.426c0,0-1.871-1.488-0.283-3.05l11.271-11.017c1.588-1.562,3.045,0.334,3.045,0.334l9.701,9.881
		c0,0,1.871,1.488,0.284,3.049l-11.204,11.086c-1.588,1.562-3.045-0.333-3.045-0.333"/>
	<path d="M246.084,134.673c0,0-1.871-1.488-0.283-3.05l11.271-11.017c1.588-1.562,3.044,0.334,3.044,0.334l9.701,9.882
		c0,0,1.871,1.488,0.284,3.049l-11.203,11.087c-1.588,1.562-3.044-0.334-3.044-0.334"/>
	<path d="M262.104,118.646c0,0-1.871-1.488-0.283-3.05l11.271-11.016c1.589-1.562,3.045,0.333,3.045,0.333l9.701,9.881
		c0,0,1.871,1.489,0.283,3.05l-11.203,11.086c-1.588,1.562-3.044-0.333-3.044-0.333"/>
	<path d="M278.123,103.028c0,0-1.871-1.488-0.283-3.049l11.271-11.017c1.588-1.562,3.044,0.334,3.044,0.334l9.701,9.881
		c0,0,1.871,1.488,0.284,3.05l-11.203,11.086c-1.588,1.562-3.044-0.333-3.044-0.333"/>
	<path d="M294.208,87.344c0,0-1.871-1.488-0.284-3.05l11.271-11.016c1.588-1.562,3.045,0.333,3.045,0.333l9.701,9.882
		c0,0,1.871,1.488,0.283,3.05l-11.203,11.085c-1.588,1.562-3.045-0.333-3.045-0.333"/>
	<path d="M309.954,71.726c0,0-1.871-1.488-0.284-3.05l11.271-11.016c1.588-1.562,3.045,0.333,3.045,0.333l9.7,9.882
		c0,0,1.871,1.488,0.284,3.049l-11.203,11.087c-1.588,1.562-3.045-0.334-3.045-0.334"/>
	<path d="M325.971,55.971c0,0-1.871-1.487-0.284-3.049l11.271-11.016c1.588-1.562,3.044,0.333,3.044,0.333l9.701,9.882
		c0,0,1.871,1.488,0.283,3.049l-11.202,11.086c-1.589,1.562-3.045-0.333-3.045-0.333"/>
	<path d="M342.197,40.016c0,0-1.871-1.488-0.283-3.05l11.271-11.016c1.588-1.562,3.045,0.333,3.045,0.333l9.701,9.881
		c0,0,1.871,1.489,0.283,3.05L355.011,50.3c-1.588,1.562-3.045-0.333-3.045-0.333"/>
	<path d="M318.396,32.317c0,0-1.871-1.487-0.283-3.049l11.271-11.016c1.588-1.562,3.045,0.333,3.045,0.333l9.701,9.882
		c0,0,1.871,1.489,0.283,3.05L331.21,42.603c-1.588,1.562-3.045-0.333-3.045-0.333"/>
	<path d="M334.655,16.532c0,0-1.871-1.488-0.284-3.05l11.271-11.016c1.589-1.562,3.045,0.333,3.045,0.333l9.701,9.882
		c0,0,1.871,1.488,0.284,3.049l-11.203,11.086c-1.588,1.562-3.045-0.333-3.045-0.333"/>
	<path d="M243.14,44.393c0,0-1.872-1.488-0.284-3.049l11.271-11.017c1.588-1.562,3.045,0.333,3.045,0.333l9.701,9.882
		c0,0,1.871,1.488,0.284,3.049l-11.203,11.086c-1.588,1.562-3.045-0.334-3.045-0.334"/>
	<path d="M282.718,36.437c0,0-1.871-1.488-0.283-3.05l11.271-11.016c1.589-1.562,3.045,0.333,3.045,0.333l9.701,9.881
		c0,0,1.87,1.489,0.284,3.05l-11.204,11.086c-1.588,1.562-3.044-0.334-3.044-0.334"/>
	<path d="M162.537,174.087c0,0,1.872,1.489,0.283,3.05l-19.506,19.199c-1.588,1.562-3.044-0.333-3.044-0.333l-9.686-9.849
		c0,0-1.87-1.487-0.282-3.049l19.523-19.183c1.588-1.562,3.044,0.334,3.044,0.334"/>
	<path d="M171.666,176.74c0,0-1.457-1.896-3.045-0.334l-22.82,22.459c-1.588,1.562,0.282,3.049,0.282,3.049l9.686,9.849
		c0,0,1.457,1.895,3.044,0.333l22.837-22.442c1.588-1.562-0.283-3.05-0.283-3.05"/>
	<path d="M195.45,184.282c0,0-1.457-1.895-3.045-0.333l-31.174,30.676c-1.587,1.562,0.283,3.049,0.283,3.049l9.668,9.831
		c0,0,1.457,1.895,3.044,0.333l31.192-30.658c1.588-1.562-0.282-3.05-0.282-3.05"/>
	<path d="M191.029,219.649c0,0-1.457-1.896-3.045-0.334l-11.271,11.052c-1.588,1.562,0.282,3.049,0.282,3.049l11.303,11.536
		c0,0,1.456,1.895,3.044,0.333l11.238-11.086c1.588-1.562-0.283-3.05-0.283-3.05"/>
	<path d="M322.776,90.047c0,0-1.457-1.895-3.044-0.333l-75.113,73.818c-1.588,1.562,0.283,3.049,0.283,3.049l11.351,11.541
		c0,0,1.456,1.895,3.044,0.333l75.061-73.871c1.588-1.562-0.283-3.05-0.283-3.05"/>
	<path d="M242.417,169.061c0,0-1.458-1.896-3.045-0.334l-14.603,14.38c-1.588,1.562,0.282,3.049,0.282,3.049l11.265,11.454
		c0,0,1.456,1.895,3.044,0.333l14.621-14.362c1.587-1.561-0.283-3.05-0.283-3.05"/>
	<path d="M391.882-8.765c0,0-1.457-1.895-3.045-0.333l-31.174,30.676c-1.588,1.561,0.283,3.049,0.283,3.049l9.668,9.831
		c0,0,1.456,1.895,3.043,0.333L401.85,4.133c1.588-1.562-0.282-3.05-0.282-3.05"/>
	<path d="M206.84,204.1c0,0-1.457-1.896-3.044-0.334l-11.272,11.052c-1.587,1.562,0.283,3.049,0.283,3.049l11.303,11.536
		c0,0,1.456,1.895,3.044,0.333l11.238-11.085c1.588-1.562-0.283-3.05-0.283-3.05"/>
	<path d="M222.858,188.347c0,0-1.457-1.896-3.045-0.334l-11.271,11.052c-1.588,1.562,0.282,3.048,0.282,3.048l11.303,11.537
		c0,0,1.457,1.895,3.044,0.333l11.238-11.086c1.587-1.562-0.284-3.049-0.284-3.049"/>
	<path d="M391.536,22.459c0,0-1.457-1.896-3.044-0.334L377.22,33.177c-1.588,1.562,0.282,3.049,0.282,3.049l11.303,11.537
		c0,0,1.456,1.895,3.044,0.333l11.238-11.086c1.588-1.562-0.283-3.05-0.283-3.05"/>
	<path d="M359.171,54.289c0,0-1.458-1.896-3.044-0.334l-11.272,11.051c-1.588,1.562,0.282,3.049,0.282,3.049l11.303,11.537
		c0,0,1.456,1.895,3.044,0.333l11.238-11.086c1.588-1.562-0.283-3.05-0.283-3.05"/>
	<path d="M342.738,70.535c0,0-1.457-1.896-3.045-0.334l-14.604,14.38c-1.587,1.562,0.283,3.049,0.283,3.049l11.264,11.454
		c0,0,1.456,1.895,3.044,0.333l14.621-14.361c1.588-1.562-0.283-3.051-0.283-3.051"/>
	<path d="M376.316-24.524c0,0-1.458-1.896-3.046-0.333l-22.82,22.46c-1.587,1.561,0.283,3.048,0.283,3.048l9.686,9.849
		c0,0,1.456,1.895,3.044,0.333L386.3-11.609c1.588-1.562-0.282-3.051-0.282-3.051"/>
	<path d="M259.191,28.708c0,0-1.871-1.487-0.283-3.049l11.271-11.016c1.589-1.562,3.045,0.333,3.045,0.333l9.7,9.881
		c0,0,1.871,1.489,0.284,3.05l-11.203,11.086c-1.588,1.562-3.046-0.333-3.046-0.333"/>
	<path d="M298.703,20.615c0,0-1.871-1.488-0.283-3.049L309.691,6.55c1.588-1.562,3.044,0.333,3.044,0.333l9.701,9.882
		c0,0,1.871,1.488,0.284,3.049L311.517,30.9c-1.588,1.562-3.045-0.333-3.045-0.333"/>
	<path fill="#B0B2B4" d="M340.708,253.179c-3.364,3.309-6.449-0.706-6.449-0.706l-57.265-58.3c0,0-3.962-3.151-0.599-6.459
		L360,105.494c3.364-3.309,6.449,0.705,6.449,0.705l57.336,58.23c0,0,3.962,3.151,0.598,6.459"/>
	<path d="M275.067,13.062c0,0-1.871-1.487-0.283-3.049l11.271-11.016c1.589-1.562,3.045,0.333,3.045,0.333l9.7,9.881
		c0,0,1.871,1.489,0.284,3.05l-11.203,11.086c-1.588,1.562-3.046-0.333-3.046-0.333"/>
	<path d="M291.316-2.604c0,0-1.871-1.487-0.283-3.049l11.271-11.016c1.589-1.562,3.045,0.333,3.045,0.333l9.7,9.881
		c0,0,1.871,1.489,0.284,3.05L304.131,7.681c-1.588,1.562-3.046-0.333-3.046-0.333"/>
	<path d="M314.816,4.708c0,0-1.871-1.487-0.283-3.049l11.271-11.016c1.589-1.562,3.045,0.333,3.045,0.333l9.7,9.881
		c0,0,1.871,1.489,0.284,3.05l-11.203,11.086c-1.588,1.562-3.046-0.333-3.046-0.333"/>
	<polyline fill="#4AD6C1" points="362.967,244 415.467,192 422.467,199.5 401.967,237.5 370.967,250.5 	"/>
</g>
</svg>
