<?xml version="1.0" encoding="utf-8"?>
<!-- Generator: Adobe Illustrator 23.1.0, SVG Export Plug-In . SVG Version: 6.00 Build 0)  -->
<svg version="1.1" id="Layer_1" xmlns="http://www.w3.org/2000/svg" xmlns:xlink="http://www.w3.org/1999/xlink" x="0px" y="0px"
	 viewBox="0 0 400 248.5" style="enable-background:new 0 0 400 248.5;" xml:space="preserve">
<style type="text/css">
	.st0{fill:#C3C3C3;}
	.st1{fill:#979797;}
	.st2{fill:#FFFFFF;}
	.st3{fill:#F27071;}
	.st4{fill:#FACF01;}
	.st5{fill:#9EE27A;}
	.st6{fill:#BEECFC;}
	.st7{fill:#E5E5E5;}
	.st8{fill:none;stroke:#FFFFFF;stroke-width:3;stroke-miterlimit:10;}
	.st9{fill:none;stroke:#000000;stroke-miterlimit:10;}
	.st10{fill:#6AD3FF;}
	.st11{fill:#FDFDFD;}
	.st12{fill:#9B9B9B;}
	.st13{fill:#7F7C80;}
	.st14{fill:#4E4A51;}
	.st15{fill:#DEDDE0;}
	.st16{fill:#7B777F;}
</style>
<g id="Layer_2_1_">
	<g id="Layer_21">
		<rect x="68" y="37.7" class="st0" width="238.5" height="158.5"/>
		<rect x="71.2" y="49.5" class="st1" width="17.2" height="8.6"/>
		<rect x="90.6" y="49.5" class="st1" width="8.9" height="8.6"/>
		<rect x="102.4" y="49.5" class="st1" width="9" height="8.6"/>
		<rect x="295.8" y="49.5" class="st1" width="8.9" height="8.6"/>
		<rect x="275.3" y="49.5" class="st1" width="17.6" height="8.6"/>
		<rect x="114.3" y="49.5" class="st2" width="161.5" height="8.6"/>
		<circle class="st3" cx="73.3" cy="43.4" r="3"/>
		<circle class="st4" cx="80.8" cy="43.4" r="3"/>
		<circle class="st5" cx="88.3" cy="43.4" r="3"/>
		<rect x="70.1" y="60.3" class="st6" width="234.2" height="14"/>
		<rect x="70.1" y="74.2" class="st2" width="234.2" height="9.9"/>
		<rect x="70.1" y="83.9" class="st2" width="234.2" height="75"/>
		<rect x="70.1" y="159.3" class="st7" width="234.2" height="31.9"/>
		<rect x="90" y="98.4" class="st6" width="195" height="39.8"/>
		<line class="st8" x1="90.9" y1="66.1" x2="126" y2="66.1"/>
		<line class="st9" x1="90.9" y1="70.9" x2="138" y2="70.9"/>
		<line class="st9" x1="180.3" y1="70.9" x2="191.2" y2="70.9"/>
		<line class="st9" x1="203.2" y1="70.9" x2="214.1" y2="70.9"/>
		<line class="st9" x1="227.4" y1="70.9" x2="238.3" y2="70.9"/>
		<line class="st9" x1="249.1" y1="70.9" x2="260" y2="70.9"/>
		<line class="st9" x1="273.3" y1="70.9" x2="284.2" y2="70.9"/>
		<line class="st9" x1="90.9" y1="167.1" x2="235.9" y2="167.1"/>
		<line class="st9" x1="90.9" y1="171.7" x2="186.3" y2="171.7"/>
		<rect x="90.6" y="175.8" class="st10" width="23.6" height="5.4"/>
	</g>
</g>
<g>
	<g id="Layer_18_1_">
		<path class="st11" d="M362.8,143.9l6.7-4.1c0,0,4.3-2.5-1.3-12.4c0,0-4.7-7.8-9.9-4.9c-1.5,0.8-3.6,2.1-5.9,3.4"/>
	</g>
	<g id="Layer_17_1_">
		<path class="st12" d="M327.3,151.9c8.9,15.4,23.4,23.7,32.3,18.5c8.9-5.2,8.9-21.9,0-37.3c-8.9-15.4-23.4-23.7-32.3-18.5
			C318.4,119.8,318.4,136.5,327.3,151.9z"/>
	</g>
	<g id="Layer_16_1_">
		<path class="st13" d="M310.5,162.1c11.7,20.3,30.8,31.2,42.6,24.4c11.8-6.8,11.8-28.8,0-49.1c-11.7-20.3-30.8-31.2-42.6-24.4
			C298.8,119.8,298.8,141.8,310.5,162.1z"/>
		<polyline class="st13" points="345.5,191.8 354.7,185.5 309.7,113.6 300.4,120.1 		"/>
	</g>
	<g id="Layer_15_1_">
		<path class="st14" d="M302.5,167.7c11.7,20.3,30.8,31.2,42.6,24.4c11.8-6.8,11.8-28.8,0-49.1c-11.7-20.3-30.8-31.2-42.6-24.4
			C290.7,125.4,290.8,147.4,302.5,167.7z"/>
	</g>
	<g id="Layer_14_1_">
		<path class="st11" d="M263,177.3l36.8-21.1c0,0,12.4-7.7,17.5-10.6s9.9,4.9,9.9,4.9c5.6,9.9,1.3,12.4,1.3,12.4l-18.4,11.3
			l-35.3,20.4"/>
	</g>
	<g id="Layer_13_1_">
		<path class="st13" d="M229.5,212.6c11.7,20.3,30.8,31.2,42.6,24.4c11.8-6.8,11.8-28.8,0-49.1c-11.7-20.3-30.8-31.2-42.6-24.4
			C217.8,170.4,217.8,192.3,229.5,212.6z"/>
		<polyline class="st13" points="264.5,242.4 273.7,236 228.7,164.2 219.4,170.6 		"/>
	</g>
	<g id="Layer_12_1_">
		<path class="st14" d="M221.5,218.2c11.7,20.3,30.8,31.2,42.6,24.4c11.8-6.8,11.8-28.8,0-49.1c-11.7-20.3-30.8-31.2-42.6-24.4
			C209.7,176,209.8,197.9,221.5,218.2z"/>
	</g>
	<g id="Layer_11_1_">
		<path class="st13" d="M226.2,216.1c8.9,15.4,23.4,23.7,32.3,18.5c8.9-5.2,8.9-21.9,0-37.3c-8.9-15.4-23.4-23.7-32.3-18.5
			C217.3,184,217.3,200.6,226.2,216.1z"/>
		<polyline class="st13" points="248.9,240.2 259,234.3 259.7,225.3 225.1,179.6 215.7,185 		"/>
	</g>
	<g id="Layer_10_1_">
		<path class="st14" d="M216.6,221.7c8.9,15.4,23.4,23.7,32.3,18.5c8.9-5.2,8.9-21.9,0-37.3c-8.9-15.4-23.4-23.7-32.3-18.5
			C207.7,189.6,207.7,206.3,216.6,221.7z"/>
	</g>
	<g id="Layer_9_1_">
		<path class="st11" d="M218.7,232l18.4-11.3c0,0,4.3-2.5-1.3-12.4c0,0-4.7-7.8-9.9-4.9c-5.1,2.9-17.5,10.6-17.5,10.6"/>
	</g>
	<g id="Layer_8_1_">
		
			<ellipse transform="matrix(0.8653 -0.5012 0.5012 0.8653 -82.8882 137.2225)" class="st15" cx="213.9" cy="222.9" rx="6.1" ry="10.5"/>
	</g>
	<g id="Layer_1_1_">
		<polyline class="st15" points="582.9,195.6 590,229.5 555,229.5 548,229.5 513.3,229.5 520.2,195.7 		"/>
	</g>
	<g>
		<path class="st14" d="M678,169.3V42c0,0,0-0.1,0-9.4s-9-9.6-9-9.6h-6h-24H439h-6c0,0-9,0.4-9,9.6s0,9.4,0,9.4v127.3H678z"/>
		<path class="st11" d="M424,169v21c0,0-0.2,9,8.9,9s45.1,0,45.1,0h146c0,0,36,0,45.1,0s8.9-9,8.9-9v-21"/>
		<rect x="502" y="228" class="st11" width="99" height="10"/>
		<rect x="-168" y="-19" class="st4" width="48" height="48"/>
	</g>
	<g id="Layer_3">
		<rect x="433.5" y="32.5" class="st13" width="235" height="128"/>
		<circle class="st14" cx="551.3" cy="184.7" r="5"/>
	</g>
	<g id="Layer_4">
	</g>
	<g id="Layer_5">
		<rect x="443" y="15" class="st14" width="117" height="146"/>
		<rect x="443.5" y="4.5" class="st13" width="117" height="10"/>
	</g>
	<g id="Layer_6">
		<rect x="454" y="17" class="st10" width="9.1" height="2.9"/>
		<rect x="454" y="22" class="st4" width="14" height="3"/>
		<rect x="463" y="37" class="st4" width="10" height="3"/>
		<rect x="483" y="80" class="st4" width="20" height="3"/>
		<rect x="454" y="100" class="st4" width="9" height="3"/>
		<rect x="512" y="129" class="st4" width="39" height="3"/>
		<rect x="512" y="41" class="st10" width="19.6" height="2.9"/>
		<rect x="454" y="70" class="st10" width="14.2" height="2.9"/>
		<rect x="468" y="85" class="st10" width="5.3" height="2.9"/>
		<rect x="458" y="105" class="st10" width="20.2" height="2.9"/>
		<rect x="454" y="17" class="st10" width="9.1" height="2.9"/>
		<rect x="468" y="129" class="st10" width="24.8" height="2.9"/>
		<rect x="454" y="144" class="st10" width="29" height="2.9"/>
		<rect x="478" y="37" class="st2" width="19.8" height="2.9"/>
		<rect x="493" y="32" class="st2" width="29.3" height="2.9"/>
		<rect x="507" y="47" class="st2" width="44.5" height="2.9"/>
		<rect x="458" y="61" class="st2" width="19.8" height="2.9"/>
		<rect x="463" y="80" class="st2" width="14.8" height="2.9"/>
		<rect x="473" y="90" class="st2" width="34.1" height="2.9"/>
		<rect x="483" y="105" class="st2" width="58.2" height="2.9"/>
		<rect x="497.1" y="129" class="st2" width="10.5" height="2.9"/>
		<rect x="483" y="149" class="st2" width="19.8" height="2.9"/>
		<rect x="458.3" y="32" class="st16" width="29.5" height="2.9"/>
		<rect x="467.3" y="41" class="st16" width="25.6" height="2.9"/>
		<rect x="497.3" y="41" class="st16" width="10.3" height="2.9"/>
		<rect x="473.2" y="47" class="st16" width="29.5" height="2.9"/>
		<rect x="454.2" y="56" class="st16" width="19" height="2.9"/>
		<rect x="473.2" y="70" class="st16" width="34.3" height="2.9"/>
		<rect x="458.2" y="75" class="st16" width="33.6" height="2.9"/>
		<rect x="507.2" y="80" class="st16" width="15" height="2.9"/>
		<rect x="478.2" y="85" class="st16" width="19.4" height="2.9"/>
		<rect x="502.2" y="85" class="st16" width="29.5" height="2.9"/>
		<rect x="463.2" y="110" class="st16" width="29.6" height="2.9"/>
		<rect x="498.2" y="110" class="st16" width="24" height="2.9"/>
		<rect x="468.2" y="115" class="st16" width="39.3" height="2.9"/>
		<rect x="463.2" y="124" class="st16" width="49.1" height="2.9"/>
		<rect x="473.2" y="134" class="st16" width="24.6" height="2.9"/>
		<rect x="502.2" y="134" class="st16" width="15.2" height="2.9"/>
		<rect x="522.2" y="134" class="st16" width="9.5" height="2.9"/>
		<rect x="458.4" y="149" class="st16" width="20.3" height="2.9"/>
	</g>
</g>
<rect x="-159.5" y="-227.8" class="st6" width="125" height="159"/>
<rect x="-11.5" y="-245.8" class="st4" width="79" height="104"/>
<rect x="-7.5" y="-118.8" class="st3" width="112" height="79"/>
</svg>
