<?xml version="1.0" encoding="utf-8"?>
<!-- Generator: Adobe Illustrator 15.0.0, SVG Export Plug-In . SVG Version: 6.00 Build 0)  -->
<!DOCTYPE svg PUBLIC "-//W3C//DTD SVG 1.1//EN" "http://www.w3.org/Graphics/SVG/1.1/DTD/svg11.dtd">
<svg version="1.1" id="Layer_1" xmlns="http://www.w3.org/2000/svg" xmlns:xlink="http://www.w3.org/1999/xlink" x="0px" y="0px"
	 width="400px" height="242.667px" viewBox="0 0 400 242.667" enable-background="new 0 0 400 242.667" xml:space="preserve">
<g id="Layer_7">
	<rect x="-10.975" y="-2.423" fill="none" stroke="#000000" stroke-miterlimit="10" width="420.449" height="251.918"/>
	<rect x="-11.5" y="-5.004" width="421.5" height="252.951"/>
</g>
<g id="Layer_19" display="none">
</g>
<g id="Layer_18" display="none">
	<path display="inline" fill="#FDFDFD" d="M-217.575,62.538l-8.341-5.125c0,0-5.333-3.168,1.667-15.5c0,0,5.919-9.75,12.335-6.167
		c1.877,1.048,4.523,2.609,7.329,4.294"/>
</g>
<g id="Layer_17" display="none">
	<path display="inline" fill="#9B9B9B" d="M-173.357,72.566c-11.127,19.223-29.175,29.578-40.305,23.124
		c-11.134-6.448-11.131-27.247,0.002-46.467c11.128-19.219,29.179-29.575,40.309-23.128
		C-162.218,32.546-162.227,53.349-173.357,72.566z"/>
</g>
<g id="Layer_16" display="none">
	<path display="inline" fill="#7F7C80" d="M-152.462,85.273c-14.648,25.308-38.408,38.939-53.061,30.443
		c-14.658-8.489-14.654-35.871,0.003-61.174c14.649-25.301,38.413-38.936,53.065-30.448
		C-137.796,32.588-137.808,59.974-152.462,85.273z"/>
	<polyline display="inline" fill="#7F7C80" points="-196.125,122.371 -207.5,114.412 -151.375,24.871 -139.875,32.871 	"/>
</g>
<g id="Layer_15" display="none">
	<path display="inline" fill="#4E4A51" d="M-142.462,92.273c-14.648,25.308-38.408,38.939-53.061,30.443
		c-14.658-8.489-14.654-35.872,0.003-61.174c14.649-25.301,38.413-38.936,53.065-30.448
		C-127.796,39.588-127.808,66.974-142.462,92.273z"/>
</g>
<g id="Layer_14" display="none">
	<path display="inline" fill="#FDFDFD" d="M-93.25,104.246l-45.831-26.333c0,0-15.417-9.584-21.833-13.167
		s-12.335,6.167-12.335,6.167c-7,12.332-1.667,15.5-1.667,15.5l22.917,14.084L-108,125.996"/>
</g>
<g id="Layer_13" display="none">
	<path display="inline" fill="#7F7C80" d="M-51.462,148.273c-14.648,25.309-38.408,38.939-53.061,30.443
		c-14.658-8.489-14.654-35.871,0.003-61.174c14.649-25.301,38.413-38.936,53.065-30.448
		C-36.796,95.588-36.808,122.974-51.462,148.273z"/>
	<polyline display="inline" fill="#7F7C80" points="-95.125,185.371 -106.5,177.412 -50.375,87.871 -38.875,95.871 	"/>
</g>
<g id="Layer_12" display="none">
	<path display="inline" fill="#4E4A51" d="M-41.462,155.273c-14.648,25.309-38.408,38.939-53.061,30.443
		c-14.658-8.489-14.654-35.871,0.003-61.174c14.649-25.301,38.413-38.937,53.065-30.449
		C-26.796,102.588-26.808,129.974-41.462,155.273z"/>
</g>
<g id="Layer_11" display="none">
	<path display="inline" fill="#7F7C80" d="M-47.357,152.566c-11.127,19.223-29.175,29.578-40.305,23.124
		c-11.134-6.448-11.131-27.247,0.002-46.467c11.128-19.219,29.179-29.575,40.309-23.128
		C-36.218,112.546-36.227,133.349-47.357,152.566z"/>
	<polyline display="inline" fill="#7F7C80" points="-75.662,182.69 -88.188,175.371 -89.062,164.058 -45.938,107.058 
		-34.25,113.871 	"/>
</g>
<g id="Layer_10" display="none">
	<path display="inline" fill="#4E4A51" d="M-35.357,159.566c-11.127,19.223-29.175,29.578-40.305,23.124
		c-11.134-6.448-11.131-27.247,0.002-46.467c11.128-19.219,29.179-29.575,40.309-23.128
		C-24.218,119.546-24.227,140.349-35.357,159.566z"/>
</g>
<g id="Layer_9" display="none">
	<path display="inline" fill="#FDFDFD" d="M-37.999,172.498l-22.917-14.084c0,0-5.333-3.168,1.667-15.5c0,0,5.919-9.75,12.335-6.168
		c6.416,3.584,21.833,13.168,21.833,13.168"/>
</g>
<g id="Layer_8" display="none">
	
		<ellipse transform="matrix(0.5012 -0.8653 0.8653 0.5012 -155.2894 52.6633)" display="inline" fill="#DEDDE0" cx="-31.964" cy="161.031" rx="13.057" ry="7.562"/>
</g>
<g id="Layer_1_1_" display="none">
	<polyline display="inline" fill="#DEDDE0" points="582.917,195.58 590,229.496 555,229.496 548,229.496 513.334,229.496 
		520.25,195.705 	"/>
</g>
<g id="Layer_2" display="none">
	<path display="inline" fill="#4E4A51" d="M678,169.33V41.996c0,0,0-0.125,0-9.375s-9-9.625-9-9.625h-6h-24H439h-6
		c0,0-9,0.375-9,9.625s0,9.375,0,9.375V169.33H678z"/>
	<path display="inline" fill="#FDFDFD" d="M424,168.996v21c0,0-0.25,9,8.875,9s45.125,0,45.125,0h146c0,0,36,0,45.125,0
		s8.875-9,8.875-9v-21"/>
	<rect x="502" y="227.996" display="inline" fill="#FDFDFD" width="99" height="10"/>
	<rect x="-168" y="-19.004" display="inline" fill="#FACF01" width="48" height="48"/>
</g>
<g id="Layer_3">
	<rect x="433.5" y="32.496" fill="#7F7C80" width="235" height="128"/>
	<circle fill="#4E4A51" cx="551.334" cy="184.667" r="5"/>
	<path fill="#4E4A51" d="M301.333,184.33V56.996c0,0,0-0.125,0-9.375s-8.031-9.625-8.031-9.625h-5.354H266.53H88.053h-5.354
		c0,0-8.032,0.375-8.032,9.625s0,9.375,0,9.375V184.33H301.333z"/>
	<rect x="84" y="47.996" fill="#FFFFFF" width="207" height="127"/>
	<rect x="62" y="184.996" fill="#4E4A51" width="253" height="3"/>
	<path fill="#DEDDE0" d="M333,187.996v5c0,0,1.479,8.5-10.521,8.834c-12,0.332-130.739,0.166-130.739,0.166h-4.405
		c0,0-118.667,0.166-130.667-0.166c-12-0.334-10.667-8.834-10.667-8.834v-5"/>
	<path fill="#C4C4C4" d="M331.105,198.859c-1.492,1.557-4.101,2.846-8.627,2.971c-12,0.332-130.741,0.166-130.741,0.166h-4.405
		c0,0-118.667,0.166-130.667-0.166c-12-0.334-10.667-8.834-10.667-8.834v-5h7.625c0,0-1.375,10.125,7.75,10.125
		s269.5,0.875,269.5,0.875"/>
	<path fill="#C4C4C4" d="M209.088,188.017l0.329,0.945c0,0-0.065,4.033-3.731,4.033c-3.664,0-7.199,0-7.199,0H181.21
		c0,0-2.749,0-6.414,0c-3.666,0-3.73-4.033-3.73-4.033L171,188.017"/>
</g>
<g id="Layer_4" display="none">
	<path display="inline" fill="#C4C4C4" d="M208,187.996v0.646c0,0-0.875,3.354-4.125,3.354s-4.875,0-4.875,0h-20
		c0,0-1.625,0-4.875,0S170,188.641,170,188.641v-0.646"/>
</g>
<g id="Layer_5" display="none">
	<rect x="443" y="14.996" display="inline" fill="#4E4A51" width="117" height="146"/>
	<rect x="443.5" y="4.496" display="inline" fill="#7F7C80" width="117" height="10"/>
</g>
<g id="Layer_6">
	<rect x="454" y="16.996" fill="#6AD3FF" width="9.125" height="2.865"/>
	<rect x="454" y="21.996" fill="#FACF01" width="14" height="3"/>
	<rect x="463" y="36.996" fill="#FACF01" width="10" height="3"/>
	<rect x="483" y="79.996" fill="#FACF01" width="20" height="3"/>
	<rect x="454" y="99.996" fill="#FACF01" width="9" height="3"/>
	<rect x="512" y="128.996" fill="#FACF01" width="39" height="3"/>
	<rect x="512" y="40.996" fill="#6AD3FF" width="19.562" height="2.865"/>
	<rect x="454" y="69.996" fill="#6AD3FF" width="14.209" height="2.865"/>
	<rect x="468" y="84.996" fill="#6AD3FF" width="5.292" height="2.865"/>
	<rect x="458" y="104.996" fill="#6AD3FF" width="20.209" height="2.865"/>
	<rect x="454" y="16.996" fill="#6AD3FF" width="9.125" height="2.865"/>
	<rect x="468" y="128.996" fill="#6AD3FF" width="24.792" height="2.865"/>
	<rect x="454" y="143.996" fill="#6AD3FF" width="28.958" height="2.865"/>
	<rect x="478" y="36.996" fill="#FFFFFF" width="19.792" height="2.865"/>
	<rect x="493" y="31.996" fill="#FFFFFF" width="29.292" height="2.865"/>
	<rect x="507" y="46.996" fill="#FFFFFF" width="44.542" height="2.865"/>
	<rect x="458" y="60.996" fill="#FFFFFF" width="19.792" height="2.865"/>
	<rect x="463" y="79.996" fill="#FFFFFF" width="14.792" height="2.865"/>
	<rect x="473" y="89.996" fill="#FFFFFF" width="34.125" height="2.865"/>
	<rect x="483" y="104.996" fill="#FFFFFF" width="58.209" height="2.865"/>
	<rect x="497.084" y="128.996" fill="#FFFFFF" width="10.541" height="2.865"/>
	<rect x="483" y="148.996" fill="#FFFFFF" width="19.792" height="2.865"/>
	<rect x="458.334" y="31.996" fill="#7B777F" width="29.458" height="2.865"/>
	<rect x="467.334" y="40.996" fill="#7B777F" width="25.625" height="2.865"/>
	<rect x="497.334" y="40.996" fill="#7B777F" width="10.291" height="2.865"/>
	<rect x="473.166" y="46.996" fill="#7B777F" width="29.459" height="2.865"/>
	<rect x="454.166" y="55.996" fill="#7B777F" width="18.959" height="2.865"/>
	<rect x="473.166" y="69.996" fill="#7B777F" width="34.293" height="2.865"/>
	<rect x="458.166" y="74.996" fill="#7B777F" width="33.626" height="2.865"/>
	<rect x="507.166" y="79.996" fill="#7B777F" width="14.959" height="2.865"/>
	<rect x="478.166" y="84.996" fill="#7B777F" width="19.376" height="2.865"/>
	<rect x="502.166" y="84.996" fill="#7B777F" width="29.459" height="2.865"/>
	<rect x="463.166" y="109.996" fill="#7B777F" width="29.626" height="2.865"/>
	<rect x="498.166" y="109.996" fill="#7B777F" width="24.043" height="2.865"/>
	<rect x="468.166" y="114.996" fill="#7B777F" width="39.293" height="2.865"/>
	<rect x="463.166" y="123.996" fill="#7B777F" width="49.125" height="2.865"/>
	<rect x="473.166" y="133.996" fill="#7B777F" width="24.625" height="2.865"/>
	<rect x="502.166" y="133.996" fill="#7B777F" width="15.209" height="2.865"/>
	<rect x="522.166" y="133.996" fill="#7B777F" width="9.542" height="2.865"/>
	<rect x="458.416" y="148.996" fill="#7B777F" width="20.292" height="2.865"/>
</g>
<g id="Layer_20">
</g>
<g id="Layer_21">
	<circle cx="189.75" cy="42.913" r="1.583"/>
	<rect x="89" y="53.155" fill="#C3C3C3" width="197.5" height="121.879"/>
	<rect x="91.669" y="62.941" fill="#979797" width="14.234" height="7.117"/>
	<rect x="107.683" y="62.941" fill="#979797" width="7.339" height="7.117"/>
	<rect x="117.469" y="62.941" fill="#979797" width="7.414" height="7.117"/>
	<rect x="277.604" y="62.941" fill="#979797" width="7.34" height="7.117"/>
	<rect x="260.7" y="62.941" fill="#979797" width="14.604" height="7.117"/>
	<rect x="127.329" y="62.941" fill="#FFFFFF" width="133.743" height="7.117"/>
	<circle fill="#FFFFFF" cx="93.393" cy="57.881" r="2.502"/>
	<circle fill="#FFFFFF" cx="99.62" cy="57.881" r="2.502"/>
	<circle fill="#FFFFFF" cx="105.847" cy="57.881" r="2.502"/>
	<rect x="90.779" y="71.838" fill="#6AD3FF" width="193.941" height="11.566"/>
	<rect x="90.779" y="83.404" fill="#FFFFFF" width="193.941" height="8.229"/>
	<rect x="90.779" y="91.41" fill="#D9D9D9" width="193.941" height="57.159"/>
	<rect x="90.779" y="148.347" fill="#FFFFFF" width="193.941" height="22.908"/>
	<rect x="107.237" y="103.42" fill="#F27071" width="161.024" height="32.917"/>
	<line fill="none" stroke="#FFFFFF" stroke-width="3" stroke-miterlimit="10" x1="108" y1="77.496" x2="137" y2="77.496"/>
	<line fill="none" stroke="#000000" stroke-miterlimit="10" x1="108" y1="81.496" x2="147" y2="81.496"/>
	<line fill="none" stroke="#000000" stroke-miterlimit="10" x1="182" y1="81.496" x2="191" y2="81.496"/>
	<line fill="none" stroke="#000000" stroke-miterlimit="10" x1="201" y1="81.496" x2="210" y2="81.496"/>
	<line fill="none" stroke="#000000" stroke-miterlimit="10" x1="221" y1="81.496" x2="230" y2="81.496"/>
	<line fill="none" stroke="#000000" stroke-miterlimit="10" x1="239" y1="81.496" x2="248" y2="81.496"/>
	<line fill="none" stroke="#000000" stroke-miterlimit="10" x1="259" y1="81.496" x2="268" y2="81.496"/>
	<line fill="none" stroke="#000000" stroke-miterlimit="10" x1="108" y1="154.496" x2="228" y2="154.496"/>
	<line fill="none" stroke="#000000" stroke-miterlimit="10" x1="108" y1="157.496" x2="187" y2="157.496"/>
	<rect x="107.683" y="161.692" fill="#6AD3FF" width="19.572" height="4.447"/>
</g>
</svg>
