<?xml version="1.0" encoding="utf-8"?>
<!-- Generator: Adobe Illustrator 15.0.0, SVG Export Plug-In . SVG Version: 6.00 Build 0)  -->
<!DOCTYPE svg PUBLIC "-//W3C//DTD SVG 1.1//EN" "http://www.w3.org/Graphics/SVG/1.1/DTD/svg11.dtd">
<svg version="1.1" xmlns="http://www.w3.org/2000/svg" xmlns:xlink="http://www.w3.org/1999/xlink" x="0px" y="0px" width="400px"
	 height="242.667px" viewBox="0 0 400 242.667" enable-background="new 0 0 400 242.667" xml:space="preserve">
<g id="Layer_3_1_">
	<g id="Layer_7">
		<rect x="-7" y="-7" width="414" height="259.166"/>
	</g>
</g>
<g id="Layer_2_1_">
	<g id="Layer_21">
		<circle cx="189.665" cy="25.336" r="1.912"/>
		<rect x="68" y="37.705" fill="#C3C3C3" width="238.499" height="158.514"/>
		<rect x="71.223" y="49.522" fill="#979797" width="17.188" height="8.595"/>
		<rect x="90.562" y="49.522" fill="#979797" width="8.862" height="8.595"/>
		<rect x="102.378" y="49.522" fill="#979797" width="8.953" height="8.595"/>
		<rect x="295.756" y="49.522" fill="#979797" width="8.863" height="8.595"/>
		<rect x="275.344" y="49.522" fill="#979797" width="17.636" height="8.595"/>
		<rect x="114.286" y="49.522" fill="#FFFFFF" width="161.507" height="8.595"/>
		<circle fill="#F27071" cx="73.305" cy="43.411" r="3.021"/>
		<circle fill="#FACF01" cx="80.825" cy="43.411" r="3.021"/>
		<circle fill="#9EE27A" cx="88.345" cy="43.411" r="3.021"/>
		<rect x="70.148" y="60.265" fill="#6AD3FF" width="234.202" height="13.967"/>
		<rect x="70.148" y="74.232" fill="#FFFFFF" width="234.202" height="9.937"/>
		<rect x="70.148" y="83.9" fill="#FFFFFF" width="234.202" height="75.025"/>
		<rect x="70.148" y="159.3" fill="#E5E5E5" width="234.202" height="31.878"/>
		<rect x="90.022" y="98.403" fill="#6AD3FF" width="194.951" height="39.751"/>
		<line fill="none" stroke="#FFFFFF" stroke-width="3" stroke-miterlimit="10" x1="90.944" y1="66.098" x2="125.964" y2="66.098"/>
		<line fill="none" stroke="#000000" stroke-miterlimit="10" x1="90.944" y1="70.928" x2="138.04" y2="70.928"/>
		<line fill="none" stroke="#000000" stroke-miterlimit="10" x1="180.306" y1="70.928" x2="191.174" y2="70.928"/>
		<line fill="none" stroke="#000000" stroke-miterlimit="10" x1="203.25" y1="70.928" x2="214.118" y2="70.928"/>
		<line fill="none" stroke="#000000" stroke-miterlimit="10" x1="227.402" y1="70.928" x2="238.271" y2="70.928"/>
		<line fill="none" stroke="#000000" stroke-miterlimit="10" x1="249.139" y1="70.928" x2="260.007" y2="70.928"/>
		<line fill="none" stroke="#000000" stroke-miterlimit="10" x1="273.29" y1="70.928" x2="284.158" y2="70.928"/>
		<line fill="none" stroke="#000000" stroke-miterlimit="10" x1="90.944" y1="167.083" x2="235.855" y2="167.083"/>
		<line fill="none" stroke="#000000" stroke-miterlimit="10" x1="90.944" y1="171.706" x2="186.344" y2="171.706"/>
		<rect x="90.562" y="175.773" fill="#6AD3FF" width="23.635" height="5.37"/>
	</g>
</g>
<g id="Layer_1">
	<g id="Layer_18_1_">
		<path fill="#FDFDFD" d="M362.751,143.852l6.689-4.11c0,0,4.277-2.541-1.337-12.431c0,0-4.747-7.82-9.893-4.946
			c-1.506,0.84-3.627,2.092-5.878,3.443"/>
	</g>
	<g id="Layer_17_1_">
		<path fill="#9B9B9B" d="M327.288,151.894c8.924,15.417,23.398,23.722,32.324,18.546c8.93-5.172,8.928-21.853-0.001-37.267
			c-8.925-15.414-23.402-23.72-32.328-18.549C318.354,119.798,318.361,136.483,327.288,151.894z"/>
	</g>
	<g id="Layer_16_1_">
		<path fill="#7F7C80" d="M310.53,162.085c11.747,20.298,30.804,31.229,42.555,24.415c11.756-6.809,11.753-28.769-0.002-49.062
			c-11.749-20.292-30.808-31.227-42.559-24.42C298.768,119.832,298.777,141.795,310.53,162.085z"/>
		<polyline fill="#7F7C80" points="345.548,191.838 354.671,185.455 309.658,113.643 300.436,120.059 		"/>
	</g>
	<g id="Layer_15_1_">
		<path fill="#4E4A51" d="M302.51,167.7c11.748,20.297,30.804,31.229,42.556,24.415c11.756-6.808,11.752-28.769-0.003-49.062
			c-11.748-20.292-30.807-31.227-42.559-24.42C290.748,125.446,290.758,147.41,302.51,167.7z"/>
	</g>
	<g id="Layer_14_1_">
		<path fill="#FDFDFD" d="M263.042,177.301l36.757-21.119c0,0,12.364-7.686,17.51-10.56s9.893,4.946,9.893,4.946
			c5.614,9.891,1.337,12.431,1.337,12.431l-18.38,11.296l-35.287,20.449"/>
	</g>
	<g id="Layer_13_1_">
		<path fill="#7F7C80" d="M229.527,212.612c11.747,20.297,30.804,31.229,42.556,24.415c11.756-6.808,11.752-28.769-0.003-49.062
			c-11.748-20.291-30.807-31.227-42.558-24.42C217.766,170.358,217.775,192.322,229.527,212.612z"/>
		<polyline fill="#7F7C80" points="264.546,242.364 273.668,235.981 228.656,164.168 219.433,170.584 		"/>
	</g>
	<g id="Layer_12_1_">
		<path fill="#4E4A51" d="M221.508,218.225c11.747,20.298,30.804,31.23,42.556,24.416c11.755-6.809,11.751-28.769-0.004-49.062
			c-11.748-20.292-30.807-31.228-42.558-24.42C209.745,175.972,209.756,197.936,221.508,218.225z"/>
	</g>
	<g id="Layer_11_1_">
		<path fill="#7F7C80" d="M226.235,216.054c8.924,15.417,23.398,23.722,32.325,18.546c8.929-5.172,8.927-21.853-0.002-37.267
			c-8.925-15.414-23.402-23.72-32.327-18.549C217.302,183.958,217.309,200.643,226.235,216.054z"/>
		<polyline fill="#7F7C80" points="248.937,240.214 258.981,234.344 259.684,225.271 225.097,179.557 215.724,185.02 		"/>
	</g>
	<g id="Layer_10_1_">
		<path fill="#4E4A51" d="M216.611,221.668c8.924,15.417,23.398,23.722,32.325,18.546c8.929-5.172,8.927-21.853-0.002-37.267
			c-8.925-15.414-23.402-23.72-32.327-18.549C207.678,189.573,207.685,206.256,216.611,221.668z"/>
	</g>
	<g id="Layer_9_1_">
		<path fill="#FDFDFD" d="M218.73,232.04l18.379-11.295c0,0,4.277-2.541-1.337-12.432c0,0-4.747-7.819-9.893-4.946
			c-5.146,2.874-17.51,10.561-17.51,10.561"/>
	</g>
	<g id="Layer_8_1_">
		
			<ellipse transform="matrix(-0.5012 -0.8653 0.8653 -0.5012 128.2819 519.624)" fill="#DEDDE0" cx="213.898" cy="222.841" rx="10.471" ry="6.065"/>
	</g>
	<g id="Layer_1_1_">
		<polyline fill="#DEDDE0" points="582.917,195.58 590,229.496 555,229.496 548,229.496 513.334,229.496 520.25,195.705 		"/>
	</g>
	<g id="Layer_2">
		<path fill="#4E4A51" d="M678,169.33V41.996c0,0,0-0.125,0-9.375s-9-9.625-9-9.625h-6h-24H439h-6c0,0-9,0.375-9,9.625
			s0,9.375,0,9.375V169.33H678z"/>
		<path fill="#FDFDFD" d="M424,168.996v21c0,0-0.25,9,8.875,9s45.125,0,45.125,0h146c0,0,36,0,45.125,0s8.875-9,8.875-9v-21"/>
		<rect x="502" y="227.996" fill="#FDFDFD" width="99" height="10"/>
		<rect x="-168" y="-19.004" fill="#FACF01" width="48" height="48"/>
	</g>
	<g id="Layer_3">
		<rect x="433.5" y="32.496" fill="#7F7C80" width="235" height="128"/>
		<circle fill="#4E4A51" cx="551.334" cy="184.667" r="5"/>
	</g>
	<g id="Layer_4">
	</g>
	<g id="Layer_5">
		<rect x="443" y="14.996" fill="#4E4A51" width="117" height="146"/>
		<rect x="443.5" y="4.496" fill="#7F7C80" width="117" height="10"/>
	</g>
	<g id="Layer_6">
		<rect x="454" y="16.996" fill="#6AD3FF" width="9.125" height="2.865"/>
		<rect x="454" y="21.996" fill="#FACF01" width="14" height="3"/>
		<rect x="463" y="36.996" fill="#FACF01" width="10" height="3"/>
		<rect x="483" y="79.996" fill="#FACF01" width="20" height="3"/>
		<rect x="454" y="99.996" fill="#FACF01" width="9" height="3"/>
		<rect x="512" y="128.996" fill="#FACF01" width="39" height="3"/>
		<rect x="512" y="40.996" fill="#6AD3FF" width="19.562" height="2.865"/>
		<rect x="454" y="69.996" fill="#6AD3FF" width="14.209" height="2.865"/>
		<rect x="468" y="84.996" fill="#6AD3FF" width="5.292" height="2.865"/>
		<rect x="458" y="104.996" fill="#6AD3FF" width="20.209" height="2.865"/>
		<rect x="454" y="16.996" fill="#6AD3FF" width="9.125" height="2.865"/>
		<rect x="468" y="128.996" fill="#6AD3FF" width="24.792" height="2.865"/>
		<rect x="454" y="143.996" fill="#6AD3FF" width="28.958" height="2.865"/>
		<rect x="478" y="36.996" fill="#FFFFFF" width="19.792" height="2.865"/>
		<rect x="493" y="31.996" fill="#FFFFFF" width="29.292" height="2.865"/>
		<rect x="507" y="46.996" fill="#FFFFFF" width="44.542" height="2.865"/>
		<rect x="458" y="60.996" fill="#FFFFFF" width="19.792" height="2.865"/>
		<rect x="463" y="79.996" fill="#FFFFFF" width="14.792" height="2.865"/>
		<rect x="473" y="89.996" fill="#FFFFFF" width="34.125" height="2.865"/>
		<rect x="483" y="104.996" fill="#FFFFFF" width="58.209" height="2.865"/>
		<rect x="497.084" y="128.996" fill="#FFFFFF" width="10.541" height="2.865"/>
		<rect x="483" y="148.996" fill="#FFFFFF" width="19.792" height="2.865"/>
		<rect x="458.334" y="31.996" fill="#7B777F" width="29.458" height="2.865"/>
		<rect x="467.334" y="40.996" fill="#7B777F" width="25.625" height="2.865"/>
		<rect x="497.334" y="40.996" fill="#7B777F" width="10.291" height="2.865"/>
		<rect x="473.166" y="46.996" fill="#7B777F" width="29.459" height="2.865"/>
		<rect x="454.166" y="55.996" fill="#7B777F" width="18.959" height="2.865"/>
		<rect x="473.166" y="69.996" fill="#7B777F" width="34.293" height="2.865"/>
		<rect x="458.166" y="74.996" fill="#7B777F" width="33.626" height="2.865"/>
		<rect x="507.166" y="79.996" fill="#7B777F" width="14.959" height="2.865"/>
		<rect x="478.166" y="84.996" fill="#7B777F" width="19.376" height="2.865"/>
		<rect x="502.166" y="84.996" fill="#7B777F" width="29.459" height="2.865"/>
		<rect x="463.166" y="109.996" fill="#7B777F" width="29.626" height="2.865"/>
		<rect x="498.166" y="109.996" fill="#7B777F" width="24.043" height="2.865"/>
		<rect x="468.166" y="114.996" fill="#7B777F" width="39.293" height="2.865"/>
		<rect x="463.166" y="123.996" fill="#7B777F" width="49.125" height="2.865"/>
		<rect x="473.166" y="133.996" fill="#7B777F" width="24.625" height="2.865"/>
		<rect x="502.166" y="133.996" fill="#7B777F" width="15.209" height="2.865"/>
		<rect x="522.166" y="133.996" fill="#7B777F" width="9.542" height="2.865"/>
		<rect x="458.416" y="148.996" fill="#7B777F" width="20.292" height="2.865"/>
	</g>
</g>
</svg>
