<?xml version="1.0" encoding="utf-8"?>
<!-- Generator: Adobe Illustrator 15.0.0, SVG Export Plug-In . SVG Version: 6.00 Build 0)  -->
<!DOCTYPE svg PUBLIC "-//W3C//DTD SVG 1.1//EN" "http://www.w3.org/Graphics/SVG/1.1/DTD/svg11.dtd">
<svg version="1.1" xmlns="http://www.w3.org/2000/svg" xmlns:xlink="http://www.w3.org/1999/xlink" x="0px" y="0px" width="400px"
	 height="242.667px" viewBox="0 0 400 242.667" enable-background="new 0 0 400 242.667" xml:space="preserve">
<g id="Layer_7">
	<rect x="-1" y="-0.004" width="400" height="244"/>
</g>
<g id="Layer_18">
	<path fill="#FDFDFD" d="M113.425,75.538l-8.341-5.125c0,0-5.333-3.168,1.667-15.5c0,0,5.919-9.75,12.335-6.167
		c1.877,1.048,4.523,2.609,7.329,4.294"/>
</g>
<g id="Layer_17">
	<path fill="#9B9B9B" d="M157.643,85.566c-11.127,19.223-29.175,29.578-40.305,23.124c-11.134-6.448-11.131-27.247,0.002-46.467
		c11.128-19.219,29.179-29.575,40.309-23.128C168.782,45.546,168.773,66.349,157.643,85.566z"/>
</g>
<g id="Layer_16">
	<path fill="#7F7C80" d="M178.538,98.273c-14.648,25.308-38.408,38.94-53.061,30.443c-14.658-8.489-14.654-35.871,0.003-61.174
		c14.649-25.301,38.413-38.936,53.065-30.448C193.204,45.588,193.192,72.974,178.538,98.273z"/>
	<polyline fill="#7F7C80" points="134.875,135.371 123.5,127.412 179.625,37.871 191.125,45.871 	"/>
</g>
<g id="Layer_15">
	<path fill="#4E4A51" d="M188.538,105.273c-14.648,25.308-38.408,38.94-53.061,30.443c-14.658-8.489-14.654-35.871,0.003-61.174
		c14.649-25.301,38.413-38.936,53.065-30.448C203.204,52.588,203.192,79.974,188.538,105.273z"/>
</g>
<g id="Layer_14">
	<path fill="#FDFDFD" d="M237.75,117.246l-45.831-26.333c0,0-15.417-9.584-21.833-13.167s-12.335,6.167-12.335,6.167
		c-7,12.332-1.667,15.5-1.667,15.5l22.917,14.084L223,138.996"/>
</g>
<g id="Layer_13">
	<path fill="#7F7C80" d="M279.538,161.273c-14.648,25.308-38.408,38.94-53.061,30.443c-14.658-8.489-14.654-35.871,0.003-61.174
		c14.649-25.301,38.413-38.936,53.065-30.448C294.204,108.588,294.192,135.974,279.538,161.273z"/>
	<polyline fill="#7F7C80" points="235.875,198.371 224.5,190.412 280.625,100.871 292.125,108.871 	"/>
</g>
<g id="Layer_12">
	<path fill="#4E4A51" d="M289.538,168.273c-14.648,25.308-38.408,38.94-53.061,30.443c-14.658-8.489-14.654-35.871,0.003-61.174
		c14.649-25.301,38.413-38.936,53.065-30.448C304.204,115.588,304.192,142.974,289.538,168.273z"/>
</g>
<g id="Layer_11">
	<path fill="#7F7C80" d="M283.643,165.566c-11.127,19.223-29.175,29.578-40.305,23.124c-11.134-6.448-11.131-27.247,0.002-46.467
		c11.128-19.219,29.179-29.575,40.309-23.128C294.782,125.546,294.773,146.349,283.643,165.566z"/>
	<polyline fill="#7F7C80" points="255.338,195.69 242.812,188.371 241.938,177.058 285.062,120.058 296.75,126.871 	"/>
</g>
<g id="Layer_10">
	<path fill="#4E4A51" d="M295.643,172.566c-11.127,19.223-29.175,29.578-40.305,23.124c-11.134-6.448-11.131-27.247,0.002-46.467
		c11.128-19.219,29.179-29.575,40.309-23.128C306.782,132.546,306.773,153.349,295.643,172.566z"/>
</g>
<g id="Layer_9">
	<path fill="#FDFDFD" d="M293.001,185.497l-22.917-14.084c0,0-5.333-3.168,1.667-15.5c0,0,5.919-9.75,12.335-6.167
		s21.833,13.167,21.833,13.167"/>
</g>
<g id="Layer_8">
	
		<ellipse transform="matrix(0.8653 0.5012 -0.5012 0.8653 127.499 -126.4401)" fill="#DEDDE0" cx="299.034" cy="174.035" rx="7.562" ry="13.057"/>
</g>
<g id="Layer_1">
	<polyline fill="#DEDDE0" points="582.917,195.579 590,229.496 555,229.496 548,229.496 513.334,229.496 520.25,195.704 	"/>
</g>
<g id="Layer_2">
	<path fill="#4E4A51" d="M678,169.33V41.996c0,0,0-0.125,0-9.375s-9-9.625-9-9.625h-6h-24H439h-6c0,0-9,0.375-9,9.625
		s0,9.375,0,9.375V169.33H678z"/>
	<path fill="#FDFDFD" d="M424,168.996v21c0,0-0.25,9,8.875,9s45.125,0,45.125,0h146c0,0,36,0,45.125,0s8.875-9,8.875-9v-21"/>
	<rect x="502" y="227.996" fill="#FDFDFD" width="99" height="10"/>
	<rect x="-168" y="-19.004" fill="#FACF01" width="48" height="48"/>
</g>
<g id="Layer_3">
	<rect x="433.5" y="32.496" fill="#7F7C80" width="235" height="128"/>
	<circle fill="#4E4A51" cx="551.334" cy="184.668" r="5"/>
</g>
<g id="Layer_4">
</g>
<g id="Layer_5">
	<rect x="443" y="14.996" fill="#4E4A51" width="117" height="146"/>
	<rect x="443.5" y="4.496" fill="#7F7C80" width="117" height="10"/>
</g>
<g id="Layer_6">
	<rect x="454" y="16.996" fill="#6AD3FF" width="9.125" height="2.865"/>
	<rect x="454" y="21.996" fill="#FACF01" width="14" height="3"/>
	<rect x="463" y="36.996" fill="#FACF01" width="10" height="3"/>
	<rect x="483" y="79.996" fill="#FACF01" width="20" height="3"/>
	<rect x="454" y="99.996" fill="#FACF01" width="9" height="3"/>
	<rect x="512" y="128.996" fill="#FACF01" width="39" height="3"/>
	<rect x="512" y="40.996" fill="#6AD3FF" width="19.562" height="2.865"/>
	<rect x="454" y="69.996" fill="#6AD3FF" width="14.209" height="2.865"/>
	<rect x="468" y="84.996" fill="#6AD3FF" width="5.292" height="2.865"/>
	<rect x="458" y="104.996" fill="#6AD3FF" width="20.209" height="2.865"/>
	<rect x="454" y="16.996" fill="#6AD3FF" width="9.125" height="2.865"/>
	<rect x="468" y="128.996" fill="#6AD3FF" width="24.792" height="2.865"/>
	<rect x="454" y="143.996" fill="#6AD3FF" width="28.958" height="2.865"/>
	<rect x="478" y="36.996" fill="#FFFFFF" width="19.792" height="2.865"/>
	<rect x="493" y="31.996" fill="#FFFFFF" width="29.292" height="2.865"/>
	<rect x="507" y="46.996" fill="#FFFFFF" width="44.542" height="2.865"/>
	<rect x="458" y="60.996" fill="#FFFFFF" width="19.792" height="2.865"/>
	<rect x="463" y="79.996" fill="#FFFFFF" width="14.792" height="2.865"/>
	<rect x="473" y="89.996" fill="#FFFFFF" width="34.125" height="2.865"/>
	<rect x="483" y="104.996" fill="#FFFFFF" width="58.209" height="2.865"/>
	<rect x="497.084" y="128.996" fill="#FFFFFF" width="10.541" height="2.865"/>
	<rect x="483" y="148.996" fill="#FFFFFF" width="19.792" height="2.865"/>
	<rect x="458.334" y="31.996" fill="#7B777F" width="29.458" height="2.865"/>
	<rect x="467.334" y="40.996" fill="#7B777F" width="25.625" height="2.865"/>
	<rect x="497.334" y="40.996" fill="#7B777F" width="10.291" height="2.865"/>
	<rect x="473.166" y="46.996" fill="#7B777F" width="29.459" height="2.865"/>
	<rect x="454.166" y="55.996" fill="#7B777F" width="18.959" height="2.865"/>
	<rect x="473.166" y="69.996" fill="#7B777F" width="34.293" height="2.865"/>
	<rect x="458.166" y="74.996" fill="#7B777F" width="33.626" height="2.865"/>
	<rect x="507.166" y="79.996" fill="#7B777F" width="14.959" height="2.865"/>
	<rect x="478.166" y="84.996" fill="#7B777F" width="19.376" height="2.865"/>
	<rect x="502.166" y="84.996" fill="#7B777F" width="29.459" height="2.865"/>
	<rect x="463.166" y="109.996" fill="#7B777F" width="29.626" height="2.865"/>
	<rect x="498.166" y="109.996" fill="#7B777F" width="24.043" height="2.865"/>
	<rect x="468.166" y="114.996" fill="#7B777F" width="39.293" height="2.865"/>
	<rect x="463.166" y="123.996" fill="#7B777F" width="49.125" height="2.865"/>
	<rect x="473.166" y="133.996" fill="#7B777F" width="24.625" height="2.865"/>
	<rect x="502.166" y="133.996" fill="#7B777F" width="15.209" height="2.865"/>
	<rect x="522.166" y="133.996" fill="#7B777F" width="9.542" height="2.865"/>
	<rect x="458.416" y="148.996" fill="#7B777F" width="20.292" height="2.865"/>
</g>
</svg>
