<?xml version="1.0" encoding="utf-8"?>
<!-- Generator: Adobe Illustrator 23.1.0, SVG Export Plug-In . SVG Version: 6.00 Build 0)  -->
<svg version="1.1" id="Layer_1" xmlns="http://www.w3.org/2000/svg" xmlns:xlink="http://www.w3.org/1999/xlink" x="0px" y="0px"
	 viewBox="0 0 400 213.7" style="enable-background:new 0 0 400 213.7;" xml:space="preserve">
<style type="text/css">
	.st0{fill:#6FD4FD;}
	.st1{fill:#FDFDFD;}
	.st2{fill:#9B9B9B;}
	.st3{fill:#7F7C80;}
	.st4{fill:#4E4A51;}
	.st5{fill:#DEDDE0;}
	.st6{fill:#FACF01;}
	.st7{fill:#6AD3FF;}
	.st8{fill:#FFFFFF;}
	.st9{fill:#7B777F;}
</style>
<g id="Layer_7">
	<rect x="-4.5" y="-29" class="st0" width="410" height="250"/>
</g>
<g id="Layer_18">
	<path class="st1" d="M106.7,86.2l-8-4.9c0,0-5.1-3,1.6-14.8c0,0,5.7-9.3,11.8-5.9c1.8,1,4.3,2.5,7,4.1"/>
</g>
<g id="Layer_17">
	<path class="st2" d="M148.9,95.8c-10.6,18.4-27.9,28.3-38.5,22.1c-10.6-6.2-10.6-26.1,0-44.4C121,55.1,138.3,45.2,149,51.3
		C159.6,57.5,159.6,77.4,148.9,95.8z"/>
</g>
<g id="Layer_16">
	<path class="st3" d="M168.9,107.9c-14,24.2-36.7,37.2-50.7,29.1c-14-8.1-14-34.3,0-58.5c14-24.2,36.7-37.2,50.7-29.1
		C183,57.5,182.9,83.7,168.9,107.9z"/>
	<polyline class="st3" points="127.2,143.4 116.3,135.8 170,50.2 181,57.8 	"/>
</g>
<g id="Layer_15">
	<path class="st4" d="M178.5,114.6c-14,24.2-36.7,37.2-50.7,29.1c-14-8.1-14-34.3,0-58.5c14-24.2,36.7-37.2,50.7-29.1
		C192.5,64.2,192.5,90.4,178.5,114.6z"/>
</g>
<g id="Layer_14">
	<path class="st1" d="M225.6,126.1l-43.8-25.2c0,0-14.7-9.2-20.9-12.6c-6.1-3.4-11.8,5.9-11.8,5.9c-6.7,11.8-1.6,14.8-1.6,14.8
		l21.9,13.5l42.1,24.4"/>
</g>
<g id="Layer_13">
	<path class="st3" d="M265.5,168.2c-14,24.2-36.7,37.2-50.7,29.1c-14-8.1-14-34.3,0-58.5c14-24.2,36.7-37.2,50.7-29.1
		C279.5,117.8,279.5,144,265.5,168.2z"/>
	<polyline class="st3" points="223.8,203.6 212.9,196 266.6,110.4 277.6,118.1 	"/>
</g>
<g id="Layer_12">
	<path class="st4" d="M275.1,174.9c-14,24.2-36.7,37.2-50.7,29.1c-14-8.1-14-34.3,0-58.5c14-24.2,36.7-37.2,50.7-29.1
		C289.1,124.5,289.1,150.7,275.1,174.9z"/>
</g>
<g id="Layer_11">
	<path class="st3" d="M269.4,172.3c-10.6,18.4-27.9,28.3-38.5,22.1c-10.6-6.2-10.6-26.1,0-44.4c10.6-18.4,27.9-28.3,38.5-22.1
		C280.1,134,280.1,153.9,269.4,172.3z"/>
	<polyline class="st3" points="242.4,201.1 230.4,194.1 229.6,183.3 270.8,128.7 282,135.3 	"/>
</g>
<g id="Layer_10">
	<path class="st4" d="M280.9,179c-10.6,18.4-27.9,28.3-38.5,22.1c-10.6-6.2-10.6-26.1,0-44.4c10.6-18.4,27.9-28.3,38.5-22.1
		C291.6,140.7,291.6,160.6,280.9,179z"/>
</g>
<g id="Layer_9">
	<path class="st1" d="M278.4,191.3l-21.9-13.5c0,0-5.1-3,1.6-14.8c0,0,5.7-9.3,11.8-5.9c6.1,3.4,20.9,12.6,20.9,12.6"/>
</g>
<g id="Layer_8">
	
		<ellipse transform="matrix(0.5012 -0.8653 0.8653 0.5012 -14.3501 335.8495)" class="st5" cx="284.2" cy="180.4" rx="12.5" ry="7.2"/>
</g>
<g id="Layer_1_1_">
	<polyline class="st5" points="582.9,171.6 590,205.5 555,205.5 548,205.5 513.3,205.5 520.2,171.7 	"/>
</g>
<g>
	<path class="st4" d="M678,145.3V18c0,0,0-0.1,0-9.4S669-1,669-1h-6h-24H439h-6c0,0-9,0.4-9,9.6s0,9.4,0,9.4v127.3H678z"/>
	<path class="st1" d="M424,145v21c0,0-0.2,9,8.9,9s45.1,0,45.1,0h146c0,0,36,0,45.1,0s8.9-9,8.9-9v-21"/>
	<rect x="502" y="204" class="st1" width="99" height="10"/>
	<rect x="-168" y="-43" class="st6" width="48" height="48"/>
</g>
<g id="Layer_3">
	<rect x="433.5" y="8.5" class="st3" width="235" height="128"/>
	<circle class="st4" cx="551.3" cy="160.7" r="5"/>
</g>
<g id="Layer_4">
</g>
<g id="Layer_5">
	<rect x="443" y="-9" class="st4" width="117" height="146"/>
	<rect x="443.5" y="-19.5" class="st3" width="117" height="10"/>
</g>
<g id="Layer_6">
	<rect x="454" y="-7" class="st7" width="9.1" height="2.9"/>
	<rect x="454" y="-2" class="st6" width="14" height="3"/>
	<rect x="463" y="13" class="st6" width="10" height="3"/>
	<rect x="483" y="56" class="st6" width="20" height="3"/>
	<rect x="454" y="76" class="st6" width="9" height="3"/>
	<rect x="512" y="105" class="st6" width="39" height="3"/>
	<rect x="512" y="17" class="st7" width="19.6" height="2.9"/>
	<rect x="454" y="46" class="st7" width="14.2" height="2.9"/>
	<rect x="468" y="61" class="st7" width="5.3" height="2.9"/>
	<rect x="458" y="81" class="st7" width="20.2" height="2.9"/>
	<rect x="454" y="-7" class="st7" width="9.1" height="2.9"/>
	<rect x="468" y="105" class="st7" width="24.8" height="2.9"/>
	<rect x="454" y="120" class="st7" width="29" height="2.9"/>
	<rect x="478" y="13" class="st8" width="19.8" height="2.9"/>
	<rect x="493" y="8" class="st8" width="29.3" height="2.9"/>
	<rect x="507" y="23" class="st8" width="44.5" height="2.9"/>
	<rect x="458" y="37" class="st8" width="19.8" height="2.9"/>
	<rect x="463" y="56" class="st8" width="14.8" height="2.9"/>
	<rect x="473" y="66" class="st8" width="34.1" height="2.9"/>
	<rect x="483" y="81" class="st8" width="58.2" height="2.9"/>
	<rect x="497.1" y="105" class="st8" width="10.5" height="2.9"/>
	<rect x="483" y="125" class="st8" width="19.8" height="2.9"/>
	<rect x="458.3" y="8" class="st9" width="29.5" height="2.9"/>
	<rect x="467.3" y="17" class="st9" width="25.6" height="2.9"/>
	<rect x="497.3" y="17" class="st9" width="10.3" height="2.9"/>
	<rect x="473.2" y="23" class="st9" width="29.5" height="2.9"/>
	<rect x="454.2" y="32" class="st9" width="19" height="2.9"/>
	<rect x="473.2" y="46" class="st9" width="34.3" height="2.9"/>
	<rect x="458.2" y="51" class="st9" width="33.6" height="2.9"/>
	<rect x="507.2" y="56" class="st9" width="15" height="2.9"/>
	<rect x="478.2" y="61" class="st9" width="19.4" height="2.9"/>
	<rect x="502.2" y="61" class="st9" width="29.5" height="2.9"/>
	<rect x="463.2" y="86" class="st9" width="29.6" height="2.9"/>
	<rect x="498.2" y="86" class="st9" width="24" height="2.9"/>
	<rect x="468.2" y="91" class="st9" width="39.3" height="2.9"/>
	<rect x="463.2" y="100" class="st9" width="49.1" height="2.9"/>
	<rect x="473.2" y="110" class="st9" width="24.6" height="2.9"/>
	<rect x="502.2" y="110" class="st9" width="15.2" height="2.9"/>
	<rect x="522.2" y="110" class="st9" width="9.5" height="2.9"/>
	<rect x="458.4" y="125" class="st9" width="20.3" height="2.9"/>
</g>
</svg>
