<?xml version="1.0" encoding="utf-8"?>
<!-- Generator: Adobe Illustrator 15.0.0, SVG Export Plug-In . SVG Version: 6.00 Build 0)  -->
<!DOCTYPE svg PUBLIC "-//W3C//DTD SVG 1.1//EN" "http://www.w3.org/Graphics/SVG/1.1/DTD/svg11.dtd">
<svg version="1.1" xmlns="http://www.w3.org/2000/svg" xmlns:xlink="http://www.w3.org/1999/xlink" x="0px" y="0px" width="400px"
	 height="242.667px" viewBox="0 0 400 242.667" enable-background="new 0 0 400 242.667" xml:space="preserve">
<g id="Layer_7">
	<rect y="-20.004" width="400" height="275"/>
</g>
<g id="Layer_1">
	<polyline fill="#DEDDE0" points="227.917,195.579 235,229.496 200,229.496 193,229.496 158.334,229.496 165.25,195.704 	"/>
</g>
<g id="Layer_2">
	<path fill="#4E4A51" d="M323,169.33V41.996c0,0,0-0.125,0-9.375s-9-9.625-9-9.625h-6h-24H84h-6c0,0-9,0.375-9,9.625
		s0,9.375,0,9.375V169.33H323z"/>
	<path fill="#FDFDFD" d="M69,168.996v21c0,0-0.25,9,8.875,9s45.125,0,45.125,0h146c0,0,36,0,45.125,0s8.875-9,8.875-9v-21"/>
	<rect x="147" y="227.996" fill="#FDFDFD" width="99" height="10"/>
	<rect x="-168" y="-19.004" fill="#FACF01" width="48" height="48"/>
</g>
<g id="Layer_3">
	<rect x="78.5" y="32.496" fill="#7F7C80" width="235" height="128"/>
	<circle fill="#4E4A51" cx="196.334" cy="184.668" r="5"/>
</g>
<g id="Layer_4">
</g>
<g id="Layer_5">
	<rect x="88" y="14.996" fill="#4E4A51" width="117" height="146"/>
	<rect x="88.5" y="4.496" fill="#7F7C80" width="117" height="10"/>
</g>
<g id="Layer_6">
	<rect x="99" y="16.996" fill="#6AD3FF" width="9.125" height="2.865"/>
	<rect x="99" y="21.996" fill="#FACF01" width="14" height="3"/>
	<rect x="108" y="36.996" fill="#FACF01" width="10" height="3"/>
	<rect x="128" y="79.996" fill="#FACF01" width="20" height="3"/>
	<rect x="99" y="99.996" fill="#FACF01" width="9" height="3"/>
	<rect x="157" y="128.996" fill="#FACF01" width="39" height="3"/>
	<rect x="157" y="40.996" fill="#6AD3FF" width="19.562" height="2.865"/>
	<rect x="99" y="69.996" fill="#6AD3FF" width="14.208" height="2.865"/>
	<rect x="113" y="84.996" fill="#6AD3FF" width="5.292" height="2.865"/>
	<rect x="103" y="104.996" fill="#6AD3FF" width="20.208" height="2.865"/>
	<rect x="99" y="16.996" fill="#6AD3FF" width="9.125" height="2.865"/>
	<rect x="113" y="128.996" fill="#6AD3FF" width="24.792" height="2.865"/>
	<rect x="99" y="143.996" fill="#6AD3FF" width="28.958" height="2.865"/>
	<rect x="123" y="36.996" fill="#FFFFFF" width="19.792" height="2.865"/>
	<rect x="138" y="31.996" fill="#FFFFFF" width="29.292" height="2.865"/>
	<rect x="152" y="46.996" fill="#FFFFFF" width="44.542" height="2.865"/>
	<rect x="103" y="60.996" fill="#FFFFFF" width="19.792" height="2.865"/>
	<rect x="108" y="79.996" fill="#FFFFFF" width="14.792" height="2.865"/>
	<rect x="118" y="89.996" fill="#FFFFFF" width="34.125" height="2.865"/>
	<rect x="128" y="104.996" fill="#FFFFFF" width="58.209" height="2.865"/>
	<rect x="142.083" y="128.996" fill="#FFFFFF" width="10.542" height="2.865"/>
	<rect x="128" y="148.996" fill="#FFFFFF" width="19.792" height="2.865"/>
	<rect x="103.333" y="31.996" fill="#7B777F" width="29.458" height="2.865"/>
	<rect x="112.333" y="40.996" fill="#7B777F" width="25.625" height="2.865"/>
	<rect x="142.333" y="40.996" fill="#7B777F" width="10.292" height="2.865"/>
	<rect x="118.167" y="46.996" fill="#7B777F" width="29.459" height="2.865"/>
	<rect x="99.167" y="55.996" fill="#7B777F" width="18.959" height="2.865"/>
	<rect x="118.167" y="69.996" fill="#7B777F" width="34.292" height="2.865"/>
	<rect x="103.167" y="74.996" fill="#7B777F" width="33.625" height="2.865"/>
	<rect x="152.167" y="79.996" fill="#7B777F" width="14.959" height="2.865"/>
	<rect x="123.167" y="84.996" fill="#7B777F" width="19.375" height="2.865"/>
	<rect x="147.167" y="84.996" fill="#7B777F" width="29.459" height="2.865"/>
	<rect x="108.167" y="109.996" fill="#7B777F" width="29.625" height="2.865"/>
	<rect x="143.167" y="109.996" fill="#7B777F" width="24.042" height="2.865"/>
	<rect x="113.167" y="114.996" fill="#7B777F" width="39.292" height="2.865"/>
	<rect x="108.167" y="123.996" fill="#7B777F" width="49.125" height="2.865"/>
	<rect x="118.167" y="133.996" fill="#7B777F" width="24.625" height="2.865"/>
	<rect x="147.167" y="133.996" fill="#7B777F" width="15.208" height="2.865"/>
	<rect x="167.167" y="133.996" fill="#7B777F" width="9.542" height="2.865"/>
	<rect x="103.417" y="148.996" fill="#7B777F" width="20.292" height="2.865"/>
</g>
</svg>
