<?xml version="1.0" encoding="utf-8"?>
<!-- Generator: Adobe Illustrator 15.0.0, SVG Export Plug-In . SVG Version: 6.00 Build 0)  -->
<!DOCTYPE svg PUBLIC "-//W3C//DTD SVG 1.1//EN" "http://www.w3.org/Graphics/SVG/1.1/DTD/svg11.dtd">
<svg version="1.1" id="Layer_1" xmlns="http://www.w3.org/2000/svg" xmlns:xlink="http://www.w3.org/1999/xlink" x="0px" y="0px"
	 width="400px" height="242.667px" viewBox="0 0 400 242.667" enable-background="new 0 0 400 242.667" xml:space="preserve">
<g id="Layer_7">
	<rect y="-20.004" width="400" height="275"/>
</g>
<g id="Layer_4">
</g>
<g id="Layer_5">
	<rect x="124" y="30.938" fill="#4E4A51" width="149.773" height="186.896"/>
	<rect x="124.64" y="17.496" fill="#7F7C80" width="149.774" height="12.801"/>
</g>
<g id="Layer_6">
	<rect x="138.081" y="33.498" fill="#6AD3FF" width="11.681" height="3.667"/>
	<rect x="138.081" y="39.898" fill="#6AD3FF" width="17.922" height="3.84"/>
	<rect x="149.603" y="59.1" fill="#6AD3FF" width="12.801" height="3.84"/>
	<rect x="175.205" y="114.145" fill="#6AD3FF" width="25.602" height="3.84"/>
	<rect x="138.081" y="139.748" fill="#6AD3FF" width="11.521" height="3.84"/>
	<rect x="212.328" y="176.87" fill="#6AD3FF" width="49.924" height="3.841"/>
	<rect x="212.328" y="64.22" fill="#F27071" width="25.041" height="3.667"/>
	<rect x="138.081" y="101.344" fill="#F27071" width="18.188" height="3.667"/>
	<rect x="156.003" y="120.545" fill="#F27071" width="6.774" height="3.667"/>
	<rect x="143.202" y="146.148" fill="#F27071" width="25.869" height="3.667"/>
	<rect x="138.081" y="33.498" fill="#F27071" width="11.681" height="3.667"/>
	<rect x="156.003" y="176.87" fill="#F27071" width="31.736" height="3.668"/>
	<rect x="138.081" y="196.072" fill="#F27071" width="37.07" height="3.668"/>
	<rect x="168.804" y="59.1" fill="#FFFFFF" width="25.336" height="3.667"/>
	<rect x="188.006" y="52.699" fill="#FFFFFF" width="37.497" height="3.667"/>
	<rect x="205.928" y="71.901" fill="#FFFFFF" width="57.019" height="3.667"/>
	<rect x="143.202" y="89.823" fill="#FFFFFF" width="25.336" height="3.667"/>
	<rect x="149.603" y="114.145" fill="#FFFFFF" width="18.935" height="3.667"/>
	<rect x="162.403" y="126.946" fill="#FFFFFF" width="43.685" height="3.667"/>
	<rect x="175.205" y="146.148" fill="#FFFFFF" width="74.514" height="3.667"/>
	<rect x="193.232" y="176.87" fill="#FFFFFF" width="13.495" height="3.668"/>
	<rect x="175.205" y="202.472" fill="#FFFFFF" width="25.336" height="3.668"/>
	<rect x="143.628" y="52.699" fill="#7B777F" width="37.71" height="3.667"/>
	<rect x="155.149" y="64.22" fill="#7B777F" width="32.803" height="3.667"/>
	<rect x="193.553" y="64.22" fill="#7B777F" width="13.175" height="3.667"/>
	<rect x="162.617" y="71.901" fill="#7B777F" width="37.711" height="3.667"/>
	<rect x="138.295" y="83.422" fill="#7B777F" width="24.27" height="3.667"/>
	<rect x="162.617" y="101.344" fill="#7B777F" width="43.898" height="3.667"/>
	<rect x="143.416" y="107.744" fill="#7B777F" width="43.044" height="3.667"/>
	<rect x="206.141" y="114.145" fill="#7B777F" width="19.15" height="3.667"/>
	<rect x="169.018" y="120.545" fill="#7B777F" width="24.803" height="3.667"/>
	<rect x="199.741" y="120.545" fill="#7B777F" width="37.71" height="3.667"/>
	<rect x="149.816" y="152.548" fill="#7B777F" width="37.923" height="3.667"/>
	<rect x="194.62" y="152.548" fill="#7B777F" width="30.776" height="3.667"/>
	<rect x="156.217" y="158.949" fill="#7B777F" width="50.299" height="3.667"/>
	<rect x="149.816" y="170.469" fill="#7B777F" width="62.885" height="3.668"/>
	<rect x="162.617" y="183.27" fill="#7B777F" width="31.523" height="3.668"/>
	<rect x="199.741" y="183.27" fill="#7B777F" width="19.468" height="3.668"/>
	<rect x="225.343" y="183.27" fill="#7B777F" width="12.215" height="3.668"/>
	<rect x="143.735" y="202.472" fill="#7B777F" width="25.976" height="3.668"/>
</g>
<rect x="-137.366" y="-57.348" transform="matrix(-0.745 0.667 -0.667 -0.745 -231.1997 48.1557)" fill="#F27071" width="25.125" height="74.48"/>
</svg>
