<?xml version="1.0" encoding="utf-8"?>
<!-- Generator: Adobe Illustrator 15.0.0, SVG Export Plug-In . SVG Version: 6.00 Build 0)  -->
<!DOCTYPE svg PUBLIC "-//W3C//DTD SVG 1.1//EN" "http://www.w3.org/Graphics/SVG/1.1/DTD/svg11.dtd">
<svg version="1.1" id="Layer_1" xmlns="http://www.w3.org/2000/svg" xmlns:xlink="http://www.w3.org/1999/xlink" x="0px" y="0px"
	 width="1295.934px" height="846.309px" viewBox="0 0 1295.934 846.309" enable-background="new 0 0 1295.934 846.309"
	 xml:space="preserve">
<g id="Layer_2">
	<g id="Layer_2_2_">
		<g id="Layer_3_1_">
			<g id="Layer_5" enable-background="new    ">
				<rect y="-64.517" fill="#6FD4FD" width="1306.483" height="1270.017"/>
			</g>
		</g>
	</g>
</g>
<g id="Layer_3">
	<polygon fill="#FFFFFF" points="288.922,49.786 296.271,39.778 292.83,51.81 	"/>
	<path fill="#6FD4FD" d="M954.219,805.695c0,0,104.936-10.917,154.577-99.258c49.646-88.342,21.028-7.555,21.028-7.555
		l12.104,97.395l-30.164,28.208l-165.555-2.998"/>
	<rect x="270.467" y="7.5" fill="#FFFFFF" width="754" height="760.504"/>
</g>
<path fill="#B8B4B4" d="M959.358,37.717l-1.061-1.797l-3.651-4.256c0,0-1.443-0.823-1.613,0.738l1.129,5.027l1.018,2.538
	C955.18,39.967,958.667,41.236,959.358,37.717z"/>
<polygon fill="#6B6B6B" points="960.027,37.118 959.407,36.035 953.854,38.891 954.413,40.145 "/>
<g>
	<g>
		<path d="M954.708,32.128c-0.327-0.311-0.677-0.476-1.114-0.299c-0.179,0.072-0.092,0.359,0.087,0.287
			c0.346-0.14,0.575-0.006,0.824,0.232C954.645,32.482,954.848,32.262,954.708,32.128L954.708,32.128z"/>
	</g>
</g>
<polygon fill="#FFFFFF" points="976.124,58.673 960.284,36.761 954.021,40.066 960.842,67.02 "/>
<linearGradient id="SVGID_1_" gradientUnits="userSpaceOnUse" x1="1528.3428" y1="20.4956" x2="1541.342" y2="39.828" gradientTransform="matrix(-0.8895 -0.457 -0.457 0.8895 2342.9473 724.5688)">
	<stop  offset="0" style="stop-color:#E4AB3A"/>
	<stop  offset="0.5" style="stop-color:#E4AB3A;stop-opacity:0.27"/>
	<stop  offset="1" style="stop-color:#E4AB3A"/>
</linearGradient>
<polygon fill="url(#SVGID_1_)" points="976.124,58.673 960.284,36.761 954.021,40.066 960.842,67.02 "/>
<rect x="958.505" y="61.845" transform="matrix(0.8932 -0.4496 0.4496 0.8932 75.0146 442.2427)" fill="#EFD69E" width="20.216" height="2.679"/>
<linearGradient id="SVGID_2_" gradientUnits="userSpaceOnUse" x1="1510.2656" y1="27.1216" x2="1527.0153" y2="50.371" gradientTransform="matrix(-0.8895 -0.457 -0.457 0.8895 2342.9473 724.5688)">
	<stop  offset="0" style="stop-color:#E4AB3A"/>
	<stop  offset="0.5" style="stop-color:#E4AB3A;stop-opacity:0.27"/>
	<stop  offset="1" style="stop-color:#E4AB3A"/>
</linearGradient>
<polygon fill="url(#SVGID_2_)" points="981.655,65.331 978.405,58.582 959.323,68.393 962.51,75.544 "/>
<path fill="#C8841F" d="M1066.244,217.389c0,0-3.538,7.06,2.593,6.556"/>
<path d="M995.045,88.419l-10.592-17.387c0,0-1.917-4.007-1.562-5.434c0.357-1.428-1.818-1.761-1.818-1.761l-19.498,9.608
	l0.128,1.639c0,0,0.081,1.181,1.269,1.521c1.184,0.343,10.99,22.048,10.99,22.048l9.434,2.097l8.552-5.238L995.045,88.419z"/>
<path fill="#FFFFFF" d="M1004.805,105.216L994.75,87.639c0,0-14.605,11.989-20.356,11.204l8.594,19.667l9.408,0.746l12.181-9.774
	L1004.805,105.216z"/>
<linearGradient id="SVGID_3_" gradientUnits="userSpaceOnUse" x1="1438.8057" y1="10.731" x2="1460.7227" y2="-7.8533" gradientTransform="matrix(-0.9163 -0.4003 -0.4003 0.9163 2320.4099 685.8795)">
	<stop  offset="0" style="stop-color:#000000"/>
	<stop  offset="1" style="stop-color:#231F20;stop-opacity:0.77"/>
	<stop  offset="1" style="stop-color:#666666;stop-opacity:0"/>
</linearGradient>
<path fill="url(#SVGID_3_)" d="M1004.805,105.216L994.75,87.639c0,0-14.605,11.989-20.356,11.204l8.594,19.667l9.408,0.746
	l12.181-9.774L1004.805,105.216z"/>
<path d="M1044.419,185.994l-39.614-80.777c0,0-4.966,8.655-21.082,13.072l-0.736,0.222l37.551,75.537l1.691,1.171l12.025-1.294
	L1044.419,185.994z"/>
<path fill="#5A5A5A" d="M1045.797,184.569c0,0-0.759-2.096-2.131-1.373c-1.374,0.722-7.661,10.528-23.107,10.19
	c0,0-1.27,0.437,0.338,1.8c1.608,1.362,9.267,1.271,9.267,1.271l13.31-6.563L1045.797,184.569z"/>
<path d="M1091.03,287.112c0,0,5.688,31.947-16.284,9.8c0,0-42.604-70.262-54.414-102.339c0,0,17.33,0.294,24.634-11.428
	c0,0,13.411,22.592,19.947,39.269C1071.451,239.092,1091.03,287.112,1091.03,287.112z"/>
<path fill="#F2CB75" d="M1053.143,196.902l-3.247-5.057c0,0-6.749,13.785-25.474,12.517l2.715,6.278
	C1027.136,210.639,1041.871,212.713,1053.143,196.902z"/>
<path fill="#F2CB75" d="M1023.735,202.983c0,0,17.79,0.775,25.388-12.581l-0.928-1.655c0,0-10.009,14.045-25.267,12.353
	L1023.735,202.983z"/>
<path fill="#F2CB75" d="M1073.928,295.554l-1.211-2.016c0,0,10.968-1.749,16.18-11.667l2.131-1.307c0,0-2.028-5.251-3.257-7.016
	c-1.229-1.764-7.957-12.276-21.526-56.158l1.215-0.593l10.972,24.844c0,0,11.783,28.609,13.482,32.216
	c1.697,3.606,3.075,8.574,3.075,8.574s-1.726,0.2-2.354,1.017C1092.003,284.263,1080.318,296.12,1073.928,295.554z"/>
<path fill="#C7C7C7" d="M1050.391,205.483c0,0,35.771,76.956,35.172,78.33c-0.602,1.376-2.893,3.284-2.893,3.284l-37.773-77.286
	L1050.391,205.483z"/>
<ellipse transform="matrix(-0.883 0.4694 -0.4694 -0.883 2187.2192 42.4838)" fill="#C7C7C7" cx="1088.314" cy="293.856" rx="1.418" ry="2.918"/>
<path fill="#F2CB75" d="M1054.542,200.383c0,0-8.408,14.419-25.777,13.538l-0.696-1.453c0,0,16.899-0.409,25.782-13.396
	L1054.542,200.383z"/>
<path fill="#C4C8C9" d="M1038.89,184.773l-37.801-73.767c0,0-3.008,3.512-4.153,3.681c-1.146,0.172,36.941,72.979,36.941,72.979
	S1037.613,186.773,1038.89,184.773z"/>
<path fill="#C7C7C7" d="M988.131,89.659l-3.577,1.529c0,0-8.855-20.326-11.383-21.613c-2.529-1.288,4.293-2.127,4.293-2.127
	L988.131,89.659z"/>
<path fill="#5A5A5A" d="M1004.805,105.216c0,0-9.472,12.262-21.979,12.922l-0.382-0.873c0,0,15.356-2.926,21.84-12.96
	L1004.805,105.216z"/>
<path fill="#5A5A5A" d="M995.122,88.063c0,0-8.976,10.85-20.526,11.035l-0.333-0.807c0,0,14.217-2.155,20.396-11.075L995.122,88.063
	z"/>
</svg>
