<?xml version="1.0" encoding="utf-8"?>
<!-- Generator: Adobe Illustrator 15.0.0, SVG Export Plug-In . SVG Version: 6.00 Build 0)  -->
<!DOCTYPE svg PUBLIC "-//W3C//DTD SVG 1.1//EN" "http://www.w3.org/Graphics/SVG/1.1/DTD/svg11.dtd">
<svg version="1.1" id="Layer_1" xmlns="http://www.w3.org/2000/svg" xmlns:xlink="http://www.w3.org/1999/xlink" x="0px" y="0px"
	 width="400px" height="242.667px" viewBox="0 0 400 242.667" enable-background="new 0 0 400 242.667" xml:space="preserve">
<g id="Layer_2_1_">
	<rect x="-4.5" y="-12.167" width="412" height="267"/>
</g>
<g id="Layer_1_2_">
	<g id="Layer_19" display="none">
	</g>
	<g id="Layer_18" display="none">
		<path display="inline" fill="#FDFDFD" d="M-217.575,62.538l-8.341-5.125c0,0-5.333-3.168,1.667-15.5c0,0,5.919-9.75,12.335-6.167
			c1.877,1.048,4.523,2.609,7.329,4.294"/>
	</g>
	<g id="Layer_17" display="none">
		<path display="inline" fill="#9B9B9B" d="M-173.357,72.566c-11.127,19.223-29.175,29.578-40.305,23.124
			c-11.134-6.448-11.131-27.247,0.002-46.467c11.128-19.219,29.179-29.575,40.309-23.128
			C-162.218,32.546-162.227,53.349-173.357,72.566z"/>
	</g>
	<g id="Layer_16" display="none">
		<path display="inline" fill="#7F7C80" d="M-152.462,85.273c-14.648,25.308-38.408,38.939-53.061,30.443
			c-14.658-8.489-14.654-35.871,0.003-61.174c14.649-25.301,38.413-38.936,53.065-30.448
			C-137.796,32.588-137.808,59.974-152.462,85.273z"/>
		<polyline display="inline" fill="#7F7C80" points="-196.125,122.371 -207.5,114.412 -151.375,24.871 -139.875,32.871 		"/>
	</g>
	<g id="Layer_15" display="none">
		<path display="inline" fill="#4E4A51" d="M-142.462,92.273c-14.648,25.308-38.408,38.939-53.061,30.443
			c-14.658-8.489-14.654-35.874,0.003-61.174c14.649-25.301,38.413-38.936,53.065-30.448
			C-127.796,39.588-127.808,66.974-142.462,92.273z"/>
	</g>
	<g id="Layer_14" display="none">
		<path display="inline" fill="#FDFDFD" d="M-93.25,104.246l-45.831-26.333c0,0-15.417-9.584-21.833-13.167
			s-12.335,6.167-12.335,6.167c-7,12.332-1.667,15.5-1.667,15.5l22.917,14.084L-108,125.996"/>
	</g>
	<g id="Layer_13" display="none">
		<path display="inline" fill="#7F7C80" d="M-51.462,148.273c-14.648,25.309-38.408,38.939-53.061,30.443
			c-14.658-8.489-14.654-35.871,0.003-61.174c14.649-25.301,38.413-38.936,53.065-30.448
			C-36.796,95.588-36.808,122.974-51.462,148.273z"/>
		<polyline display="inline" fill="#7F7C80" points="-95.125,185.371 -106.5,177.412 -50.375,87.871 -38.875,95.871 		"/>
	</g>
	<g id="Layer_12" display="none">
		<path display="inline" fill="#4E4A51" d="M-41.462,155.273c-14.648,25.309-38.408,38.939-53.061,30.443
			c-14.658-8.489-14.654-35.871,0.003-61.174c14.649-25.301,38.413-38.938,53.065-30.451
			C-26.796,102.588-26.808,129.974-41.462,155.273z"/>
	</g>
	<g id="Layer_11" display="none">
		<path display="inline" fill="#7F7C80" d="M-47.357,152.566c-11.127,19.223-29.175,29.578-40.305,23.124
			c-11.134-6.448-11.131-27.247,0.002-46.467c11.128-19.219,29.179-29.575,40.309-23.128
			C-36.218,112.546-36.227,133.349-47.357,152.566z"/>
		<polyline display="inline" fill="#7F7C80" points="-75.662,182.69 -88.188,175.371 -89.062,164.058 -45.938,107.058 
			-34.25,113.871 		"/>
	</g>
	<g id="Layer_10" display="none">
		<path display="inline" fill="#4E4A51" d="M-35.357,159.566c-11.127,19.223-29.175,29.578-40.305,23.124
			c-11.134-6.448-11.131-27.247,0.002-46.467c11.128-19.219,29.179-29.575,40.309-23.128
			C-24.218,119.546-24.227,140.349-35.357,159.566z"/>
	</g>
	<g id="Layer_9" display="none">
		<path display="inline" fill="#FDFDFD" d="M-37.999,172.498l-22.917-14.084c0,0-5.333-3.168,1.667-15.5
			c0,0,5.919-9.75,12.335-6.168c6.416,3.584,21.833,13.168,21.833,13.168"/>
	</g>
	<g id="Layer_8" display="none">
		
			<ellipse transform="matrix(-0.5013 0.8653 -0.8653 -0.5013 91.3517 269.4128)" display="inline" fill="#DEDDE0" cx="-31.962" cy="161.032" rx="13.057" ry="7.562"/>
	</g>
	<g id="Layer_1_1_" display="none">
		<polyline display="inline" fill="#DEDDE0" points="582.917,195.58 590,229.496 555,229.496 548,229.496 513.334,229.496 
			520.25,195.705 		"/>
	</g>
	<g id="Layer_2" display="none">
		<path display="inline" fill="#4E4A51" d="M678,169.33V41.996c0,0,0-0.125,0-9.375s-9-9.625-9-9.625h-6h-24H439h-6
			c0,0-9,0.375-9,9.625s0,9.375,0,9.375V169.33H678z"/>
		<path display="inline" fill="#FDFDFD" d="M424,168.996v21c0,0-0.25,9,8.875,9s45.125,0,45.125,0h146c0,0,36,0,45.125,0
			s8.875-9,8.875-9v-21"/>
		<rect x="502" y="227.996" display="inline" fill="#FDFDFD" width="99" height="10"/>
		<rect x="-168" y="-19.004" display="inline" fill="#FACF01" width="48" height="48"/>
	</g>
	<g id="Layer_3">
		<rect x="433.5" y="32.496" fill="#7F7C80" width="235" height="128"/>
		<circle fill="#4E4A51" cx="551.334" cy="184.667" r="5"/>
		<path fill="#4E4A51" d="M301.333,190.33V62.996c0,0,0-0.125,0-9.375s-8.031-9.625-8.031-9.625h-5.354H266.53H88.053h-5.354
			c0,0-8.032,0.375-8.032,9.625s0,9.375,0,9.375V190.33H301.333z"/>
		<rect x="84.145" y="53.496" fill="#7F7C80" width="207.71" height="127"/>
		<rect x="62" y="190.996" fill="#4E4A51" width="253" height="3"/>
		<path fill="#DEDDE0" d="M333,193.996v5c0,0,1.479,8.5-10.521,8.834c-12,0.332-130.737,0.166-130.737,0.166h-4.405
			c0,0-118.667,0.166-130.667-0.166c-12-0.334-10.667-8.834-10.667-8.834v-5"/>
		<path fill="#B7B7B7" d="M331.105,204.859c-1.492,1.557-4.103,2.846-8.627,2.971c-12,0.332-130.743,0.166-130.743,0.166h-4.405
			c0,0-118.667,0.166-130.667-0.166c-12-0.334-10.667-8.834-10.667-8.834v-5h7.625c0,0-1.375,10.125,7.75,10.125
			s269.5,0.875,269.5,0.875"/>
		<path fill="#B7B7B7" d="M209.088,194.017l0.329,0.945c0,0-0.065,4.033-3.731,4.033c-3.664,0-7.199,0-7.199,0H181.21
			c0,0-2.749,0-6.414,0c-3.666,0-3.73-4.033-3.73-4.033L171,194.017"/>
	</g>
	<g id="Layer_4" display="none">
		<path display="inline" fill="#C4C4C4" d="M208,187.996v0.646c0,0-0.875,3.354-4.125,3.354s-4.875,0-4.875,0h-20
			c0,0-1.625,0-4.875,0S170,188.641,170,188.641v-0.646"/>
	</g>
	<g id="Layer_5" display="none">
		<rect x="443" y="14.996" display="inline" fill="#4E4A51" width="117" height="146"/>
		<rect x="443.5" y="4.496" display="inline" fill="#7F7C80" width="117" height="10"/>
	</g>
	<g id="Layer_6">
		<rect x="454" y="16.996" fill="#6AD3FF" width="9.125" height="2.865"/>
		<rect x="454" y="21.996" fill="#FACF01" width="14" height="3"/>
		<rect x="463" y="36.996" fill="#FACF01" width="10" height="3"/>
		<rect x="483" y="79.996" fill="#FACF01" width="20" height="3"/>
		<rect x="454" y="99.996" fill="#FACF01" width="9" height="3"/>
		<rect x="512" y="128.996" fill="#FACF01" width="39" height="3"/>
		<rect x="512" y="40.996" fill="#6AD3FF" width="19.562" height="2.865"/>
		<rect x="454" y="69.996" fill="#6AD3FF" width="14.209" height="2.865"/>
		<rect x="468" y="84.996" fill="#6AD3FF" width="5.292" height="2.865"/>
		<rect x="458" y="104.996" fill="#6AD3FF" width="20.209" height="2.865"/>
		<rect x="454" y="16.996" fill="#6AD3FF" width="9.125" height="2.865"/>
		<rect x="468" y="128.996" fill="#6AD3FF" width="24.792" height="2.865"/>
		<rect x="454" y="143.996" fill="#6AD3FF" width="28.958" height="2.865"/>
		<rect x="478" y="36.996" fill="#FFFFFF" width="19.792" height="2.865"/>
		<rect x="493" y="31.996" fill="#FFFFFF" width="29.292" height="2.865"/>
		<rect x="507" y="46.996" fill="#FFFFFF" width="44.542" height="2.865"/>
		<rect x="458" y="60.996" fill="#FFFFFF" width="19.792" height="2.865"/>
		<rect x="463" y="79.996" fill="#FFFFFF" width="14.792" height="2.865"/>
		<rect x="473" y="89.996" fill="#FFFFFF" width="34.125" height="2.865"/>
		<rect x="483" y="104.996" fill="#FFFFFF" width="58.209" height="2.865"/>
		<rect x="497.084" y="128.996" fill="#FFFFFF" width="10.541" height="2.865"/>
		<rect x="483" y="148.996" fill="#FFFFFF" width="19.792" height="2.865"/>
		<rect x="458.334" y="31.996" fill="#7B777F" width="29.458" height="2.865"/>
		<rect x="467.334" y="40.996" fill="#7B777F" width="25.625" height="2.865"/>
		<rect x="497.334" y="40.996" fill="#7B777F" width="10.291" height="2.865"/>
		<rect x="473.166" y="46.996" fill="#7B777F" width="29.459" height="2.865"/>
		<rect x="454.166" y="55.996" fill="#7B777F" width="18.959" height="2.865"/>
		<rect x="473.166" y="69.996" fill="#7B777F" width="34.293" height="2.865"/>
		<rect x="458.166" y="74.996" fill="#7B777F" width="33.626" height="2.865"/>
		<rect x="507.166" y="79.996" fill="#7B777F" width="14.959" height="2.865"/>
		<rect x="478.166" y="84.996" fill="#7B777F" width="19.376" height="2.865"/>
		<rect x="502.166" y="84.996" fill="#7B777F" width="29.459" height="2.865"/>
		<rect x="463.166" y="109.996" fill="#7B777F" width="29.626" height="2.865"/>
		<rect x="498.166" y="109.996" fill="#7B777F" width="24.043" height="2.865"/>
		<rect x="468.166" y="114.996" fill="#7B777F" width="39.293" height="2.865"/>
		<rect x="463.166" y="123.996" fill="#7B777F" width="49.125" height="2.865"/>
		<rect x="473.166" y="133.996" fill="#7B777F" width="24.625" height="2.865"/>
		<rect x="502.166" y="133.996" fill="#7B777F" width="15.209" height="2.865"/>
		<rect x="522.166" y="133.996" fill="#7B777F" width="9.542" height="2.865"/>
		<rect x="458.416" y="148.996" fill="#7B777F" width="20.292" height="2.865"/>
	</g>
	<g id="Layer_20">
		<path fill="#6AD3FF" d="M198,181.996v-14.988c0,0,0.042-4.321,0.125-8.321s4.018-3.526,4.018-3.526l3.215-0.158h138.985
			c0,0,3.491-0.402,3.574,3.598s0.083,8.432,0.083,8.432V181"/>
		<path fill="#41C8F7" d="M348.042,179.369c0,0,0.146,4.23,0.062,8.23s-3.453,3.396-3.453,3.396H204.697l-3.146,0.084
			c0,0-3.433,0.582-3.516-3.418s0-8.252,0-8.252"/>
		<rect x="226" y="154.996" fill="#FFFFFF" width="4" height="36"/>
		<rect x="327" y="154.996" fill="#FFFFFF" width="8" height="36"/>
		<rect x="316" y="154.996" fill="#FFFFFF" width="4" height="36"/>
		<path fill="#624354" d="M335.727,143.369c0,0,0.118,4.23,0.051,8.23c-0.066,4-2.823,3.396-2.823,3.396H218.479l-2.604,0.016
			c0,0-2.775,0.65-2.844-3.35c-0.069-4,0-8.252,0-8.252"/>
		<rect x="211" y="154.996" fill="#FFFFFF" width="8" height="36"/>
		<path fill="#624354" d="M335.727,134.05c0,0,0.118-4.444,0.051-8.444c-0.066-4-2.823-3.61-2.823-3.61H218.479l-2.604,0.198
			c0,0-2.775-0.544-2.844,3.456c-0.069,4,0,8.305,0,8.305"/>
		<polygon fill="#F2F2E9" points="335.812,144.722 213,144.58 213,147.996 335.814,147.996 		"/>
		<polygon fill="#F2F2E9" points="335.812,129.373 213,128.996 213,132.996 335.814,132.996 		"/>
		<polygon fill="#FFFFFF" points="335.812,132.464 213,132.593 213,144.996 335.814,144.996 		"/>
		<polyline fill="#F27071" points="306.333,140.705 311,142.914 311,133.689 311,132.996 302,132.996 302,133.689 302,142.914 
			306.762,140.705 		"/>
		<path fill="#FACF01" d="M200,115.996v-13.367c0,0,0.037-3.782,0.109-7.283c0.072-3.501,3.517-3.15,3.517-3.15l2.812-0.201h121.619
			c0,0,2.928-0.291,2.998,3.209c0.073,3.501-0.056,7.441-0.056,7.441v12.35"/>
		<path fill="#E8BC05" d="M330.872,111.369c0,0,0.127,3.933,0.055,7.422c-0.071,3.488-3.012,3.205-3.012,3.205H205.842l-2.742-0.167
			c0,0-2.994,0.386-3.064-3.102c-0.072-3.489,0-7.258,0-7.258"/>
	</g>
	<g id="Layer_21">
		<rect x="209" y="91.996" fill="#E8BC05" width="3" height="30"/>
		<rect x="318" y="91.996" fill="#E8BC05" width="3" height="30"/>
		<rect x="212" y="91.996" fill="#FACF01" width="3" height="30"/>
		<rect x="321" y="91.996" fill="#FACF01" width="3" height="30"/>
		<polygon fill="#FACF01" points="223,108.246 223,113.111 228.125,116.996 306,116.996 310,112.747 310.083,108.329 		"/>
		<polygon fill="#FFDA3E" points="223,110.996 223,101.88 228.125,97.996 306,97.996 310,102.245 310,110.996 		"/>
		<circle cx="189.75" cy="48.913" r="1.583"/>
	</g>
</g>
<rect x="426" y="-21.167" fill="#FACF01" width="30" height="19"/>
</svg>
