<?xml version="1.0" encoding="utf-8"?>
<!-- Generator: Adobe Illustrator 15.0.0, SVG Export Plug-In . SVG Version: 6.00 Build 0)  -->
<!DOCTYPE svg PUBLIC "-//W3C//DTD SVG 1.1//EN" "http://www.w3.org/Graphics/SVG/1.1/DTD/svg11.dtd">
<svg version="1.1" xmlns="http://www.w3.org/2000/svg" xmlns:xlink="http://www.w3.org/1999/xlink" x="0px" y="0px" width="400px"
	 height="242.667px" viewBox="0 0 400 242.667" enable-background="new 0 0 400 242.667" xml:space="preserve">
<g id="Layer_1">
	<g id="Layer_2_1_">
		<rect x="-4.5" y="-12.167" width="412" height="267"/>
	</g>
	<g id="Layer_1_2_">
		<g id="Layer_19" display="none">
		</g>
		<g id="Layer_18" display="none">
			<path display="inline" fill="#FDFDFD" d="M-220.575-209.462l-8.341-5.125c0,0-5.333-3.168,1.667-15.5
				c0,0,5.919-9.75,12.335-6.167c1.877,1.048,4.523,2.609,7.329,4.294"/>
		</g>
		<g id="Layer_17" display="none">
			<path display="inline" fill="#9B9B9B" d="M-176.357-199.434c-11.127,19.223-29.175,29.578-40.305,23.124
				c-11.134-6.448-11.131-27.247,0.002-46.467c11.128-19.219,29.179-29.575,40.309-23.128
				C-165.218-239.454-165.227-218.651-176.357-199.434z"/>
		</g>
		<g id="Layer_16" display="none">
			<path display="inline" fill="#7F7C80" d="M-155.462-186.727c-14.648,25.308-38.408,38.939-53.061,30.443
				c-14.658-8.489-14.654-35.871,0.003-61.174c14.649-25.301,38.413-38.936,53.065-30.448
				C-140.796-239.412-140.808-212.026-155.462-186.727z"/>
			<polyline display="inline" fill="#7F7C80" points="-199.125,-149.629 -210.5,-157.588 -154.375,-247.129 -142.875,-239.129 			
				"/>
		</g>
		<g id="Layer_15" display="none">
			<path display="inline" fill="#4E4A51" d="M-145.462-179.727c-14.648,25.308-38.408,38.939-53.061,30.443
				c-14.658-8.489-14.654-35.875,0.003-61.174c14.649-25.301,38.413-38.936,53.065-30.448
				C-130.796-232.412-130.808-205.026-145.462-179.727z"/>
		</g>
		<g id="Layer_14" display="none">
			<path display="inline" fill="#FDFDFD" d="M-96.25-167.754l-45.831-26.333c0,0-15.417-9.584-21.833-13.167
				s-12.335,6.167-12.335,6.167c-7,12.332-1.667,15.5-1.667,15.5l22.917,14.084L-111-146.004"/>
		</g>
		<g id="Layer_13" display="none">
			<path display="inline" fill="#7F7C80" d="M-54.462-123.727C-69.11-98.418-92.87-84.788-107.523-93.284
				c-14.658-8.489-14.654-35.871,0.003-61.174c14.649-25.301,38.413-38.936,53.065-30.448
				C-39.796-176.412-39.808-149.026-54.462-123.727z"/>
			<polyline display="inline" fill="#7F7C80" points="-98.125,-86.629 -109.5,-94.588 -53.375,-184.129 -41.875,-176.129 			"/>
		</g>
		<g id="Layer_12" display="none">
			<path display="inline" fill="#4E4A51" d="M-44.462-116.727C-59.11-91.418-82.87-77.788-97.523-86.284
				c-14.658-8.489-14.654-35.871,0.003-61.174c14.649-25.301,38.413-38.938,53.065-30.452
				C-29.796-169.412-29.808-142.026-44.462-116.727z"/>
		</g>
		<g id="Layer_11" display="none">
			<path display="inline" fill="#7F7C80" d="M-50.357-119.434c-11.127,19.223-29.175,29.578-40.305,23.124
				c-11.134-6.448-11.131-27.247,0.002-46.467c11.128-19.219,29.179-29.575,40.309-23.128
				C-39.218-159.454-39.227-138.651-50.357-119.434z"/>
			<polyline display="inline" fill="#7F7C80" points="-78.662,-89.31 -91.188,-96.629 -92.062,-107.942 -48.938,-164.942 
				-37.25,-158.129 			"/>
		</g>
		<g id="Layer_10" display="none">
			<path display="inline" fill="#4E4A51" d="M-38.357-112.434C-49.484-93.211-67.532-82.856-78.662-89.31
				c-11.134-6.448-11.131-27.247,0.002-46.467c11.128-19.219,29.179-29.575,40.309-23.128
				C-27.218-152.454-27.227-131.651-38.357-112.434z"/>
		</g>
		<g id="Layer_9" display="none">
			<path display="inline" fill="#FDFDFD" d="M-40.999-99.502l-22.917-14.084c0,0-5.333-3.168,1.667-15.5
				c0,0,5.919-9.75,12.335-6.168c6.416,3.584,21.833,13.168,21.833,13.168"/>
		</g>
		<g id="Layer_8" display="none">
			
				<ellipse transform="matrix(0.8653 0.5013 -0.5013 0.8653 -60.3403 2.5783)" display="inline" fill="#DEDDE0" cx="-34.967" cy="-110.969" rx="7.562" ry="13.058"/>
		</g>
		<g id="Layer_1_1_" display="none">
			<polyline display="inline" fill="#DEDDE0" points="579.917,-76.42 587,-42.504 552,-42.504 545,-42.504 510.334,-42.504 
				517.25,-76.295 			"/>
		</g>
		<g id="Layer_2" display="none">
			<path display="inline" fill="#4E4A51" d="M675-102.67v-127.333c0,0,0-0.125,0-9.375s-9-9.625-9-9.625h-6h-24H436h-6
				c0,0-9,0.375-9,9.625s0,9.375,0,9.375v127.333H675z"/>
			<path display="inline" fill="#FDFDFD" d="M421-103.004v21c0,0-0.25,9,8.875,9s45.125,0,45.125,0h146c0,0,36,0,45.125,0
				s8.875-9,8.875-9v-21"/>
			<rect x="499" y="-44.004" display="inline" fill="#FDFDFD" width="99" height="10"/>
			<rect x="-171" y="-291.004" display="inline" fill="#FACF01" width="48" height="48"/>
		</g>
		<g id="Layer_3">
			<rect x="430.5" y="-239.504" fill="#7F7C80" width="235" height="128"/>
			<circle fill="#4E4A51" cx="548.334" cy="-87.333" r="5"/>
			<path fill="#4E4A51" d="M298.333-81.67v-127.333c0,0,0-0.125,0-9.375s-8.031-9.625-8.031-9.625h-5.354H263.53H85.053h-5.354
				c0,0-8.032,0.375-8.032,9.625s0,9.375,0,9.375V-81.67H298.333z"/>
			<rect x="81.145" y="-218.504" fill="#7F7C80" width="207.71" height="127"/>
			<rect x="59" y="-81.004" fill="#4E4A51" width="253" height="3"/>
			<path fill="#DEDDE0" d="M330-78.004v5c0,0,1.479,8.5-10.521,8.834c-12,0.332-130.736,0.166-130.736,0.166h-4.405
				c0,0-118.667,0.166-130.667-0.166c-12-0.334-10.667-8.834-10.667-8.834v-5"/>
			<path fill="#B7B7B7" d="M328.105-67.141c-1.492,1.557-4.104,2.846-8.627,2.971c-12,0.332-130.744,0.166-130.744,0.166h-4.405
				c0,0-118.667,0.166-130.667-0.166c-12-0.334-10.667-8.834-10.667-8.834v-5h7.625c0,0-1.375,10.125,7.75,10.125
				s269.5,0.875,269.5,0.875"/>
			<path fill="#B7B7B7" d="M206.088-77.983l0.329,0.945c0,0-0.065,4.033-3.731,4.033c-3.664,0-7.199,0-7.199,0H178.21
				c0,0-2.749,0-6.414,0c-3.666,0-3.73-4.033-3.73-4.033L168-77.983"/>
		</g>
		<g id="Layer_4" display="none">
			<path display="inline" fill="#C4C4C4" d="M205-84.004v0.646c0,0-0.875,3.354-4.125,3.354s-4.875,0-4.875,0h-20
				c0,0-1.625,0-4.875,0S167-83.359,167-83.359v-0.646"/>
		</g>
		<g id="Layer_5" display="none">
			<rect x="440" y="-257.004" display="inline" fill="#4E4A51" width="117" height="146"/>
			<rect x="440.5" y="-267.504" display="inline" fill="#7F7C80" width="117" height="10"/>
		</g>
		<g id="Layer_6">
			<rect x="451" y="-255.004" fill="#6AD3FF" width="9.125" height="2.865"/>
			<rect x="451" y="-250.004" fill="#FACF01" width="14" height="3"/>
			<rect x="460" y="-235.004" fill="#FACF01" width="10" height="3"/>
			<rect x="480" y="-192.004" fill="#FACF01" width="20" height="3"/>
			<rect x="451" y="-172.004" fill="#FACF01" width="9" height="3"/>
			<rect x="509" y="-143.004" fill="#FACF01" width="39" height="3"/>
			<rect x="509" y="-231.004" fill="#6AD3FF" width="19.562" height="2.865"/>
			<rect x="451" y="-202.004" fill="#6AD3FF" width="14.209" height="2.865"/>
			<rect x="465" y="-187.004" fill="#6AD3FF" width="5.292" height="2.865"/>
			<rect x="455" y="-167.004" fill="#6AD3FF" width="20.209" height="2.865"/>
			<rect x="451" y="-255.004" fill="#6AD3FF" width="9.125" height="2.865"/>
			<rect x="465" y="-143.004" fill="#6AD3FF" width="24.792" height="2.865"/>
			<rect x="451" y="-128.004" fill="#6AD3FF" width="28.958" height="2.865"/>
			<rect x="475" y="-235.004" fill="#FFFFFF" width="19.792" height="2.865"/>
			<rect x="490" y="-240.004" fill="#FFFFFF" width="29.292" height="2.865"/>
			<rect x="504" y="-225.004" fill="#FFFFFF" width="44.542" height="2.865"/>
			<rect x="455" y="-211.004" fill="#FFFFFF" width="19.792" height="2.865"/>
			<rect x="460" y="-192.004" fill="#FFFFFF" width="14.792" height="2.865"/>
			<rect x="470" y="-182.004" fill="#FFFFFF" width="34.125" height="2.865"/>
			<rect x="480" y="-167.004" fill="#FFFFFF" width="58.209" height="2.865"/>
			<rect x="494.084" y="-143.004" fill="#FFFFFF" width="10.541" height="2.865"/>
			<rect x="480" y="-123.004" fill="#FFFFFF" width="19.792" height="2.865"/>
			<rect x="455.334" y="-240.004" fill="#7B777F" width="29.458" height="2.865"/>
			<rect x="464.334" y="-231.004" fill="#7B777F" width="25.625" height="2.865"/>
			<rect x="494.334" y="-231.004" fill="#7B777F" width="10.291" height="2.865"/>
			<rect x="470.166" y="-225.004" fill="#7B777F" width="29.459" height="2.865"/>
			<rect x="451.166" y="-216.004" fill="#7B777F" width="18.959" height="2.865"/>
			<rect x="470.166" y="-202.004" fill="#7B777F" width="34.293" height="2.865"/>
			<rect x="455.166" y="-197.004" fill="#7B777F" width="33.626" height="2.865"/>
			<rect x="504.166" y="-192.004" fill="#7B777F" width="14.959" height="2.865"/>
			<rect x="475.166" y="-187.004" fill="#7B777F" width="19.376" height="2.865"/>
			<rect x="499.166" y="-187.004" fill="#7B777F" width="29.459" height="2.865"/>
			<rect x="460.166" y="-162.004" fill="#7B777F" width="29.626" height="2.865"/>
			<rect x="495.166" y="-162.004" fill="#7B777F" width="24.043" height="2.865"/>
			<rect x="465.166" y="-157.004" fill="#7B777F" width="39.293" height="2.865"/>
			<rect x="460.166" y="-148.004" fill="#7B777F" width="49.125" height="2.865"/>
			<rect x="470.166" y="-138.004" fill="#7B777F" width="24.625" height="2.865"/>
			<rect x="499.166" y="-138.004" fill="#7B777F" width="15.209" height="2.865"/>
			<rect x="519.166" y="-138.004" fill="#7B777F" width="9.542" height="2.865"/>
			<rect x="455.416" y="-123.004" fill="#7B777F" width="20.292" height="2.865"/>
		</g>
		<g id="Layer_20">
			<path fill="#6AD3FF" d="M195-90.004v-14.988c0,0,0.042-4.32,0.125-8.32s4.018-3.525,4.018-3.525l3.215-0.158h138.985
				c0,0,3.491-0.402,3.574,3.598s0.083,8.432,0.083,8.432V-91"/>
			<path fill="#41C8F7" d="M345.042-92.631c0,0,0.146,4.23,0.062,8.23s-3.453,3.396-3.453,3.396H201.697l-3.146,0.084
				c0,0-3.433,0.582-3.516-3.418s0-8.252,0-8.252"/>
			<rect x="223" y="-117.004" fill="#FFFFFF" width="4" height="36"/>
			<rect x="324" y="-117.004" fill="#FFFFFF" width="8" height="36"/>
			<rect x="313" y="-117.004" fill="#FFFFFF" width="4" height="36"/>
			<path fill="#624354" d="M332.727-128.631c0,0,0.118,4.23,0.051,8.23c-0.065,4-2.822,3.396-2.822,3.396H215.479l-2.604,0.016
				c0,0-2.775,0.65-2.844-3.35c-0.069-4,0-8.252,0-8.252"/>
			<rect x="208" y="-117.004" fill="#FFFFFF" width="8" height="36"/>
			<path fill="#624354" d="M332.727-137.95c0,0,0.118-4.444,0.051-8.444c-0.065-4-2.822-3.61-2.822-3.61H215.479l-2.604,0.198
				c0,0-2.775-0.544-2.844,3.456c-0.069,4,0,8.305,0,8.305"/>
			<polygon fill="#F2F2E9" points="332.812,-127.278 210,-127.42 210,-124.004 332.814,-124.004 			"/>
			<polygon fill="#F2F2E9" points="332.812,-142.627 210,-143.004 210,-139.004 332.814,-139.004 			"/>
			<polygon fill="#FFFFFF" points="332.812,-139.536 210,-139.407 210,-127.004 332.814,-127.004 			"/>
			<polyline fill="#F27071" points="303.333,-131.295 308,-129.086 308,-138.311 308,-139.004 299,-139.004 299,-138.311 
				299,-129.086 303.762,-131.295 			"/>
			<path fill="#FACF01" d="M197-156.004v-13.367c0,0,0.037-3.782,0.109-7.283c0.072-3.501,3.517-3.15,3.517-3.15l2.812-0.201
				h121.619c0,0,2.928-0.291,2.998,3.209c0.073,3.501-0.056,7.441-0.056,7.441v12.35"/>
			<path fill="#E8BC05" d="M327.872-160.631c0,0,0.127,3.933,0.055,7.422c-0.071,3.488-3.012,3.205-3.012,3.205H202.842
				l-2.742-0.167c0,0-2.994,0.385-3.063-3.102c-0.072-3.489,0-7.258,0-7.258"/>
		</g>
		<g id="Layer_21">
			<rect x="206" y="-180.004" fill="#E8BC05" width="3" height="30"/>
			<rect x="315" y="-180.004" fill="#E8BC05" width="3" height="30"/>
			<rect x="209" y="-180.004" fill="#FACF01" width="3" height="30"/>
			<rect x="318" y="-180.004" fill="#FACF01" width="3" height="30"/>
			<polygon fill="#FACF01" points="220,-163.754 220,-158.889 225.125,-155.004 303,-155.004 307,-159.253 307.083,-163.671 			"/>
			<polygon fill="#FFDA3E" points="220,-161.004 220,-170.12 225.125,-174.004 303,-174.004 307,-169.755 307,-161.004 			"/>
			<circle cx="186.75" cy="-223.087" r="1.583"/>
		</g>
	</g>
	<rect x="426" y="-21.167" fill="#FACF01" width="30" height="19"/>
</g>
<g id="Layer_2_2_">
	<rect x="112.5" y="13.833" fill="#FFFFFF" width="175" height="217.599"/>
	<polygon points="259.75,10.083 292.5,42.833 291.5,9.5 	"/>
	<polygon fill="#DDDDDD" points="287.792,38.292 263.417,13.917 263.417,38.375 	"/>
	<path fill="#B8B4B4" d="M248.281,132.583l0.746,0.375l2.15,0.641c0,0,0.665-0.035,0.383-0.598l-1.468-1.447l-0.892-0.634
		C249.201,130.92,247.753,131.249,248.281,132.583z"/>
	<polygon fill="#6B6B6B" points="248.187,132.929 248.63,133.159 249.881,130.996 249.42,130.695 	"/>
	<g>
		<g>
			<path d="M251.027,133.542c0.225,0.032,0.376,0.019,0.53-0.158c0.126-0.146-0.085-0.358-0.213-0.213
				c-0.079,0.027-0.158,0.055-0.237,0.082C250.918,133.225,250.837,133.514,251.027,133.542L251.027,133.542z"/>
		</g>
	</g>
	<polygon fill="#FFFFFF" points="238.103,129.161 248.178,133.105 249.569,130.636 241.439,123.043 	"/>
	
		<linearGradient id="SVGID_1_" gradientUnits="userSpaceOnUse" x1="222.0859" y1="162.4106" x2="227.2877" y2="154.6746" gradientTransform="matrix(0.9953 -0.097 0.097 0.9953 5.0899 -6.5918)">
		<stop  offset="0" style="stop-color:#E4AB3A"/>
		<stop  offset="0.5" style="stop-color:#E4AB3A;stop-opacity:0.27"/>
		<stop  offset="1" style="stop-color:#E4AB3A"/>
	</linearGradient>
	<polygon fill="url(#SVGID_1_)" points="238.103,129.161 248.178,133.105 249.569,130.636 241.439,123.043 	"/>
	
		<rect x="235.627" y="125.472" transform="matrix(0.5079 -0.8614 0.8614 0.5079 9.3982 268.4679)" fill="#EFD69E" width="8.091" height="1.072"/>
	
		<linearGradient id="SVGID_2_" gradientUnits="userSpaceOnUse" x1="214.8535" y1="159.7583" x2="221.5555" y2="150.4555" gradientTransform="matrix(0.9953 -0.097 0.097 0.9953 5.0899 -6.5918)">
		<stop  offset="0" style="stop-color:#E4AB3A"/>
		<stop  offset="0.5" style="stop-color:#E4AB3A;stop-opacity:0.27"/>
		<stop  offset="1" style="stop-color:#E4AB3A"/>
	</linearGradient>
	<polygon fill="url(#SVGID_2_)" points="234.801,128.118 237.355,129.685 241.652,122.252 239.032,120.536 	"/>
	<path fill="#C8841F" d="M173.414,95.261c0,0-0.338-3.142-2.291-1.645"/>
	<path d="M225.296,123.248l7.329,3.558c0,0,1.513,0.933,1.701,1.489c0.189,0.559,0.993,0.2,0.993,0.2l4.482-7.455l-0.398-0.524
		c0,0-0.283-0.379-0.756-0.237s-8.473-5.04-8.473-5.04l-3.628,1.337l-1.744,3.615L225.296,123.248z"/>
	<path fill="#FFFFFF" d="M218.375,119.708l7.189,3.738c0,0,2.319-7.196,4.424-8.178l-7.15-4.758l-3.326,1.786l-1.983,5.926
		L218.375,119.708z"/>
	
		<linearGradient id="SVGID_3_" gradientUnits="userSpaceOnUse" x1="186.4258" y1="154.8276" x2="195.1944" y2="162.2629" gradientTransform="matrix(0.9873 -0.1592 0.1592 0.9873 8.9192 -9.8749)">
		<stop  offset="0" style="stop-color:#000000"/>
		<stop  offset="1" style="stop-color:#231F20;stop-opacity:0.77"/>
		<stop  offset="1" style="stop-color:#666666;stop-opacity:0"/>
	</linearGradient>
	<path fill="url(#SVGID_3_)" d="M218.375,119.708l7.189,3.738c0,0,2.319-7.196,4.424-8.178l-7.15-4.758l-3.326,1.786l-1.983,5.926
		L218.375,119.708z"/>
	<path d="M187.556,101.101l30.819,18.606c0,0-0.203-3.987,4.264-8.963l0.199-0.234l-28.989-17.29l-0.823-0.027l-3.766,3.039
		L187.556,101.101z"/>
	<path d="M149.978,77.166c0,0-8.83-9.521,3.358-6.824c0,0,29.549,14.421,40.469,22.658c0,0-5.896,3.652-5.815,9.179
		c0,0-9.404-4.698-15.215-8.896S149.978,77.166,149.978,77.166z"/>
	<path fill="#F2CB75" d="M182.259,99.32l2.188,0.998c0,0-0.714-6.1,5.862-9.727l-2.272-1.525
		C188.036,89.066,182.629,91.559,182.259,99.32z"/>
	<path fill="#F2CB75" d="M190.838,90.907c0,0-6.154,3.591-5.819,9.729l0.671,0.355c0,0,0.326-6.893,5.827-9.627L190.838,90.907z"/>
	<path fill="#F2CB75" d="M153.905,70.621l0.845,0.417c0,0-3.312,2.963-2.919,7.43l-0.435,0.901c0,0,1.82,1.327,2.615,1.655
		s5.336,2.408,19.402,14.237l-0.28,0.463l-9.071-5.985c0,0-10.158-7.076-11.512-7.923c-1.352-0.845-2.89-2.219-2.89-2.219
		s0.536-0.441,0.571-0.852C150.268,78.334,151.633,71.814,153.905,70.621z"/>
	<path fill="#C7C7C7" d="M181.327,95.835c0,0-28.699-18.151-28.795-18.744c-0.095-0.594,0.262-1.731,0.262-1.731l29.444,17.83
		L181.327,95.835z"/>
	
		<ellipse transform="matrix(0.8725 0.4886 -0.4886 0.8725 55.3533 -63.5257)" fill="#C7C7C7" cx="149.418" cy="74.317" rx="1.167" ry="0.566"/>
	<path fill="#F2CB75" d="M181.033,98.451c0,0-0.291-6.673,5.744-10.136l0.549,0.338c0,0-5.599,3.796-5.776,10.089L181.033,98.451z"
		/>
	<path fill="#C4C8C9" d="M189.681,100.315l28.691,16.64c0,0,0.252-1.833,0.601-2.138c0.348-0.306-28.231-16.562-28.231-16.562
		S189.677,99.366,189.681,100.315z"/>
	<path fill="#C7C7C7" d="M227.354,121.333l0.873-1.289c0,0,7.38,4.923,8.51,4.809s-0.984,1.645-0.984,1.645L227.354,121.333z"/>
	<path fill="#5A5A5A" d="M218.375,119.708c0,0,0.532-6.177,4.6-9.106l0.316,0.211c0,0-4.534,4.309-4.543,9.089L218.375,119.708z"/>
	<path fill="#5A5A5A" d="M225.348,123.383c0,0,0.672-5.595,4.518-8.157l0.287,0.199c0,0-4.317,3.803-4.466,8.144L225.348,123.383z"
		/>
</g>
</svg>
