<?xml version="1.0" encoding="utf-8"?>
<!-- Generator: Adobe Illustrator 15.0.0, SVG Export Plug-In . SVG Version: 6.00 Build 0)  -->
<!DOCTYPE svg PUBLIC "-//W3C//DTD SVG 1.1//EN" "http://www.w3.org/Graphics/SVG/1.1/DTD/svg11.dtd">
<svg version="1.1" id="Layer_1" xmlns="http://www.w3.org/2000/svg" xmlns:xlink="http://www.w3.org/1999/xlink" x="0px" y="0px"
	 width="1295.934px" height="846.309px" viewBox="0 0 1295.934 846.309" enable-background="new 0 0 1295.934 846.309"
	 xml:space="preserve">
<g id="Layer_2">
	<g id="Layer_2_2_">
		<g id="Layer_3_1_">
			<g id="Layer_5" enable-background="new    ">
				<rect y="-64.517" fill="#6FD4FD" width="1306.483" height="1270.017"/>
			</g>
		</g>
	</g>
</g>
<g id="Layer_3">
	<polygon fill="#FFFFFF" points="288.922,49.786 296.271,39.778 292.83,51.81 	"/>
	<path fill="#6FD4FD" d="M954.219,805.695c0,0,104.936-10.917,154.577-99.258c49.646-88.342,21.028-7.555,21.028-7.555
		l12.104,97.395l-30.164,28.208l-165.555-2.998"/>
	<rect x="270.467" y="7.5" fill="#FFFFFF" width="754" height="760.504"/>
</g>
<path fill="#B8B4B4" d="M770.186,636.054l-2.042-0.427l-5.605-0.168c0,0-1.581,0.512-0.541,1.688l4.475,2.553l2.562,0.958
	C769.034,640.658,772.321,638.936,770.186,636.054z"/>
<polygon fill="#6B6B6B" points="770.193,635.155 768.976,634.885 767.345,640.913 768.649,641.344 "/>
<g>
	<g>
		<path d="M762.923,635.727c-0.45,0.031-0.808,0.181-0.972,0.622c-0.066,0.18,0.204,0.31,0.271,0.129
			c0.129-0.35,0.384-0.43,0.727-0.454C763.141,636.012,763.115,635.712,762.923,635.727L762.923,635.727z"/>
	</g>
</g>
<polygon fill="#FFFFFF" points="796.968,637.781 770.103,634.726 768.326,641.58 792.841,654.698 "/>
<linearGradient id="SVGID_1_" gradientUnits="userSpaceOnUse" x1="1966.5273" y1="302.0361" x2="1979.5273" y2="321.3696" gradientTransform="matrix(-0.937 0.3496 0.3496 0.937 2522.0142 -340.7271)">
	<stop  offset="0" style="stop-color:#E4AB3A"/>
	<stop  offset="0.5" style="stop-color:#E4AB3A;stop-opacity:0.27"/>
	<stop  offset="1" style="stop-color:#E4AB3A"/>
</linearGradient>
<polygon fill="url(#SVGID_1_)" points="796.968,637.781 770.103,634.726 768.326,641.58 792.841,654.698 "/>
<rect x="785.133" y="645.031" transform="matrix(0.2694 -0.963 0.963 0.2694 -41.499 1238.0372)" fill="#EFD69E" width="20.216" height="2.679"/>
<linearGradient id="SVGID_2_" gradientUnits="userSpaceOnUse" x1="1948.4531" y1="308.6636" x2="1965.202" y2="331.912" gradientTransform="matrix(-0.937 0.3496 0.3496 0.937 2522.0142 -340.7271)">
	<stop  offset="0" style="stop-color:#E4AB3A"/>
	<stop  offset="0.5" style="stop-color:#E4AB3A;stop-opacity:0.27"/>
	<stop  offset="1" style="stop-color:#E4AB3A"/>
</linearGradient>
<polygon fill="url(#SVGID_2_)" points="805.613,638.179 798.437,636.034 792.833,656.745 800.265,659.208 "/>
<path fill="#C8841F" d="M974.976,678.1c0,0,2.834,7.369,6.592,2.501"/>
<path d="M831.697,643.836l-19.984-3.884c0,0-4.254-1.283-5.068-2.507c-0.814-1.227-2.527,0.157-2.527,0.157l-6.033,20.882
	l1.297,1.01c0,0,0.928,0.736,1.979,0.088c1.051-0.645,23.698,6.729,23.698,6.729l7.904-5.56l1.89-9.848L831.697,643.836z"/>
<path fill="#FFFFFF" d="M850.686,647.939l-19.763-4.411c0,0-0.979,18.871-5.434,22.594l20.323,6.897l6.889-6.451l0.982-15.587
	L850.686,647.939z"/>
<linearGradient id="SVGID_3_" gradientUnits="userSpaceOnUse" x1="1893.8154" y1="264.3076" x2="1915.7316" y2="245.724" gradientTransform="matrix(-0.9131 0.4075 0.4075 0.9131 2478.2383 -350.1337)">
	<stop  offset="0" style="stop-color:#000000"/>
	<stop  offset="1" style="stop-color:#231F20;stop-opacity:0.77"/>
	<stop  offset="1" style="stop-color:#666666;stop-opacity:0"/>
</linearGradient>
<path fill="url(#SVGID_3_)" d="M850.686,647.939l-19.763-4.411c0,0-0.979,18.871-5.434,22.594l20.323,6.897l6.889-6.451
	l0.982-15.587L850.686,647.939z"/>
<path d="M937.069,673.08l-86.384-25.141c0,0,3.051,9.501-4.541,24.387l-0.333,0.693l81.122,23.135l2.005-0.461l7.145-9.759
	L937.069,673.08z"/>
<path fill="#5A5A5A" d="M936.945,671.102c0,0-2.06-0.852-2.45,0.649c-0.392,1.502,2.62,12.755-8.035,23.942
	c0,0-0.532,1.232,1.557,0.963c2.09-0.271,7.184-5.992,7.184-5.992l4.114-14.258L936.945,671.102z"/>
<path d="M1043.201,706.752c0,0,27.441,17.316-3.727,18.636c0,0-80.628-15.848-112.29-28.727c0,0,11.892-12.61,8.148-25.905
	c0,0,25.73,5.309,42.458,11.712C994.522,688.872,1043.201,706.752,1043.201,706.752z"/>
<path fill="#F2CB75" d="M951.009,673.98l-5.925-1.006c0,0,5.641,14.273-7.91,27.257l6.468,2.225
	C943.64,702.455,955.1,692.962,951.009,673.98z"/>
<path fill="#F2CB75" d="M935.692,699.81c0,0,12.558-12.625,7.804-27.237l-1.847-0.429c0,0,3.637,16.857-7.893,26.995L935.692,699.81
	z"/>
<path fill="#F2CB75" d="M1037.919,725.078l-2.307-0.463c0,0,6.097-9.284,2.278-19.818l0.468-2.454c0,0-5.246-2.04-7.378-2.32
	s-14.434-2.389-56.004-21.923l0.379-1.297l25.752,8.629c0,0,29.082,10.563,32.892,11.737c3.808,1.176,8.407,3.503,8.407,3.503
	s-1.015,1.41-0.833,2.425C1041.751,704.113,1042.642,720.736,1037.919,725.078z"/>
<path fill="#C7C7C7" d="M955.497,681.796c0,0,80.972,25.405,81.583,26.774c0.61,1.371,0.478,4.35,0.478,4.35l-82.563-24.148
	L955.497,681.796z"/>
<ellipse transform="matrix(-0.2479 0.9688 -0.9688 -0.2479 1996.7648 -123.5861)" fill="#C7C7C7" cx="1046.355" cy="713.302" rx="1.418" ry="2.92"/>
<path fill="#F2CB75" d="M954.523,675.292c0,0,4.993,15.927-7.359,28.171l-1.543-0.465c0,0,11.081-12.766,7.468-28.079
	L954.523,675.292z"/>
<path fill="#C4C8C9" d="M932.443,676.344l-79.982-21.757c0,0,0.57,4.587-0.077,5.549c-0.644,0.963,78.82,21.862,78.82,21.862
	S933.062,678.635,932.443,676.344z"/>
<path fill="#C7C7C7" d="M827.956,649.782l-1.28,3.673c0,0-20.986-7.148-23.642-6.148c-2.655,1.003,1.32-4.604,1.32-4.604
	L827.956,649.782z"/>
<path fill="#5A5A5A" d="M850.686,647.939c0,0,2.681,15.261-5.258,24.949l-0.901-0.306c0,0,8.183-13.321,5.135-24.872
	L850.686,647.939z"/>
<path fill="#5A5A5A" d="M831.485,643.54c0,0,1.972,13.941-5.672,22.604l-0.82-0.298c0,0,7.983-11.958,5.555-22.534L831.485,643.54z"
	/>
</svg>
