<?xml version="1.0" encoding="utf-8"?>
<!-- Generator: Adobe Illustrator 15.0.0, SVG Export Plug-In . SVG Version: 6.00 Build 0)  -->
<!DOCTYPE svg PUBLIC "-//W3C//DTD SVG 1.1//EN" "http://www.w3.org/Graphics/SVG/1.1/DTD/svg11.dtd">
<svg version="1.1" xmlns="http://www.w3.org/2000/svg" xmlns:xlink="http://www.w3.org/1999/xlink" x="0px" y="0px" width="400px"
	 height="242.667px" viewBox="0 0 400 242.667" enable-background="new 0 0 400 242.667" xml:space="preserve">
<g id="Layer_1">
	<g id="Layer_2_1_">
		<rect x="-4.5" y="-12.167" width="412" height="267"/>
	</g>
	<g id="Layer_1_2_">
		<g id="Layer_19" display="none">
		</g>
		<g id="Layer_18" display="none">
			<path display="inline" fill="#FDFDFD" d="M-220.575-209.462l-8.341-5.125c0,0-5.333-3.168,1.667-15.5
				c0,0,5.919-9.75,12.335-6.167c1.877,1.048,4.523,2.609,7.329,4.294"/>
		</g>
		<g id="Layer_17" display="none">
			<path display="inline" fill="#9B9B9B" d="M-176.357-199.434c-11.127,19.223-29.175,29.578-40.305,23.124
				c-11.134-6.448-11.131-27.247,0.002-46.467c11.128-19.219,29.179-29.575,40.309-23.128
				C-165.218-239.454-165.227-218.651-176.357-199.434z"/>
		</g>
		<g id="Layer_16" display="none">
			<path display="inline" fill="#7F7C80" d="M-155.462-186.727c-14.648,25.308-38.408,38.939-53.061,30.443
				c-14.658-8.489-14.654-35.871,0.003-61.174c14.649-25.301,38.413-38.936,53.065-30.448
				C-140.796-239.412-140.808-212.026-155.462-186.727z"/>
			<polyline display="inline" fill="#7F7C80" points="-199.125,-149.629 -210.5,-157.588 -154.375,-247.129 -142.875,-239.129 			
				"/>
		</g>
		<g id="Layer_15" display="none">
			<path display="inline" fill="#4E4A51" d="M-145.462-179.727c-14.648,25.308-38.408,38.939-53.061,30.443
				c-14.658-8.489-14.654-35.875,0.003-61.174c14.649-25.301,38.413-38.936,53.065-30.448
				C-130.796-232.412-130.808-205.026-145.462-179.727z"/>
		</g>
		<g id="Layer_14" display="none">
			<path display="inline" fill="#FDFDFD" d="M-96.25-167.754l-45.831-26.333c0,0-15.417-9.584-21.833-13.167
				s-12.335,6.167-12.335,6.167c-7,12.332-1.667,15.5-1.667,15.5l22.917,14.084L-111-146.004"/>
		</g>
		<g id="Layer_13" display="none">
			<path display="inline" fill="#7F7C80" d="M-54.462-123.727C-69.11-98.418-92.87-84.788-107.523-93.284
				c-14.658-8.489-14.654-35.871,0.003-61.174c14.649-25.301,38.413-38.936,53.065-30.448
				C-39.796-176.412-39.808-149.026-54.462-123.727z"/>
			<polyline display="inline" fill="#7F7C80" points="-98.125,-86.629 -109.5,-94.588 -53.375,-184.129 -41.875,-176.129 			"/>
		</g>
		<g id="Layer_12" display="none">
			<path display="inline" fill="#4E4A51" d="M-44.462-116.727C-59.11-91.418-82.87-77.788-97.523-86.284
				c-14.658-8.489-14.654-35.871,0.003-61.174c14.649-25.301,38.413-38.938,53.065-30.452
				C-29.796-169.412-29.808-142.026-44.462-116.727z"/>
		</g>
		<g id="Layer_11" display="none">
			<path display="inline" fill="#7F7C80" d="M-50.357-119.434c-11.127,19.223-29.175,29.578-40.305,23.124
				c-11.134-6.448-11.131-27.247,0.002-46.467c11.128-19.219,29.179-29.575,40.309-23.128
				C-39.218-159.454-39.227-138.651-50.357-119.434z"/>
			<polyline display="inline" fill="#7F7C80" points="-78.662,-89.31 -91.188,-96.629 -92.062,-107.942 -48.938,-164.942 
				-37.25,-158.129 			"/>
		</g>
		<g id="Layer_10" display="none">
			<path display="inline" fill="#4E4A51" d="M-38.357-112.434C-49.484-93.211-67.532-82.856-78.662-89.31
				c-11.134-6.448-11.131-27.247,0.002-46.467c11.128-19.219,29.179-29.575,40.309-23.128
				C-27.218-152.454-27.227-131.651-38.357-112.434z"/>
		</g>
		<g id="Layer_9" display="none">
			<path display="inline" fill="#FDFDFD" d="M-40.999-99.502l-22.917-14.084c0,0-5.333-3.168,1.667-15.5
				c0,0,5.919-9.75,12.335-6.168c6.416,3.584,21.833,13.168,21.833,13.168"/>
		</g>
		<g id="Layer_8" display="none">
			
				<ellipse transform="matrix(0.8653 0.5013 -0.5013 0.8653 -60.3403 2.5783)" display="inline" fill="#DEDDE0" cx="-34.967" cy="-110.969" rx="7.562" ry="13.058"/>
		</g>
		<g id="Layer_1_1_" display="none">
			<polyline display="inline" fill="#DEDDE0" points="579.917,-76.42 587,-42.504 552,-42.504 545,-42.504 510.334,-42.504 
				517.25,-76.295 			"/>
		</g>
		<g id="Layer_2" display="none">
			<path display="inline" fill="#4E4A51" d="M675-102.67v-127.333c0,0,0-0.125,0-9.375s-9-9.625-9-9.625h-6h-24H436h-6
				c0,0-9,0.375-9,9.625s0,9.375,0,9.375v127.333H675z"/>
			<path display="inline" fill="#FDFDFD" d="M421-103.004v21c0,0-0.25,9,8.875,9s45.125,0,45.125,0h146c0,0,36,0,45.125,0
				s8.875-9,8.875-9v-21"/>
			<rect x="499" y="-44.004" display="inline" fill="#FDFDFD" width="99" height="10"/>
			<rect x="-171" y="-291.004" display="inline" fill="#FACF01" width="48" height="48"/>
		</g>
		<g id="Layer_3">
			<rect x="430.5" y="-239.504" fill="#7F7C80" width="235" height="128"/>
			<circle fill="#4E4A51" cx="548.334" cy="-87.333" r="5"/>
			<path fill="#4E4A51" d="M298.333-81.67v-127.333c0,0,0-0.125,0-9.375s-8.031-9.625-8.031-9.625h-5.354H263.53H85.053h-5.354
				c0,0-8.032,0.375-8.032,9.625s0,9.375,0,9.375V-81.67H298.333z"/>
			<rect x="81.145" y="-218.504" fill="#7F7C80" width="207.71" height="127"/>
			<rect x="59" y="-81.004" fill="#4E4A51" width="253" height="3"/>
			<path fill="#DEDDE0" d="M330-78.004v5c0,0,1.479,8.5-10.521,8.834c-12,0.332-130.736,0.166-130.736,0.166h-4.405
				c0,0-118.667,0.166-130.667-0.166c-12-0.334-10.667-8.834-10.667-8.834v-5"/>
			<path fill="#B7B7B7" d="M328.105-67.141c-1.492,1.557-4.104,2.846-8.627,2.971c-12,0.332-130.744,0.166-130.744,0.166h-4.405
				c0,0-118.667,0.166-130.667-0.166c-12-0.334-10.667-8.834-10.667-8.834v-5h7.625c0,0-1.375,10.125,7.75,10.125
				s269.5,0.875,269.5,0.875"/>
			<path fill="#B7B7B7" d="M206.088-77.983l0.329,0.945c0,0-0.065,4.033-3.731,4.033c-3.664,0-7.199,0-7.199,0H178.21
				c0,0-2.749,0-6.414,0c-3.666,0-3.73-4.033-3.73-4.033L168-77.983"/>
		</g>
		<g id="Layer_4" display="none">
			<path display="inline" fill="#C4C4C4" d="M205-84.004v0.646c0,0-0.875,3.354-4.125,3.354s-4.875,0-4.875,0h-20
				c0,0-1.625,0-4.875,0S167-83.359,167-83.359v-0.646"/>
		</g>
		<g id="Layer_5" display="none">
			<rect x="440" y="-257.004" display="inline" fill="#4E4A51" width="117" height="146"/>
			<rect x="440.5" y="-267.504" display="inline" fill="#7F7C80" width="117" height="10"/>
		</g>
		<g id="Layer_6">
			<rect x="451" y="-255.004" fill="#6AD3FF" width="9.125" height="2.865"/>
			<rect x="451" y="-250.004" fill="#FACF01" width="14" height="3"/>
			<rect x="460" y="-235.004" fill="#FACF01" width="10" height="3"/>
			<rect x="480" y="-192.004" fill="#FACF01" width="20" height="3"/>
			<rect x="451" y="-172.004" fill="#FACF01" width="9" height="3"/>
			<rect x="509" y="-143.004" fill="#FACF01" width="39" height="3"/>
			<rect x="509" y="-231.004" fill="#6AD3FF" width="19.562" height="2.865"/>
			<rect x="451" y="-202.004" fill="#6AD3FF" width="14.209" height="2.865"/>
			<rect x="465" y="-187.004" fill="#6AD3FF" width="5.292" height="2.865"/>
			<rect x="455" y="-167.004" fill="#6AD3FF" width="20.209" height="2.865"/>
			<rect x="451" y="-255.004" fill="#6AD3FF" width="9.125" height="2.865"/>
			<rect x="465" y="-143.004" fill="#6AD3FF" width="24.792" height="2.865"/>
			<rect x="451" y="-128.004" fill="#6AD3FF" width="28.958" height="2.865"/>
			<rect x="475" y="-235.004" fill="#FFFFFF" width="19.792" height="2.865"/>
			<rect x="490" y="-240.004" fill="#FFFFFF" width="29.292" height="2.865"/>
			<rect x="504" y="-225.004" fill="#FFFFFF" width="44.542" height="2.865"/>
			<rect x="455" y="-211.004" fill="#FFFFFF" width="19.792" height="2.865"/>
			<rect x="460" y="-192.004" fill="#FFFFFF" width="14.792" height="2.865"/>
			<rect x="470" y="-182.004" fill="#FFFFFF" width="34.125" height="2.865"/>
			<rect x="480" y="-167.004" fill="#FFFFFF" width="58.209" height="2.865"/>
			<rect x="494.084" y="-143.004" fill="#FFFFFF" width="10.541" height="2.865"/>
			<rect x="480" y="-123.004" fill="#FFFFFF" width="19.792" height="2.865"/>
			<rect x="455.334" y="-240.004" fill="#7B777F" width="29.458" height="2.865"/>
			<rect x="464.334" y="-231.004" fill="#7B777F" width="25.625" height="2.865"/>
			<rect x="494.334" y="-231.004" fill="#7B777F" width="10.291" height="2.865"/>
			<rect x="470.166" y="-225.004" fill="#7B777F" width="29.459" height="2.865"/>
			<rect x="451.166" y="-216.004" fill="#7B777F" width="18.959" height="2.865"/>
			<rect x="470.166" y="-202.004" fill="#7B777F" width="34.293" height="2.865"/>
			<rect x="455.166" y="-197.004" fill="#7B777F" width="33.626" height="2.865"/>
			<rect x="504.166" y="-192.004" fill="#7B777F" width="14.959" height="2.865"/>
			<rect x="475.166" y="-187.004" fill="#7B777F" width="19.376" height="2.865"/>
			<rect x="499.166" y="-187.004" fill="#7B777F" width="29.459" height="2.865"/>
			<rect x="460.166" y="-162.004" fill="#7B777F" width="29.626" height="2.865"/>
			<rect x="495.166" y="-162.004" fill="#7B777F" width="24.043" height="2.865"/>
			<rect x="465.166" y="-157.004" fill="#7B777F" width="39.293" height="2.865"/>
			<rect x="460.166" y="-148.004" fill="#7B777F" width="49.125" height="2.865"/>
			<rect x="470.166" y="-138.004" fill="#7B777F" width="24.625" height="2.865"/>
			<rect x="499.166" y="-138.004" fill="#7B777F" width="15.209" height="2.865"/>
			<rect x="519.166" y="-138.004" fill="#7B777F" width="9.542" height="2.865"/>
			<rect x="455.416" y="-123.004" fill="#7B777F" width="20.292" height="2.865"/>
		</g>
		<g id="Layer_20">
			<path fill="#6AD3FF" d="M195-90.004v-14.988c0,0,0.042-4.32,0.125-8.32s4.018-3.525,4.018-3.525l3.215-0.158h138.985
				c0,0,3.491-0.402,3.574,3.598s0.083,8.432,0.083,8.432V-91"/>
			<path fill="#41C8F7" d="M345.042-92.631c0,0,0.146,4.23,0.062,8.23s-3.453,3.396-3.453,3.396H201.697l-3.146,0.084
				c0,0-3.433,0.582-3.516-3.418s0-8.252,0-8.252"/>
			<rect x="223" y="-117.004" fill="#FFFFFF" width="4" height="36"/>
			<rect x="324" y="-117.004" fill="#FFFFFF" width="8" height="36"/>
			<rect x="313" y="-117.004" fill="#FFFFFF" width="4" height="36"/>
			<path fill="#624354" d="M332.727-128.631c0,0,0.118,4.23,0.051,8.23c-0.065,4-2.822,3.396-2.822,3.396H215.479l-2.604,0.016
				c0,0-2.775,0.65-2.844-3.35c-0.069-4,0-8.252,0-8.252"/>
			<rect x="208" y="-117.004" fill="#FFFFFF" width="8" height="36"/>
			<path fill="#624354" d="M332.727-137.95c0,0,0.118-4.444,0.051-8.444c-0.065-4-2.822-3.61-2.822-3.61H215.479l-2.604,0.198
				c0,0-2.775-0.544-2.844,3.456c-0.069,4,0,8.305,0,8.305"/>
			<polygon fill="#F2F2E9" points="332.812,-127.278 210,-127.42 210,-124.004 332.814,-124.004 			"/>
			<polygon fill="#F2F2E9" points="332.812,-142.627 210,-143.004 210,-139.004 332.814,-139.004 			"/>
			<polygon fill="#FFFFFF" points="332.812,-139.536 210,-139.407 210,-127.004 332.814,-127.004 			"/>
			<polyline fill="#F27071" points="303.333,-131.295 308,-129.086 308,-138.311 308,-139.004 299,-139.004 299,-138.311 
				299,-129.086 303.762,-131.295 			"/>
			<path fill="#FACF01" d="M197-156.004v-13.367c0,0,0.037-3.782,0.109-7.283c0.072-3.501,3.517-3.15,3.517-3.15l2.812-0.201
				h121.619c0,0,2.928-0.291,2.998,3.209c0.073,3.501-0.056,7.441-0.056,7.441v12.35"/>
			<path fill="#E8BC05" d="M327.872-160.631c0,0,0.127,3.933,0.055,7.422c-0.071,3.488-3.012,3.205-3.012,3.205H202.842
				l-2.742-0.167c0,0-2.994,0.385-3.063-3.102c-0.072-3.489,0-7.258,0-7.258"/>
		</g>
		<g id="Layer_21">
			<rect x="206" y="-180.004" fill="#E8BC05" width="3" height="30"/>
			<rect x="315" y="-180.004" fill="#E8BC05" width="3" height="30"/>
			<rect x="209" y="-180.004" fill="#FACF01" width="3" height="30"/>
			<rect x="318" y="-180.004" fill="#FACF01" width="3" height="30"/>
			<polygon fill="#FACF01" points="220,-163.754 220,-158.889 225.125,-155.004 303,-155.004 307,-159.253 307.083,-163.671 			"/>
			<polygon fill="#FFDA3E" points="220,-161.004 220,-170.12 225.125,-174.004 303,-174.004 307,-169.755 307,-161.004 			"/>
			<circle cx="186.75" cy="-223.087" r="1.583"/>
		</g>
	</g>
	<rect x="426" y="-21.167" fill="#FACF01" width="30" height="19"/>
</g>
<g id="Layer_2_2_">
	<rect x="112.5" y="13.833" fill="#FFFFFF" width="175" height="217.599"/>
	<polygon points="259.75,10.083 292.5,42.833 291.5,9.5 	"/>
	<polygon fill="#DDDDDD" points="287.792,38.292 263.417,13.917 263.417,38.375 	"/>
	
		<ellipse transform="matrix(-0.2457 -0.9693 0.9693 -0.2457 -43.8978 378.7827)" fill="#231F20" cx="125.429" cy="206.471" rx="3.646" ry="3.167"/>
	
		<rect x="123.088" y="205.001" transform="matrix(-0.2457 -0.9693 0.9693 -0.2457 -41.9523 379.6364)" fill="#231F20" width="7.292" height="2.279"/>
	
		<rect x="130.364" y="197.346" transform="matrix(-0.2457 -0.9693 0.9693 -0.2457 -30.4195 384.6932)" fill="#FFFFFF" width="8.204" height="13.673"/>
	
		<linearGradient id="SVGID_1_" gradientUnits="userSpaceOnUse" x1="184.25" y1="-415.0249" x2="189.9269" y2="-408.5025" gradientTransform="matrix(0.8538 0.5207 -0.5207 0.8538 -108.6868 424.6414)">
		<stop  offset="0" style="stop-color:#231F20"/>
		<stop  offset="0.2325" style="stop-color:#2E2C2D;stop-opacity:0.8311"/>
		<stop  offset="0.5092" style="stop-color:#383838;stop-opacity:0.63"/>
		<stop  offset="0.8856" style="stop-color:#292626;stop-opacity:0.9137"/>
		<stop  offset="1" style="stop-color:#231F20"/>
	</linearGradient>
	<polygon fill="url(#SVGID_1_)" points="260.39,175.769 275.282,168.959 274.76,166.899 258.324,168.299 255.184,169.428 
		256.477,176.388 	"/>
	<path fill="none" stroke="#000000" stroke-width="3" stroke-miterlimit="10" d="M160.064,178.593"/>
	<path fill="#F9A95A" d="M259.014,169.925c0,0-1.947,2.374,0.833,3.139s-118.361,30.985-118.361,30.985l-0.84-3.312l62.921-17.499
		L259.014,169.925z"/>
	<path fill="#F07A22" d="M259.014,169.925c0,0-1.827-0.378-0.442-1.826c1.384-1.448-118.411,30.723-118.411,30.723l0.484,1.915
		L259.014,169.925z"/>
	<path fill="#F6911E" d="M259.727,172.585c0,0-1.185,2.26,0.733,2.896c1.915,0.635-118.417,30.771-118.417,30.771l-0.601-2.369
		L259.727,172.585z"/>
	
		<linearGradient id="SVGID_2_" gradientUnits="userSpaceOnUse" x1="1776.4424" y1="268.2729" x2="1778.5674" y2="268.2729" gradientTransform="matrix(-0.2456 -0.9694 0.9694 -0.2456 454.3836 1956.2019)">
		<stop  offset="0.092" style="stop-color:#000000"/>
		<stop  offset="0.1214" style="stop-color:#030303;stop-opacity:0.8161"/>
		<stop  offset="0.1426" style="stop-color:#0C0C0C;stop-opacity:0.6832"/>
		<stop  offset="0.1612" style="stop-color:#1C1C1C;stop-opacity:0.5663"/>
		<stop  offset="0.1784" style="stop-color:#323232;stop-opacity:0.4587"/>
		<stop  offset="0.1945" style="stop-color:#4F4F4F;stop-opacity:0.3574"/>
		<stop  offset="0.2099" style="stop-color:#737373;stop-opacity:0.2608"/>
		<stop  offset="0.2248" style="stop-color:#9D9D9D;stop-opacity:0.1679"/>
		<stop  offset="0.2387" style="stop-color:#CCCCCC;stop-opacity:0.0803"/>
		<stop  offset="0.2515" style="stop-color:#FFFFFF;stop-opacity:0"/>
		<stop  offset="0.2971" style="stop-color:#C0C0C0;stop-opacity:0.1616"/>
		<stop  offset="0.3439" style="stop-color:#868686;stop-opacity:0.3275"/>
		<stop  offset="0.3893" style="stop-color:#565656;stop-opacity:0.4883"/>
		<stop  offset="0.4321" style="stop-color:#313131;stop-opacity:0.6399"/>
		<stop  offset="0.4716" style="stop-color:#161616;stop-opacity:0.7798"/>
		<stop  offset="0.5067" style="stop-color:#060606;stop-opacity:0.9042"/>
		<stop  offset="0.5337" style="stop-color:#000000"/>
	</linearGradient>
	<polygon fill="url(#SVGID_2_)" points="275.282,168.959 280.797,166.603 274.76,166.899 	"/>
	
		<linearGradient id="SVGID_3_" gradientUnits="userSpaceOnUse" x1="1580.3203" y1="342.9292" x2="1580.3203" y2="342.9292" gradientTransform="matrix(-0.504 -0.8637 0.8637 -0.504 771.2452 1703.7048)">
		<stop  offset="0" style="stop-color:#000000"/>
		<stop  offset="0.0974" style="stop-color:#424242;stop-opacity:0.8383"/>
		<stop  offset="0.206" style="stop-color:#848484;stop-opacity:0.6581"/>
		<stop  offset="0.3045" style="stop-color:#B9B9B9;stop-opacity:0.4945"/>
		<stop  offset="0.3895" style="stop-color:#DFDFDF;stop-opacity:0.3535"/>
		<stop  offset="0.4575" style="stop-color:#F6F6F6;stop-opacity:0.2406"/>
		<stop  offset="0.5" style="stop-color:#FFFFFF;stop-opacity:0.17"/>
		<stop  offset="0.5429" style="stop-color:#F4F4F4;stop-opacity:0.2412"/>
		<stop  offset="0.6174" style="stop-color:#D8D8D8;stop-opacity:0.3649"/>
		<stop  offset="0.7147" style="stop-color:#AAAAAA;stop-opacity:0.5264"/>
		<stop  offset="0.831" style="stop-color:#696969;stop-opacity:0.7195"/>
		<stop  offset="0.9621" style="stop-color:#191919;stop-opacity:0.937"/>
		<stop  offset="1" style="stop-color:#000000"/>
	</linearGradient>
	<path fill="url(#SVGID_3_)" d="M270.952,165.947"/>
	
		<linearGradient id="SVGID_4_" gradientUnits="userSpaceOnUse" x1="1772.7803" y1="120.1611" x2="1780.9844" y2="120.1611" gradientTransform="matrix(-0.2456 -0.9694 0.9694 -0.2456 454.3836 1956.2019)">
		<stop  offset="0" style="stop-color:#231F20"/>
		<stop  offset="0.0439" style="stop-color:#383535"/>
		<stop  offset="0.1186" style="stop-color:#555354"/>
		<stop  offset="0.1972" style="stop-color:#6C6B6B"/>
		<stop  offset="0.2804" style="stop-color:#7C7C7C"/>
		<stop  offset="0.3714" style="stop-color:#868686"/>
		<stop  offset="0.4847" style="stop-color:#898989"/>
		<stop  offset="1" style="stop-color:#231F20"/>
	</linearGradient>
	<polygon fill="url(#SVGID_4_)" points="126.831,201.884 128.846,209.837 142.101,206.479 140.085,198.527 	"/>
	
		<rect x="125.947" y="204.846" transform="matrix(-0.2456 -0.9694 0.9694 -0.2456 -37.0328 381.781)" fill="#231F20" width="8.202" height="0.911"/>
	
		<rect x="127.271" y="204.51" transform="matrix(-0.2456 -0.9694 0.9694 -0.2456 -35.0466 382.6575)" fill="#231F20" width="8.204" height="0.912"/>
	
		<rect x="129.038" y="204.063" transform="matrix(-0.2455 -0.9694 0.9694 -0.2455 -32.4377 383.7886)" fill="#231F20" width="8.205" height="0.911"/>
	
		<rect x="130.364" y="203.727" transform="matrix(-0.2456 -0.9694 0.9694 -0.2456 -30.4304 384.6843)" fill="#231F20" width="8.204" height="0.912"/>
</g>
</svg>
