<?xml version="1.0" encoding="utf-8"?>
<!-- Generator: Adobe Illustrator 15.0.0, SVG Export Plug-In . SVG Version: 6.00 Build 0)  -->
<!DOCTYPE svg PUBLIC "-//W3C//DTD SVG 1.1//EN" "http://www.w3.org/Graphics/SVG/1.1/DTD/svg11.dtd">
<svg version="1.1" id="Layer_1" xmlns="http://www.w3.org/2000/svg" xmlns:xlink="http://www.w3.org/1999/xlink" x="0px" y="0px"
	 width="1295.934px" height="846.309px" viewBox="0 0 1295.934 846.309" enable-background="new 0 0 1295.934 846.309"
	 xml:space="preserve">
<g id="Layer_2">
	<g id="Layer_2_2_">
		<g id="Layer_3_1_">
			<g id="Layer_5" enable-background="new    ">
				<rect y="-64.517" fill="#6FD4FD" width="1306.483" height="1270.017"/>
			</g>
		</g>
	</g>
</g>
<g id="Layer_3">
	<polygon fill="#FFFFFF" points="288.922,49.786 296.271,39.778 292.83,51.81 	"/>
	<path fill="#6FD4FD" d="M954.219,805.695c0,0,104.935-10.917,154.577-99.258c49.646-88.341,21.028-7.554,21.028-7.554
		l12.105,97.394l-30.164,28.208l-165.555-2.998"/>
	<rect x="270.467" y="7.5" fill="#FFFFFF" width="754" height="760.504"/>
</g>
<ellipse transform="matrix(-0.8968 -0.4425 0.4425 -0.8968 160.6482 735.7806)" fill="#C670AD" cx="166.152" cy="349.151" rx="7.547" ry="6.557"/>
<rect x="159.839" y="344.293" transform="matrix(-0.8968 -0.4424 0.4424 -0.8968 164.1334 731.5859)" fill="#C670AD" width="15.094" height="4.718"/>
<rect x="166.202" y="317.696" transform="matrix(-0.8968 -0.4424 0.4424 -0.8968 184.5358 706.7358)" fill="#FFFFFF" width="16.98" height="28.301"/>
<linearGradient id="SVGID_1_" gradientUnits="userSpaceOnUse" x1="2288.8828" y1="154.2051" x2="2304.918" y2="154.2051" gradientTransform="matrix(-0.8968 -0.4426 0.4426 -0.8968 2277.0015 1259.3478)">
	<stop  offset="0" style="stop-color:#FBB03B"/>
	<stop  offset="0.1562" style="stop-color:#E6A84F;stop-opacity:0.7406"/>
	<stop  offset="0.3673" style="stop-color:#CF9F65;stop-opacity:0.3902"/>
	<stop  offset="0.5" style="stop-color:#C69C6D;stop-opacity:0.17"/>
	<stop  offset="0.644" style="stop-color:#D1A063;stop-opacity:0.409"/>
	<stop  offset="0.8931" style="stop-color:#EDAB48;stop-opacity:0.8225"/>
	<stop  offset="1" style="stop-color:#FBB03B"/>
</linearGradient>
<polygon fill="url(#SVGID_1_)" points="287.032,119.384 296.322,86.788 292.375,84.841 272.498,112.599 270.051,119.06 
	282.748,126.377 "/>
<path fill="none" stroke="#000000" stroke-width="3" stroke-miterlimit="10" d="M168.803,257.159"/>
<path fill="#F3D946" d="M276.388,113.508c0,0,1.357,5.774,6.058,2.912c4.699-2.865-98.53,204.196-98.53,204.196l-6.344-3.128
	l50.739-109.882L276.388,113.508z"/>
<path fill="#C97B29" d="M276.388,113.508c0,0-2.89,2.039-3.473-1.756c-0.583-3.794-99.011,203.926-99.011,203.926l3.667,1.811
	L276.388,113.508z"/>
<path fill="#E4AB3A" d="M281.529,115.967c0,0,2.131,4.569,5.543,2.735c3.411-1.832-98.943,203.996-98.943,203.996l-4.534-2.236
	L281.529,115.967z"/>
<linearGradient id="SVGID_2_" gradientUnits="userSpaceOnUse" x1="2294.9766" y1="181.0898" x2="2299.3779" y2="181.0898" gradientTransform="matrix(-0.8968 -0.4426 0.4426 -0.8968 2277.0015 1259.3478)">
	<stop  offset="0.092" style="stop-color:#000000"/>
	<stop  offset="0.1214" style="stop-color:#030303;stop-opacity:0.8161"/>
	<stop  offset="0.1426" style="stop-color:#0C0C0C;stop-opacity:0.6832"/>
	<stop  offset="0.1612" style="stop-color:#1C1C1C;stop-opacity:0.5663"/>
	<stop  offset="0.1784" style="stop-color:#323232;stop-opacity:0.4587"/>
	<stop  offset="0.1945" style="stop-color:#4F4F4F;stop-opacity:0.3574"/>
	<stop  offset="0.2099" style="stop-color:#737373;stop-opacity:0.2608"/>
	<stop  offset="0.2248" style="stop-color:#9D9D9D;stop-opacity:0.1679"/>
	<stop  offset="0.2387" style="stop-color:#CCCCCC;stop-opacity:0.0803"/>
	<stop  offset="0.2515" style="stop-color:#FFFFFF;stop-opacity:0"/>
	<stop  offset="0.2971" style="stop-color:#C0C0C0;stop-opacity:0.1616"/>
	<stop  offset="0.3439" style="stop-color:#868686;stop-opacity:0.3275"/>
	<stop  offset="0.3893" style="stop-color:#565656;stop-opacity:0.4883"/>
	<stop  offset="0.4321" style="stop-color:#313131;stop-opacity:0.6399"/>
	<stop  offset="0.4716" style="stop-color:#161616;stop-opacity:0.7798"/>
	<stop  offset="0.5067" style="stop-color:#060606;stop-opacity:0.9042"/>
	<stop  offset="0.5337" style="stop-color:#000000"/>
</linearGradient>
<polygon fill="url(#SVGID_2_)" points="296.322,86.788 300.023,74.937 292.375,84.841 "/>
<linearGradient id="SVGID_3_" gradientUnits="userSpaceOnUse" x1="2201.6611" y1="310.9248" x2="2201.6611" y2="310.9248" gradientTransform="matrix(-0.9842 -0.1774 0.1774 -0.9842 2409.5317 762.089)">
	<stop  offset="0" style="stop-color:#000000"/>
	<stop  offset="0.0974" style="stop-color:#424242;stop-opacity:0.8383"/>
	<stop  offset="0.206" style="stop-color:#848484;stop-opacity:0.6581"/>
	<stop  offset="0.3045" style="stop-color:#B9B9B9;stop-opacity:0.4945"/>
	<stop  offset="0.3895" style="stop-color:#DFDFDF;stop-opacity:0.3535"/>
	<stop  offset="0.4575" style="stop-color:#F6F6F6;stop-opacity:0.2406"/>
	<stop  offset="0.5" style="stop-color:#FFFFFF;stop-opacity:0.17"/>
	<stop  offset="0.5429" style="stop-color:#F4F4F4;stop-opacity:0.2412"/>
	<stop  offset="0.6174" style="stop-color:#D8D8D8;stop-opacity:0.3649"/>
	<stop  offset="0.7147" style="stop-color:#AAAAAA;stop-opacity:0.5264"/>
	<stop  offset="0.831" style="stop-color:#696969;stop-opacity:0.7195"/>
	<stop  offset="0.9621" style="stop-color:#191919;stop-opacity:0.937"/>
	<stop  offset="1" style="stop-color:#000000"/>
</linearGradient>
<path fill="url(#SVGID_3_)" d="M297.9,65.583"/>
<linearGradient id="SVGID_4_" gradientUnits="userSpaceOnUse" x1="2287.1104" y1="-98.6113" x2="2304.0918" y2="-98.6113" gradientTransform="matrix(-0.8968 -0.4426 0.4426 -0.8968 2277.0015 1259.3478)">
	<stop  offset="0" style="stop-color:#B9A100"/>
	<stop  offset="0.6074" style="stop-color:#B9A100;stop-opacity:0.13"/>
	<stop  offset="1" style="stop-color:#B9A100"/>
</linearGradient>
<polygon fill="url(#SVGID_4_)" points="160.816,340.779 176.044,348.292 188.567,322.913 173.339,315.4 "/>
<linearGradient id="SVGID_5_" gradientUnits="userSpaceOnUse" x1="2287.1113" y1="-108.0459" x2="2304.0908" y2="-108.0459" gradientTransform="matrix(-0.8968 -0.4426 0.4426 -0.8968 2277.0015 1259.3478)">
	<stop  offset="0" style="stop-color:#736357"/>
	<stop  offset="0.9325" style="stop-color:#B9A100;stop-opacity:0.13"/>
	<stop  offset="1" style="stop-color:#B9A100"/>
</linearGradient>
<polygon fill="url(#SVGID_5_)" points="163.321,335.704 178.548,343.217 177.713,344.909 162.486,337.396 "/>
<linearGradient id="SVGID_6_" gradientUnits="userSpaceOnUse" x1="2287.1094" y1="-105.2153" x2="2304.0918" y2="-105.2153" gradientTransform="matrix(-0.8968 -0.4426 0.4426 -0.8968 2277.0015 1259.3478)">
	<stop  offset="0" style="stop-color:#736357"/>
	<stop  offset="0.9325" style="stop-color:#B9A100;stop-opacity:0.13"/>
	<stop  offset="1" style="stop-color:#B9A100"/>
</linearGradient>
<polygon fill="url(#SVGID_6_)" points="164.574,333.165 179.802,340.68 178.967,342.371 163.737,334.857 "/>
<linearGradient id="SVGID_7_" gradientUnits="userSpaceOnUse" x1="2287.1094" y1="-101.4429" x2="2304.0908" y2="-101.4429" gradientTransform="matrix(-0.8968 -0.4426 0.4426 -0.8968 2277.0015 1259.3478)">
	<stop  offset="0" style="stop-color:#736357"/>
	<stop  offset="0.9325" style="stop-color:#B9A100;stop-opacity:0.13"/>
	<stop  offset="1" style="stop-color:#B9A100"/>
</linearGradient>
<polygon fill="url(#SVGID_7_)" points="166.244,329.782 181.471,337.297 180.636,338.988 165.408,331.474 "/>
<linearGradient id="SVGID_8_" gradientUnits="userSpaceOnUse" x1="2287.1104" y1="-98.6113" x2="2304.0918" y2="-98.6113" gradientTransform="matrix(-0.8968 -0.4426 0.4426 -0.8968 2277.0015 1259.3478)">
	<stop  offset="0" style="stop-color:#736357"/>
	<stop  offset="0.9325" style="stop-color:#B9A100;stop-opacity:0.13"/>
	<stop  offset="1" style="stop-color:#B9A100"/>
</linearGradient>
<polygon fill="url(#SVGID_8_)" points="167.495,327.243 182.724,334.756 181.888,336.45 166.661,328.936 "/>
</svg>
