<?xml version="1.0" encoding="utf-8"?>
<!-- Generator: Adobe Illustrator 15.0.0, SVG Export Plug-In . SVG Version: 6.00 Build 0)  -->
<!DOCTYPE svg PUBLIC "-//W3C//DTD SVG 1.1//EN" "http://www.w3.org/Graphics/SVG/1.1/DTD/svg11.dtd">
<svg version="1.1" id="Layer_1" xmlns="http://www.w3.org/2000/svg" xmlns:xlink="http://www.w3.org/1999/xlink" x="0px" y="0px"
	 width="1295.934px" height="846.309px" viewBox="0 0 1295.934 846.309" enable-background="new 0 0 1295.934 846.309"
	 xml:space="preserve">
<g id="Layer_2">
	<g id="Layer_2_2_">
		<g id="Layer_3_1_">
			<g id="Layer_5" enable-background="new    ">
				<rect y="-229.517" fill="#6FD4FD" width="1306.483" height="1270.017"/>
			</g>
		</g>
	</g>
</g>
<g id="Layer_3">
	<polygon fill="#FFFFFF" points="288.922,-115.214 296.271,-125.222 292.83,-113.19 	"/>
	<path fill="#6FD4FD" d="M954.219,640.695c0,0,104.935-10.917,154.577-99.258c49.646-88.341,21.028-7.554,21.028-7.554
		l12.105,97.394l-30.164,28.208l-165.555-2.998"/>
	<rect x="270.467" y="-157.5" fill="#FFFFFF" width="754" height="760.504"/>
</g>
<path fill="#B8B4B4" d="M1012.796-70.674l-0.491-2.027l-2.254-5.135c0,0-1.142-1.208-1.759,0.236l-0.384,5.138l0.234,2.724
	C1008.143-69.738,1011.109-67.508,1012.796-70.674z"/>
<polygon fill="#6B6B6B" points="1013.61,-71.052 1013.332,-72.268 1007.187,-71.154 1007.357,-69.791 "/>
<g>
	<g>
		<path d="M1009.975-77.374c-0.223-0.393-0.509-0.652-0.98-0.611c-0.191,0.017-0.192,0.317,0,0.3
			c0.371-0.033,0.552,0.162,0.721,0.462C1009.811-77.054,1010.069-77.206,1009.975-77.374L1009.975-77.374z"/>
	</g>
</g>
<polygon fill="#FFFFFF" points="1022.733,-45.743 1013.96,-71.319 1007.006,-69.98 1005.682,-42.209 "/>
<linearGradient id="SVGID_1_" gradientUnits="userSpaceOnUse" x1="1331.9766" y1="980.7266" x2="1344.9758" y2="961.3941" gradientTransform="matrix(-0.7179 -0.6962 0.6962 -0.7179 1298.3723 1571.3307)">
	<stop  offset="0" style="stop-color:#E4AB3A"/>
	<stop  offset="0.5" style="stop-color:#E4AB3A;stop-opacity:0.27"/>
	<stop  offset="1" style="stop-color:#E4AB3A"/>
</linearGradient>
<polygon fill="url(#SVGID_1_)" points="1022.733,-45.743 1013.96,-71.319 1007.006,-69.98 1005.682,-42.209 "/>
<rect x="1004.079" y="-44.978" transform="matrix(-0.9854 0.17 -0.17 -0.9854 2006.1981 -259.0351)" fill="#EFD69E" width="20.217" height="2.679"/>
<linearGradient id="SVGID_2_" gradientUnits="userSpaceOnUse" x1="1313.9023" y1="974.1006" x2="1330.6527" y2="950.85" gradientTransform="matrix(-0.7179 -0.6962 0.6962 -0.7179 1298.3723 1571.3307)">
	<stop  offset="0" style="stop-color:#E4AB3A"/>
	<stop  offset="0.5" style="stop-color:#E4AB3A;stop-opacity:0.27"/>
	<stop  offset="1" style="stop-color:#E4AB3A"/>
</linearGradient>
<polygon fill="url(#SVGID_2_)" points="1026.085,-37.763 1024.941,-45.166 1003.829,-41.337 1004.795,-33.568 "/>
<path fill="#C8841F" d="M1062.727,132.338c0,0-5.441,5.723,0.571,7.026"/>
<path d="M1032.171-11.777l-5.07-19.717c0,0-0.668-4.392,0.088-5.653c0.758-1.262-1.226-2.215-1.226-2.215l-21.451,3.514
	l-0.355,1.605c0,0-0.266,1.153,0.77,1.824c1.033,0.673,4.094,24.293,4.094,24.293l8.414,4.753l9.706-2.521L1032.171-11.777z"/>
<path fill="#FFFFFF" d="M1036.616,7.135l-4.501-19.744c0,0-17.464,7.217-22.736,4.791l2.494,21.317l8.783,3.453l14.499-5.803
	L1036.616,7.135z"/>
<linearGradient id="SVGID_3_" gradientUnits="userSpaceOnUse" x1="1232.8848" y1="977.8848" x2="1254.8016" y2="996.469" gradientTransform="matrix(-0.76 -0.6498 0.6498 -0.76 1327.2024 1563.2947)">
	<stop  offset="0" style="stop-color:#000000"/>
	<stop  offset="1" style="stop-color:#231F20;stop-opacity:0.77"/>
	<stop  offset="1" style="stop-color:#666666;stop-opacity:0"/>
</linearGradient>
<path fill="url(#SVGID_3_)" d="M1036.616,7.135l-4.501-19.744c0,0-17.464,7.217-22.736,4.791l2.494,21.317l8.783,3.453l14.499-5.803
	L1036.616,7.135z"/>
<path d="M1050.99,95.947l-14.374-88.812c0,0-7.271,6.834-23.975,6.366l-0.769-0.002l13.926,83.198l1.277,1.613l11.881,2.263
	L1050.99,95.947z"/>
<path fill="#5A5A5A" d="M1052.724,94.986c0,0-0.117-2.226-1.64-1.934c-1.524,0.29-10.395,7.841-25.073,3.019
	c0,0-1.342,0.048-0.2,1.82c1.141,1.771,8.494,3.915,8.494,3.915l14.644-2.403L1052.724,94.986z"/>
<path d="M1066.135,206.257c0,0-3.862,32.219-18.433,4.633c0,0-20.296-79.623-22.253-113.75c0,0,16.493,5.329,26.894-3.759
	c0,0,6.251,25.518,7.647,43.376C1061.388,154.616,1066.135,206.257,1066.135,206.257z"/>
<path fill="#F2CB75" d="M1056.159,108.923l-1.634-5.783c0,0-10.47,11.222-28.014,4.556l0.768,6.796
	C1027.279,114.491,1040.772,120.766,1056.159,108.923z"/>
<path fill="#F2CB75" d="M1026.256,106.177c0,0,16.793,5.922,27.951-4.643l-0.406-1.853c0,0-13.665,10.522-27.769,4.459
	L1026.256,106.177z"/>
<path fill="#F2CB75" d="M1047.315,209.353l-0.571-2.282c0,0,11.001,1.521,18.875-6.45l2.42-0.63c0,0-0.411-5.614-1.073-7.66
	c-0.661-2.045-4.037-14.061-4.239-59.992l1.335-0.214l3.261,26.962c0,0,2.941,30.801,3.516,34.746
	c0.574,3.944,0.445,9.098,0.445,9.098s-1.709-0.312-2.548,0.287C1067.895,203.814,1053.264,211.755,1047.315,209.353z"/>
<path fill="#C7C7C7" d="M1051.027,116.331c0,0,11.811,84.037,10.837,85.178c-0.976,1.141-3.723,2.299-3.723,2.299l-13.63-84.937
	L1051.027,116.331z"/>
<ellipse transform="matrix(-0.192 -0.9814 0.9814 -0.192 1057.4154 1294.4802)" fill="#C7C7C7" cx="1061.613" cy="211.929" rx="2.918" ry="1.418"/>
<path fill="#F2CB75" d="M1056.484,112.661c0,0-12.243,11.346-28.602,5.445l-0.243-1.593c0,0,16.286,4.53,28.565-5.308
	L1056.484,112.661z"/>
<path fill="#C4C8C9" d="M1046.056,93.169l-14.681-81.577c0,0-3.9,2.483-5.045,2.312c-1.146-0.169,14.088,80.573,14.088,80.573
	S1044.253,94.711,1046.056,93.169z"/>
<path fill="#C7C7C7" d="M1025.195-12.604l-3.867,0.421c0,0-2.552-22.024-4.596-23.992c-2.045-1.968,4.727-0.784,4.727-0.784
	L1025.195-12.604z"/>
<path fill="#5A5A5A" d="M1036.616,7.135c0,0-12.632,8.972-24.79,5.961l-0.111-0.946c0,0,15.543,1.673,24.667-6.038L1036.616,7.135z"
	/>
<path fill="#5A5A5A" d="M1032.348-12.095c0,0-11.747,7.766-22.85,4.58l-0.084-0.87c0,0,14.229,2.079,22.738-4.655L1032.348-12.095z"
	/>
</svg>
