<?xml version="1.0" encoding="utf-8"?>
<!-- Generator: Adobe Illustrator 15.0.0, SVG Export Plug-In . SVG Version: 6.00 Build 0)  -->
<!DOCTYPE svg PUBLIC "-//W3C//DTD SVG 1.1//EN" "http://www.w3.org/Graphics/SVG/1.1/DTD/svg11.dtd">
<svg version="1.1" xmlns="http://www.w3.org/2000/svg" xmlns:xlink="http://www.w3.org/1999/xlink" x="0px" y="0px"
	 width="1295.934px" height="1252.235px" viewBox="0 -174.735 1295.934 1252.235"
	 enable-background="new 0 -174.735 1295.934 1252.235" xml:space="preserve">
<g id="Layer_2">
	<g id="Layer_2_2_">
		<g id="Layer_3_1_">
			<g id="Layer_5" enable-background="new    ">
				<rect y="-180.517" fill="#6FD4FD" width="1306.483" height="1270.017"/>
			</g>
		</g>
	</g>
</g>
<g id="Layer_3">
	<polygon fill="#FFFFFF" points="268.185,29.596 288.922,2.786 292.83,4.81 282.266,37.275 278.515,43.076 265.094,37.191 	"/>
	<polygon fill="#FFFFFF" points="288.922,2.786 296.271,-7.222 292.83,4.81 	"/>
	<polygon fill="#FFFFFF" points="887.93,802.648 270.467,802.648 270.467,-38.5 1024.505,-38.5 1024.505,694.693 938.007,781.364 	
		"/>
	<path fill="#6FD4FD" d="M954.219,758.695c0,0,104.934-10.917,154.577-99.258c49.645-88.34,21.028-7.553,21.028-7.553l12.106,97.393
		l-30.164,28.208l-165.555-2.998"/>
	<path fill="#E8E8E8" d="M1024.974,694.693c-41.77,93.688-137.045,108.112-137.045,108.112s78.132-41.337,51.018-95.511
		C938.946,707.295,1028.89,685.909,1024.974,694.693z"/>
</g>
<g id="Layer_1">
	
		<ellipse transform="matrix(0.8881 0.4597 -0.4597 0.8881 138.304 -41.7286)" fill="#C670AD" cx="154.852" cy="263.177" rx="7.547" ry="6.557"/>
	
		<rect x="148.586" y="258.343" transform="matrix(0.888 0.4598 -0.4598 0.888 137.3535 -42.597)" fill="#C670AD" width="15.095" height="4.718"/>
	
		<rect x="155.231" y="231.889" transform="matrix(0.888 0.4598 -0.4598 0.888 131.4618 -47.7282)" fill="#FFFFFF" width="16.981" height="28.302"/>
	
		<linearGradient id="SVGID_1_" gradientUnits="userSpaceOnUse" x1="445.5186" y1="406.1611" x2="461.5527" y2="406.1611" gradientTransform="matrix(0.8881 0.4597 0.4597 -0.8881 -308.4134 174.3473)">
		<stop  offset="0" style="stop-color:#FBB03B"/>
		<stop  offset="0.1562" style="stop-color:#E6A84F;stop-opacity:0.7406"/>
		<stop  offset="0.3673" style="stop-color:#CF9F65;stop-opacity:0.3902"/>
		<stop  offset="0.5" style="stop-color:#C69C6D;stop-opacity:0.17"/>
		<stop  offset="0.644" style="stop-color:#D1A063;stop-opacity:0.409"/>
		<stop  offset="0.8931" style="stop-color:#EDAB48;stop-opacity:0.8225"/>
		<stop  offset="1" style="stop-color:#FBB03B"/>
	</linearGradient>
	<polygon fill="url(#SVGID_1_)" points="268.185,29.596 288.922,2.786 292.83,4.81 282.266,37.275 278.515,43.076 265.094,37.191 	
		"/>
	<path fill="none" stroke="#000000" stroke-width="3" stroke-miterlimit="10" d="M227.354,206.494"/>
	<path fill="#F3D946" d="M279.228,34.682c0,0-5.455,2.331-5.937-3.15c-0.48-5.482-105.996,200.423-105.996,200.423l6.281,3.253
		l58.392-106.014L279.228,34.682z"/>
	<path fill="#C97B29" d="M279.228,34.682c0,0,0.071,3.536,3.473,1.755c3.401-1.78-105.492,200.649-105.492,200.649l-3.632-1.879
		L279.228,34.682z"/>
	<path fill="#E4AB3A" d="M274.199,32c0,0-4.943,0.994-5.49-2.842c-0.547-3.832-105.589,200.637-105.589,200.637l4.49,2.325
		L274.199,32z"/>
	
		<linearGradient id="SVGID_2_" gradientUnits="userSpaceOnUse" x1="451.6113" y1="433.0469" x2="456.0117" y2="433.0469" gradientTransform="matrix(0.8881 0.4597 0.4597 -0.8881 -308.4134 174.3473)">
		<stop  offset="0.092" style="stop-color:#000000"/>
		<stop  offset="0.1214" style="stop-color:#030303;stop-opacity:0.8161"/>
		<stop  offset="0.1426" style="stop-color:#0C0C0C;stop-opacity:0.6832"/>
		<stop  offset="0.1612" style="stop-color:#1C1C1C;stop-opacity:0.5663"/>
		<stop  offset="0.1784" style="stop-color:#323232;stop-opacity:0.4587"/>
		<stop  offset="0.1945" style="stop-color:#4F4F4F;stop-opacity:0.3574"/>
		<stop  offset="0.2099" style="stop-color:#737373;stop-opacity:0.2608"/>
		<stop  offset="0.2248" style="stop-color:#9D9D9D;stop-opacity:0.1679"/>
		<stop  offset="0.2387" style="stop-color:#CCCCCC;stop-opacity:0.0803"/>
		<stop  offset="0.2515" style="stop-color:#FFFFFF;stop-opacity:0"/>
		<stop  offset="0.2971" style="stop-color:#C0C0C0;stop-opacity:0.1616"/>
		<stop  offset="0.3439" style="stop-color:#868686;stop-opacity:0.3275"/>
		<stop  offset="0.3893" style="stop-color:#565656;stop-opacity:0.4883"/>
		<stop  offset="0.4321" style="stop-color:#313131;stop-opacity:0.6399"/>
		<stop  offset="0.4716" style="stop-color:#161616;stop-opacity:0.7798"/>
		<stop  offset="0.5067" style="stop-color:#060606;stop-opacity:0.9042"/>
		<stop  offset="0.5337" style="stop-color:#000000"/>
	</linearGradient>
	<polygon fill="url(#SVGID_2_)" points="288.922,2.786 296.271,-7.222 292.83,4.81 	"/>
	
		<linearGradient id="SVGID_3_" gradientUnits="userSpaceOnUse" x1="443.7451" y1="153.3442" x2="460.7266" y2="153.3442" gradientTransform="matrix(0.8881 0.4597 0.4597 -0.8881 -308.4134 174.3473)">
		<stop  offset="0" style="stop-color:#B9A100"/>
		<stop  offset="0.6074" style="stop-color:#B9A100;stop-opacity:0.13"/>
		<stop  offset="1" style="stop-color:#B9A100"/>
	</linearGradient>
	<polygon fill="url(#SVGID_3_)" points="164.757,262.51 149.677,254.703 162.688,229.569 177.767,237.377 	"/>
	
		<linearGradient id="SVGID_4_" gradientUnits="userSpaceOnUse" x1="443.7461" y1="143.9102" x2="460.7246" y2="143.9102" gradientTransform="matrix(0.8881 0.4597 0.4597 -0.8881 -308.4134 174.3473)">
		<stop  offset="0" style="stop-color:#736357"/>
		<stop  offset="0.9325" style="stop-color:#B9A100;stop-opacity:0.13"/>
		<stop  offset="1" style="stop-color:#B9A100"/>
	</linearGradient>
	<polygon fill="url(#SVGID_4_)" points="167.358,257.482 152.279,249.678 151.412,251.354 166.49,259.159 	"/>
	
		<linearGradient id="SVGID_5_" gradientUnits="userSpaceOnUse" x1="443.7441" y1="146.7402" x2="460.7266" y2="146.7402" gradientTransform="matrix(0.8881 0.4597 0.4597 -0.8881 -308.4134 174.3473)">
		<stop  offset="0" style="stop-color:#736357"/>
		<stop  offset="0.9325" style="stop-color:#B9A100;stop-opacity:0.13"/>
		<stop  offset="1" style="stop-color:#B9A100"/>
	</linearGradient>
	<polygon fill="url(#SVGID_5_)" points="168.66,254.969 153.579,247.163 152.712,248.839 167.793,256.646 	"/>
	
		<linearGradient id="SVGID_6_" gradientUnits="userSpaceOnUse" x1="443.7441" y1="150.5137" x2="460.7266" y2="150.5137" gradientTransform="matrix(0.8881 0.4597 0.4597 -0.8881 -308.4134 174.3473)">
		<stop  offset="0" style="stop-color:#736357"/>
		<stop  offset="0.9325" style="stop-color:#B9A100;stop-opacity:0.13"/>
		<stop  offset="1" style="stop-color:#B9A100"/>
	</linearGradient>
	<polygon fill="url(#SVGID_6_)" points="170.394,251.618 155.312,243.813 154.446,245.489 169.527,253.295 	"/>
	
		<linearGradient id="SVGID_7_" gradientUnits="userSpaceOnUse" x1="443.7451" y1="153.3442" x2="460.7266" y2="153.3442" gradientTransform="matrix(0.8881 0.4597 0.4597 -0.8881 -308.4134 174.3473)">
		<stop  offset="0" style="stop-color:#736357"/>
		<stop  offset="0.9325" style="stop-color:#B9A100;stop-opacity:0.13"/>
		<stop  offset="1" style="stop-color:#B9A100"/>
	</linearGradient>
	<polygon fill="url(#SVGID_7_)" points="171.696,249.105 156.615,241.299 155.748,242.976 170.828,250.78 	"/>
</g>
</svg>
