<?xml version="1.0" encoding="utf-8"?>
<!-- Generator: Adobe Illustrator 15.0.0, SVG Export Plug-In . SVG Version: 6.00 Build 0)  -->
<!DOCTYPE svg PUBLIC "-//W3C//DTD SVG 1.1//EN" "http://www.w3.org/Graphics/SVG/1.1/DTD/svg11.dtd">
<svg version="1.1" id="Layer_1" xmlns="http://www.w3.org/2000/svg" xmlns:xlink="http://www.w3.org/1999/xlink" x="0px" y="0px"
	 width="1295.934px" height="846.309px" viewBox="0 0 1295.934 846.309" enable-background="new 0 0 1295.934 846.309"
	 xml:space="preserve">
<g id="Layer_2">
	<g id="Layer_2_2_">
		<g id="Layer_3_1_">
			<g id="Layer_5" enable-background="new    ">
				<rect y="-64.517" fill="#6FD4FD" width="1306.483" height="1270.017"/>
			</g>
		</g>
	</g>
</g>
<g id="Layer_3">
	<polygon fill="#FFFFFF" points="288.922,49.786 296.271,39.778 292.83,51.81 	"/>
	<path fill="#6FD4FD" d="M954.219,805.695c0,0,104.936-10.917,154.577-99.258c49.646-88.342,21.028-7.555,21.028-7.555
		l12.104,97.395l-30.164,28.208l-165.555-2.998"/>
	<rect x="270.467" y="7.5" fill="#FFFFFF" width="754" height="760.504"/>
</g>
<path fill="#B8B4B4" d="M766.471,696.26l-2.039,0.443l-5.187,2.132c0,0-1.234,1.112,0.194,1.763l5.127,0.506l2.729-0.17
	C767.296,700.934,769.596,698.021,766.471,696.26z"/>
<polygon fill="#6B6B6B" points="766.111,695.437 764.889,695.686 765.857,701.855 767.225,701.717 "/>
<g>
	<g>
		<path d="M759.705,698.922c-0.398,0.213-0.664,0.494-0.634,0.965c0.013,0.191,0.312,0.199,0.3,0.007
			c-0.024-0.372,0.175-0.548,0.479-0.71C760.021,699.094,759.875,698.831,759.705,698.922L759.705,698.922z"/>
	</g>
</g>
<polygon fill="#FFFFFF" points="791.629,686.916 765.854,695.081 767.026,702.064 794.759,704.046 "/>
<linearGradient id="SVGID_1_" gradientUnits="userSpaceOnUse" x1="1966.5273" y1="302.0337" x2="1979.5266" y2="321.3661" gradientTransform="matrix(-0.713 0.7012 0.7012 0.713 1967.7592 -909.9482)">
	<stop  offset="0" style="stop-color:#E4AB3A"/>
	<stop  offset="0.5" style="stop-color:#E4AB3A;stop-opacity:0.27"/>
	<stop  offset="1" style="stop-color:#E4AB3A"/>
</linearGradient>
<polygon fill="url(#SVGID_1_)" points="791.629,686.916 765.854,695.081 767.026,702.064 794.759,704.046 "/>
<rect x="783.447" y="694.124" transform="matrix(-0.1466 -0.9892 0.9892 -0.1466 221.9476 1582.4034)" fill="#EFD69E" width="20.216" height="2.678"/>
<linearGradient id="SVGID_2_" gradientUnits="userSpaceOnUse" x1="1948.4512" y1="308.6621" x2="1965.2001" y2="331.9105" gradientTransform="matrix(-0.713 0.7012 0.7012 0.713 1967.7592 -909.9482)">
	<stop  offset="0" style="stop-color:#E4AB3A"/>
	<stop  offset="0.5" style="stop-color:#E4AB3A;stop-opacity:0.27"/>
	<stop  offset="1" style="stop-color:#E4AB3A"/>
</linearGradient>
<polygon fill="url(#SVGID_2_)" points="799.687,683.754 792.258,684.722 795.586,705.918 803.377,705.137 "/>
<path fill="#C8841F" d="M970.606,651.146c0,0,5.593,5.574,7.038-0.404"/>
<path d="M825.81,678.284l-19.832,4.602c0,0-4.406,0.563-5.649-0.222c-1.244-0.788-2.243,1.174-2.243,1.174l3.005,21.527l1.597,0.393
	c0,0,1.146,0.294,1.842-0.727c0.697-1.017,24.383-3.518,24.383-3.518l4.951-8.3l-2.291-9.763L825.81,678.284z"/>
<path fill="#FFFFFF" d="M844.82,674.287l-19.844,4.032c0,0,6.801,17.63,4.251,22.845l21.37-1.989l3.66-8.699l-5.459-14.633
	L844.82,674.287z"/>
<linearGradient id="SVGID_3_" gradientUnits="userSpaceOnUse" x1="1893.8145" y1="264.3062" x2="1915.7322" y2="245.7213" gradientTransform="matrix(-0.6676 0.7444 0.7444 0.6676 1923.9512 -900.688)">
	<stop  offset="0" style="stop-color:#000000"/>
	<stop  offset="1" style="stop-color:#231F20;stop-opacity:0.77"/>
	<stop  offset="1" style="stop-color:#666666;stop-opacity:0"/>
</linearGradient>
<path fill="url(#SVGID_3_)" d="M844.82,674.287l-19.844,4.032c0,0,6.801,17.63,4.251,22.845l21.37-1.989l3.66-8.699l-5.459-14.633
	L844.82,674.287z"/>
<path d="M933.948,662.02l-89.128,12.268c0,0,6.66,7.432,5.798,24.119l-0.021,0.77l83.504-11.954l1.643-1.238l2.545-11.824
	L933.948,662.02z"/>
<path fill="#5A5A5A" d="M933.028,660.264c0,0-2.229,0.062-1.973,1.593c0.255,1.53,7.593,10.577,2.426,25.138
	c0,0,0.017,1.342,1.814,0.244c1.798-1.1,4.115-8.4,4.115-8.4l-2.057-14.696L933.028,660.264z"/>
<path d="M1044.586,649.489c0,0,32.118,4.622,4.195,18.536c0,0-80.081,18.406-114.244,19.557c0,0,5.717-16.363-3.122-26.977
	c0,0,25.658-5.645,43.544-6.618C992.848,653.013,1044.586,649.489,1044.586,649.489z"/>
<path fill="#F2CB75" d="M947.043,657.158l-5.82,1.497c0,0,10.971,10.733,3.892,28.114l6.813-0.607
	C951.926,686.162,958.519,672.822,947.043,657.158z"/>
<path fill="#F2CB75" d="M943.59,686.988c0,0,6.318-16.648-3.98-28.053l-1.861,0.361c0,0,10.195,13.91,3.801,27.867L943.59,686.988z"
	/>
<path fill="#F2CB75" d="M1047.235,668.377l-2.295,0.518c0,0,1.781-10.963-6.001-19.024l-0.573-2.433c0,0-5.622,0.277-7.683,0.891
	s-14.153,3.703-60.076,2.818l-0.183-1.339l27.032-2.622c0,0,30.861-2.212,34.819-2.693c3.956-0.48,9.105-0.23,9.105-0.23
	s-0.352,1.701,0.228,2.554C1042.186,647.672,1049.777,662.486,1047.235,668.377z"/>
<path fill="#C7C7C7" d="M954.328,662.464c0,0,84.293-9.819,85.41-8.818c1.117,1.003,2.21,3.776,2.21,3.776l-85.235,11.617
	L954.328,662.464z"/>
<ellipse transform="matrix(0.1688 0.9857 -0.9857 0.1688 1517.7239 -491.2881)" fill="#C7C7C7" cx="1050.137" cy="654.184" rx="1.418" ry="2.919"/>
<path fill="#F2CB75" d="M950.787,656.922c0,0,11.054,12.508,4.767,28.724l-1.598,0.205c0,0,4.913-16.175-4.631-28.684
	L950.787,656.922z"/>
<path fill="#C4C8C9" d="M931.055,666.887l-81.902,12.746c0,0,2.391,3.957,2.192,5.099c-0.196,1.142,80.884-12.178,80.884-12.178
	S932.553,668.726,931.055,666.887z"/>
<path fill="#C7C7C7" d="M824.817,685.238l0.329,3.876c0,0-22.078,2.03-24.094,4.026c-2.016,1.998-0.673-4.743-0.673-4.743
	L824.817,685.238z"/>
<path fill="#5A5A5A" d="M844.82,674.287c0,0,8.671,12.842,5.373,24.925l-0.948,0.089c0,0,2.04-15.499-5.453-24.804L844.82,674.287z"
	/>
<path fill="#5A5A5A" d="M825.495,678.1c0,0,7.485,11.926,4.038,22.952l-0.871,0.062c0,0,2.414-14.175-4.116-22.841L825.495,678.1z"
	/>
</svg>
