<?xml version="1.0" encoding="utf-8"?>
<!-- Generator: Adobe Illustrator 15.0.0, SVG Export Plug-In . SVG Version: 6.00 Build 0)  -->
<!DOCTYPE svg PUBLIC "-//W3C//DTD SVG 1.1//EN" "http://www.w3.org/Graphics/SVG/1.1/DTD/svg11.dtd">
<svg version="1.1" xmlns="http://www.w3.org/2000/svg" xmlns:xlink="http://www.w3.org/1999/xlink" x="0px" y="0px"
	 width="1295.934px" height="1032.235px" viewBox="0 -174.735 1295.934 1032.235"
	 enable-background="new 0 -174.735 1295.934 1032.235" xml:space="preserve">
<g id="Layer_2">
	<g id="Layer_2_2_">
		<g id="Layer_3_1_">
			<g id="Layer_5" enable-background="new    ">
				<rect y="-180.517" fill="#6FD4FD" width="1306.483" height="1270.017"/>
			</g>
		</g>
	</g>
</g>
<g id="Layer_3">
	<polygon fill="#FFFFFF" points="268.185,-39.404 288.922,-66.214 292.83,-64.19 282.266,-31.725 278.515,-25.924 265.094,-31.809 	
		"/>
	<polygon fill="#FFFFFF" points="288.922,-66.214 296.271,-76.222 292.83,-64.19 	"/>
	<polygon fill="#FFFFFF" points="887.93,733.648 270.467,733.648 270.467,-107.5 1024.505,-107.5 1024.505,625.693 938.007,712.364 
			"/>
	<path fill="#6FD4FD" d="M954.219,689.695c0,0,104.934-10.917,154.577-99.258c49.645-88.34,21.028-7.553,21.028-7.553l12.106,97.393
		l-30.164,28.208l-165.555-2.998"/>
	<path fill="#E8E8E8" d="M1024.974,625.693c-41.77,93.688-137.045,108.112-137.045,108.112s78.132-41.337,51.018-95.511
		C938.946,638.295,1028.89,616.909,1024.974,625.693z"/>
</g>
<g id="Layer_1">
	
		<ellipse transform="matrix(0.8881 0.4597 -0.4597 0.8881 106.5868 -49.4504)" fill="#C670AD" cx="154.852" cy="194.177" rx="7.547" ry="6.557"/>
	
		<rect x="148.586" y="189.343" transform="matrix(0.888 0.4598 -0.4598 0.888 105.6274 -50.3234)" fill="#C670AD" width="15.095" height="4.718"/>
	
		<rect x="155.231" y="162.889" transform="matrix(0.888 0.4598 -0.4598 0.888 99.7357 -55.4546)" fill="#FFFFFF" width="16.981" height="28.302"/>
	
		<linearGradient id="SVGID_1_" gradientUnits="userSpaceOnUse" x1="413.8027" y1="467.4365" x2="429.8379" y2="467.4365" gradientTransform="matrix(0.8881 0.4597 0.4597 -0.8881 -308.4134 174.3473)">
		<stop  offset="0" style="stop-color:#FBB03B"/>
		<stop  offset="0.1562" style="stop-color:#E6A84F;stop-opacity:0.7406"/>
		<stop  offset="0.3673" style="stop-color:#CF9F65;stop-opacity:0.3902"/>
		<stop  offset="0.5" style="stop-color:#C69C6D;stop-opacity:0.17"/>
		<stop  offset="0.644" style="stop-color:#D1A063;stop-opacity:0.409"/>
		<stop  offset="0.8931" style="stop-color:#EDAB48;stop-opacity:0.8225"/>
		<stop  offset="1" style="stop-color:#FBB03B"/>
	</linearGradient>
	<polygon fill="url(#SVGID_1_)" points="268.185,-39.404 288.922,-66.214 292.83,-64.19 282.266,-31.725 278.515,-25.924 
		265.094,-31.809 	"/>
	<path fill="none" stroke="#000000" stroke-width="3" stroke-miterlimit="10" d="M227.354,137.494"/>
	<path fill="#F3D946" d="M279.228-34.318c0,0-5.455,2.331-5.937-3.15c-0.48-5.482-105.996,200.423-105.996,200.423l6.281,3.253
		l58.392-106.014L279.228-34.318z"/>
	<path fill="#C97B29" d="M279.228-34.318c0,0,0.071,3.536,3.473,1.755c3.401-1.78-105.492,200.649-105.492,200.649l-3.632-1.879
		L279.228-34.318z"/>
	<path fill="#E4AB3A" d="M274.199-37c0,0-4.943,0.994-5.49-2.842c-0.547-3.832-105.589,200.637-105.589,200.637l4.49,2.325
		L274.199-37z"/>
	
		<linearGradient id="SVGID_2_" gradientUnits="userSpaceOnUse" x1="419.8965" y1="494.3223" x2="424.2969" y2="494.3223" gradientTransform="matrix(0.8881 0.4597 0.4597 -0.8881 -308.4134 174.3473)">
		<stop  offset="0.092" style="stop-color:#000000"/>
		<stop  offset="0.1214" style="stop-color:#030303;stop-opacity:0.8161"/>
		<stop  offset="0.1426" style="stop-color:#0C0C0C;stop-opacity:0.6832"/>
		<stop  offset="0.1612" style="stop-color:#1C1C1C;stop-opacity:0.5663"/>
		<stop  offset="0.1784" style="stop-color:#323232;stop-opacity:0.4587"/>
		<stop  offset="0.1945" style="stop-color:#4F4F4F;stop-opacity:0.3574"/>
		<stop  offset="0.2099" style="stop-color:#737373;stop-opacity:0.2608"/>
		<stop  offset="0.2248" style="stop-color:#9D9D9D;stop-opacity:0.1679"/>
		<stop  offset="0.2387" style="stop-color:#CCCCCC;stop-opacity:0.0803"/>
		<stop  offset="0.2515" style="stop-color:#FFFFFF;stop-opacity:0"/>
		<stop  offset="0.2971" style="stop-color:#C0C0C0;stop-opacity:0.1616"/>
		<stop  offset="0.3439" style="stop-color:#868686;stop-opacity:0.3275"/>
		<stop  offset="0.3893" style="stop-color:#565656;stop-opacity:0.4883"/>
		<stop  offset="0.4321" style="stop-color:#313131;stop-opacity:0.6399"/>
		<stop  offset="0.4716" style="stop-color:#161616;stop-opacity:0.7798"/>
		<stop  offset="0.5067" style="stop-color:#060606;stop-opacity:0.9042"/>
		<stop  offset="0.5337" style="stop-color:#000000"/>
	</linearGradient>
	<polygon fill="url(#SVGID_2_)" points="288.922,-66.214 296.271,-76.222 292.83,-64.19 	"/>
	
		<linearGradient id="SVGID_3_" gradientUnits="userSpaceOnUse" x1="412.0293" y1="214.6206" x2="429.0117" y2="214.6206" gradientTransform="matrix(0.8881 0.4597 0.4597 -0.8881 -308.4134 174.3473)">
		<stop  offset="0" style="stop-color:#B9A100"/>
		<stop  offset="0.6074" style="stop-color:#B9A100;stop-opacity:0.13"/>
		<stop  offset="1" style="stop-color:#B9A100"/>
	</linearGradient>
	<polygon fill="url(#SVGID_3_)" points="164.757,193.51 149.677,185.703 162.688,160.569 177.767,168.377 	"/>
	
		<linearGradient id="SVGID_4_" gradientUnits="userSpaceOnUse" x1="412.0312" y1="205.1865" x2="429.0098" y2="205.1865" gradientTransform="matrix(0.8881 0.4597 0.4597 -0.8881 -308.4134 174.3473)">
		<stop  offset="0" style="stop-color:#736357"/>
		<stop  offset="0.9325" style="stop-color:#B9A100;stop-opacity:0.13"/>
		<stop  offset="1" style="stop-color:#B9A100"/>
	</linearGradient>
	<polygon fill="url(#SVGID_4_)" points="167.358,188.482 152.279,180.678 151.412,182.354 166.49,190.159 	"/>
	
		<linearGradient id="SVGID_5_" gradientUnits="userSpaceOnUse" x1="412.0293" y1="208.0166" x2="429.0107" y2="208.0166" gradientTransform="matrix(0.8881 0.4597 0.4597 -0.8881 -308.4134 174.3473)">
		<stop  offset="0" style="stop-color:#736357"/>
		<stop  offset="0.9325" style="stop-color:#B9A100;stop-opacity:0.13"/>
		<stop  offset="1" style="stop-color:#B9A100"/>
	</linearGradient>
	<polygon fill="url(#SVGID_5_)" points="168.66,185.969 153.579,178.163 152.712,179.839 167.793,187.646 	"/>
	
		<linearGradient id="SVGID_6_" gradientUnits="userSpaceOnUse" x1="412.0293" y1="211.7891" x2="429.0107" y2="211.7891" gradientTransform="matrix(0.8881 0.4597 0.4597 -0.8881 -308.4134 174.3473)">
		<stop  offset="0" style="stop-color:#736357"/>
		<stop  offset="0.9325" style="stop-color:#B9A100;stop-opacity:0.13"/>
		<stop  offset="1" style="stop-color:#B9A100"/>
	</linearGradient>
	<polygon fill="url(#SVGID_6_)" points="170.394,182.618 155.312,174.813 154.446,176.489 169.527,184.295 	"/>
	
		<linearGradient id="SVGID_7_" gradientUnits="userSpaceOnUse" x1="412.0303" y1="214.6206" x2="429.0107" y2="214.6206" gradientTransform="matrix(0.8881 0.4597 0.4597 -0.8881 -308.4134 174.3473)">
		<stop  offset="0" style="stop-color:#736357"/>
		<stop  offset="0.9325" style="stop-color:#B9A100;stop-opacity:0.13"/>
		<stop  offset="1" style="stop-color:#B9A100"/>
	</linearGradient>
	<polygon fill="url(#SVGID_7_)" points="171.696,180.105 156.615,172.299 155.748,173.976 170.828,181.78 	"/>
</g>
</svg>
